<?xml version="1.0" standalone="no"?>
<!DOCTYPE svg PUBLIC "-//W3C//DTD SVG 1.1//EN" "http://www.w3.org/Graphics/SVG/1.1/DTD/svg11.dtd" >
<svg>
<metadata>
Created by FontForge 20090914 at Wed Aug 11 17:37:40 2021
 By www-data
Copyright 1990-2000 Bitstream Inc.  All rights reserved.
</metadata>
<defs>
<font id="CenturySchlbkCyrillicBT-Italic" horiz-adv-x="1024" >
  <font-face 
    font-family="CentSchbkCyrill BT"
    font-weight="400"
    font-style="italic"
    font-stretch="normal"
    units-per-em="2048"
    panose-1="2 4 6 3 5 5 5 9 3 3"
    ascent="1556"
    descent="-492"
    x-height="956.002"
    cap-height="1479"
    bbox="-386.999 -483 2363 1991"
    underline-thickness="123"
    underline-position="-152"
    slope="-14.3"
    unicode-range="U+0020-U+2219"
  />
<missing-glyph horiz-adv-x="1229" 
d="M102 -362v1806h1024v-1806h-1024zM217 -248h795v1577h-795v-1577z" />
    <glyph glyph-name=".notdef" horiz-adv-x="1229" 
d="M102 -362v1806h1024v-1806h-1024zM217 -248h795v1577h-795v-1577z" />
    <glyph glyph-name="space" unicode=" " horiz-adv-x="559" 
 />
    <glyph glyph-name="space" unicode="&#xa0;" horiz-adv-x="559" 
 />
    <glyph glyph-name="exclam" unicode="!" horiz-adv-x="680" 
d="M180 219c34.667 0 64.5 -12.5 89.5 -37.5s37.5 -54.833 37.5 -89.5s-12.167 -64.167 -36.5 -88.5s-54.5 -36.5 -90.5 -36.5c-34 0 -63.333 12.333 -88 37s-37 54 -37 88c0 35.333 12.167 65.333 36.5 90s53.833 37 88.5 37zM221 395
c77.333 278 129.335 562.002 156.002 852.002c3.33301 39.333 6 65.333 8 78c9.33301 63.333 26.666 111.666 51.999 144.999s58 50 98 50c36 0 64 -11.167 84 -33.5s30 -53.5 30 -93.5c0 -40.667 -27.333 -120 -82 -238c-30 -65.333 -53 -117.333 -69 -156
c-30 -70.667 -61.833 -156.334 -95.5 -257.001s-70.834 -221 -111.501 -361z" />
    <glyph glyph-name="quotedbl" unicode="&#x22;" horiz-adv-x="686" 
d="M526 860l-34 0.000976562l-70 459c-0.666992 4.66699 -1.16699 9.5 -1.5 14.5s-0.5 12.5 -0.5 22.5c0 34 7.5 60.167 22.5 78.5s36.833 27.5 65.5 27.5c28 0 50 -9 66 -27s24 -43 24 -75c0 -10.667 -0.166992 -18.834 -0.5 -24.501s-0.833008 -11.167 -1.5 -16.5z
M195 860.001h-34.999l-70 459l-3 26c-0.666992 6 -1 11 -1 15c0 32 8 57 24 75s38 27 66 27c29.333 0 51.666 -9.16699 66.999 -27.5s23 -44.5 23 -78.5c0 -10.667 -0.166992 -18.5 -0.5 -23.5s-0.833008 -9.83301 -1.5 -14.5z" />
    <glyph glyph-name="numbersign" unicode="#" horiz-adv-x="1575" 
d="M702 864l-98 -276h283l96 276h-281zM760 1458h155l-161 -454h276l162 454h156l-162 -454h301l-49 -140h-301l-97 -276h320l-49 -139h-320l-162 -453h-155l162 453h-279l-162 -453h-153l159 453h-313l51 139h312l98 276h-336l51 140h334z" />
    <glyph glyph-name="dollar" unicode="$" horiz-adv-x="1118" 
d="M563 844l137 508.001c-100 -4 -178.5 -30.333 -235.5 -79s-85.5 -113.334 -85.5 -194.001c0 -51.333 15.167 -96.5 45.5 -135.5s76.5 -72.167 138.5 -99.5zM449 57.001c101.333 4 184.333 32.832 249 86.499s97 119.834 97 198.501c0 62.667 -15.5 115 -46.5 157
s-81.167 78.333 -150.5 109zM258 -297l74.002 274.001c-93.333 21.333 -169.333 62.166 -228 122.499s-88 126.833 -88 199.5c0 58.667 13.167 104 39.5 136s63.166 48 110.499 48c34.667 0 64.167 -12.833 88.5 -38.5s36.5 -56.5 36.5 -92.5
c0 -22.667 -5.5 -43.334 -16.5 -62.001s-26.5 -33.334 -46.5 -44.001c-6 -3.33301 -14 -7.33301 -24 -12c-24 -10.667 -36 -23.667 -36 -39c0 -24.667 17.5 -49.5 52.5 -74.5s79.5 -44.167 133.5 -57.5l156 584c-102 44 -176.667 94.833 -224 152.5s-71 126.5 -71 206.5
c0 122 46.667 223.833 140 305.5s212 122.5 356 122.5h10l31 131h100l-37 -142c89.333 -20.667 159.166 -57.667 209.499 -111s75.5 -116.666 75.5 -189.999c0 -48 -12.167 -85.833 -36.5 -113.5s-57.833 -41.5 -100.5 -41.5c-34.667 0 -63.5 10.5 -86.5 31.5
s-34.5 47.167 -34.5 78.5c0 21.333 5.33301 41 16 59s25 32 43 42c5.33301 2.66699 12.666 6 21.999 10c23.333 10.667 35 24.334 35 41.001c0 19.333 -15.5 40.333 -46.5 63s-69.833 39.667 -116.5 51l-146 -542c110 -44.667 191.167 -97.667 243.5 -159
s78.5 -134 78.5 -218c0 -128 -51.167 -236.167 -153.5 -324.5s-230.166 -132.5 -383.499 -132.5h-8l-72 -264h-96z" />
    <glyph glyph-name="percent" unicode="%" horiz-adv-x="1686" 
d="M369 -35l745 1321c-36.667 -21.333 -73.834 -37.5 -111.501 -48.5s-74.167 -16.5 -109.5 -16.5c-26 0 -48.5 1.33301 -67.5 4s-35.167 6.66699 -48.5 12c2 -10 3.66699 -20.667 5 -32s2 -24 2 -38c0 -59.333 -12.333 -122.166 -37 -188.499s-58.667 -126.833 -102 -181.5
c-43.333 -56 -90.666 -98.333 -141.999 -127s-105 -43 -161 -43c-78.667 0 -141.667 24.833 -189 74.5s-71 115.5 -71 197.5c0 56.667 12 114 36 172s59 114 105 168c50 58.667 101.333 103.334 154 134.001s103.667 46 153 46c51.333 0 94.166 -7.66699 128.499 -23
s62.5 -39.666 84.5 -72.999c18.667 -15.333 40.834 -27 66.501 -35s54.167 -12 85.5 -12c60 0 121 15.667 183 47s109.667 71.666 143 120.999h90l-842 -1479h-100zM1536 511.998c0 54 -13.334 97.501 -40.001 130.501s-61 49.5 -103 49.5c-34 0 -66.333 -12.5 -97 -37.5
s-66 -68.5 -106 -130.5c-47.333 -74 -84.166 -142.667 -110.499 -206s-39.5 -114.666 -39.5 -153.999c0 -40 13.333 -72.167 40 -96.5s62 -36.5 106 -36.5c41.333 0 81.5 13 120.5 39s76.5 64.667 112.5 116c38 53.333 67 108.166 87 164.499s30 110.166 30 161.499z
M1337 755.999c82.667 0 145.999 -21.501 189.999 -64.501s66 -104.167 66 -183.5c0 -60.667 -12.333 -123.667 -37 -189s-60 -127.333 -106 -186c-43.333 -55.333 -90.333 -97.166 -141 -125.499s-104.667 -42.5 -162 -42.5c-77.333 0 -139.666 24.833 -186.999 74.5
s-71 115.167 -71 196.5c0 56 12 113 36 171s59 114 105 168c49.333 58.667 100.5 103.5 153.5 134.5s104.167 46.5 153.5 46.5zM714.998 1261c-28.667 7.33301 -54.167 18.667 -76.5 34s-41.166 34 -56.499 56c-32 -0.666992 -63.333 -13.667 -94 -39s-65.667 -68 -105 -128
c-48 -73.333 -85 -141.166 -111 -203.499s-39 -114.833 -39 -157.5c0 -39.333 13.167 -71.333 39.5 -96s60.5 -37 102.5 -37s83.167 13.167 123.5 39.5s78.166 65.166 113.499 116.499c38 54.667 67.333 111 88 169s31 113 31 165c0 11.333 -1.5 24.333 -4.5 39
s-6.83301 28.667 -11.5 42z" />
    <glyph glyph-name="ampersand" unicode="&#x26;" horiz-adv-x="1802" 
d="M803 942c102.667 28.667 182.834 71.498 240.501 128.498s86.5 121.5 86.5 193.5c0 48 -13.833 85.5 -41.5 112.5s-66.167 40.5 -115.5 40.5c-62.667 0 -110.834 -22.333 -144.501 -67s-50.5 -109 -50.5 -193c0 -27.333 2.16699 -59.166 6.5 -95.499
s10.5 -76.166 18.5 -119.499zM864 175.998c-60 90 -110.497 186.333 -151.497 289s-72.5 209.667 -94.5 321c-92.667 -40 -162.167 -91.833 -208.5 -155.5s-69.5 -140.167 -69.5 -229.5c0 -91.333 26.667 -166.333 80 -225s121.666 -88 204.999 -88
c37.333 0 75.666 7.16699 114.999 21.5s80.666 36.5 123.999 66.5zM924.003 97.998c-70.667 -46 -138.331 -79.665 -202.998 -100.998s-131.667 -32 -201 -32c-123.333 0 -222.333 35.167 -297 105.5s-112 162.833 -112 277.5c0 114 39 212.667 117 296
s202.667 158.666 374 225.999c-6.66699 32.667 -11.667 64.834 -15 96.501s-5 63.167 -5 94.5c0 140.667 33.5 250.834 100.5 330.501s159.833 119.5 278.5 119.5c94.667 0 171.5 -25 230.5 -75s88.5 -115 88.5 -195c0 -84.667 -37.667 -158.167 -113 -220.5
s-192 -116.5 -350 -162.5c29.333 -122.667 62.333 -231.834 99 -327.501s74.667 -172.167 114 -229.5c72 62 129.333 123.333 172 184s64 110 64 148c0 35.333 -13 61.166 -39 77.499s-67.667 24.5 -125 24.5h-23l21 86h557l-23 -84
c-54.667 -2.66699 -102.334 -16.667 -143.001 -42s-82.334 -68 -125.001 -128c-6 -8 -15.667 -22.333 -29 -43c-80.667 -122 -164.667 -221.667 -252 -299c30 -38 59.833 -65.833 89.5 -83.5s61.5 -26.5 95.5 -26.5c47.333 0 92.333 16 135 48s84.334 80.667 125.001 146
l67 -47c-58.667 -96.667 -122.167 -168.334 -190.5 -215.001s-144.5 -70 -228.5 -70c-51.333 0 -97.833 10 -139.5 30s-79.834 50.333 -114.501 91z" />
    <glyph glyph-name="quotesingle" unicode="'" horiz-adv-x="352" 
d="M195 860h-35.001l-70 459c0 1.33301 -0.333008 4 -1 8c-2 13.333 -3 23 -3 29c0 33.333 7.83301 59.333 23.5 78s37.834 28 66.501 28c28 0 50 -9 66 -27s24 -43 24 -75c0 -4.66699 -0.166992 -9.66699 -0.5 -15s-1.5 -14.333 -3.5 -27z" />
    <glyph glyph-name="parenleft" unicode="(" horiz-adv-x="678" 
d="M365 -238l-43 -32.0039c-79.333 97.333 -139.166 206.333 -179.499 327s-60.5 250.334 -60.5 389.001c0 138 24.5 273 73.5 405s119.5 252.333 211.5 361c64 76 132.5 140 205.5 192s146.5 89.333 220.5 112l14 -50c-94.667 -37.333 -177.834 -93.166 -249.501 -167.499
s-132.5 -167.833 -182.5 -280.5c-56 -125.333 -98 -251.166 -126 -377.499s-42 -253.166 -42 -380.499c0 -99.333 13 -190 39 -272s65.667 -157.333 119 -226z" />
    <glyph glyph-name="parenright" unicode=")" horiz-adv-x="678" 
d="M309 1481l43 32c80 -98 140.333 -207.167 181 -327.5s61 -249.166 61 -386.499c0 -138.667 -24.667 -274.167 -74 -406.5s-119.666 -252.833 -210.999 -361.5c-64 -75.333 -132.333 -138.666 -205 -189.999s-146.334 -88.333 -221.001 -111l-16 47
c94.667 37.333 178.167 93.5 250.5 168.5s133.5 168.833 183.5 281.5c56 125.333 98 251.166 126 377.499s42 253.166 42 380.499c0 98 -13.167 187.833 -39.5 269.5s-66.5 157.167 -120.5 226.5z" />
    <glyph glyph-name="asterisk" unicode="*" 
d="M594 1071l-0.000976562 -10.0059c0 -51.333 14 -108.333 42 -171s42 -102.667 42 -120c0 -28 -9 -50.667 -27 -68s-41.667 -26 -71 -26c-30.667 0 -54.834 8.33301 -72.501 25s-26.5 39.667 -26.5 69c0 16.667 13.667 55.334 41 116.001s41 117 41 169v18
c-26.667 -15.333 -50.667 -32.666 -72 -51.999s-42.333 -43.666 -63 -72.999l-9 -12c-48.667 -68 -92 -102 -130 -102c-22 0 -42.833 11.5 -62.5 34.5s-29.5 47.5 -29.5 73.5c0 30.667 12.333 54 37 70s64 26 118 30c52.667 4.66699 92.834 11.334 120.501 20.001
s52.5 21.334 74.5 38.001c-51.333 32 -120.333 51 -207 57c-12.667 0.666992 -22 1.33398 -28 2.00098c-35.333 3.33301 -63.333 13.833 -84 31.5s-31 39.167 -31 64.5c0 28 9.66699 53.167 29 75.5s41 33.5 65 33.5c38.667 0 80 -31.667 124 -95
c5.33301 -8.66699 9.66602 -15.334 12.999 -20.001c20 -29.333 41 -53.833 63 -73.5s46.667 -36.834 74 -51.501v11c0 52 -13.667 109.667 -41 173s-41 103 -41 119c0 28 9 50.5 27 67.5s42 25.5 72 25.5s53.5 -8.16699 70.5 -24.5s25.5 -39.166 25.5 -68.499
c0 -17.333 -13.667 -56.666 -41 -117.999s-41 -118.666 -41 -171.999v-15c25.333 14 48.333 30.333 69 49s42.667 44 66 76l16 22c44.667 62 85.667 93 123 93c22.667 0 43.834 -11.5 63.501 -34.5s29.5 -47.833 29.5 -74.5c0 -24 -10.5 -45 -31.5 -63
s-46.833 -28.333 -77.5 -31c-4.66699 0 -12 -0.333008 -22 -1c-95.333 -6.66699 -168 -27.334 -218 -62.001c51.333 -32 119 -51.333 203 -58c12 -0.666992 21 -1.33398 27 -2.00098c36.667 -2.66699 65.667 -12.5 87 -29.5s32 -39.167 32 -66.5
c0 -26.667 -9.66699 -51 -29 -73s-40.666 -33 -63.999 -33c-40.667 0 -83.667 34.333 -129 103l-8 11c-20 28.667 -41.167 52.834 -63.5 72.501s-47.5 36.5 -75.5 50.5z" />
    <glyph glyph-name="plus" unicode="+" horiz-adv-x="1706" 
d="M782 1221h142v-541h528v-139h-528v-541h-142v541h-528v139h528v541z" />
    <glyph glyph-name="comma" unicode="," horiz-adv-x="559" 
d="M-41 -272c82 35.333 144.667 74.499 188 117.499s66 88.167 68 135.5l-6 1c-46 0 -81 9.83301 -105 29.5s-36 48.5 -36 86.5c0 35.333 12 65 36 89s53.667 36 89 36c40.667 0 75 -16.167 103 -48.5s42 -72.833 42 -121.5c0 -84.667 -30.5 -161.167 -91.5 -229.5
s-146.5 -122.166 -256.5 -161.499z" />
    <glyph glyph-name="hyphen" unicode="-" horiz-adv-x="674" 
d="M14 403l39 152h492l-39 -152h-492z" />
    <glyph glyph-name="period" unicode="." horiz-adv-x="559" 
d="M184 219c35.333 0 65.333 -12.5 90 -37.5s37 -54.833 37 -89.5s-12.167 -64.167 -36.5 -88.5s-54.5 -36.5 -90.5 -36.5c-34 0 -63.333 12.333 -88 37s-37 54 -37 88c0 35.333 12.167 65.333 36.5 90s53.833 37 88.5 37z" />
    <glyph glyph-name="slash" unicode="/" horiz-adv-x="569" 
d="M496 1516h92l-514 -1706h-94z" />
    <glyph glyph-name="zero" unicode="0" horiz-adv-x="1118" 
d="M1065 942c0 -136 -19.501 -266.333 -58.501 -391s-95.167 -236.667 -168.5 -336c-62.667 -84 -128.5 -147.333 -197.5 -190s-139.833 -64 -212.5 -64c-116 0 -208.5 46.333 -277.5 139s-103.5 217.667 -103.5 375c0 124.667 21.5 253 64.5 385s100.167 246 171.5 342
c58 78.667 122.333 138.667 193 180s143.334 62 218.001 62c118 0 209.333 -43.833 274 -131.5s97 -211.167 97 -370.5zM689.999 1354c-58 0 -112.333 -27.832 -163 -83.499s-98.667 -139.834 -144 -252.501c-19.333 -48.667 -38.333 -106.667 -57 -174
s-36 -139.666 -52 -216.999c-10.667 -54 -18.667 -105.5 -24 -154.5s-8 -94.5 -8 -136.5c0 -91.333 16 -161.666 48 -210.999s77.333 -74 136 -74c52.667 0 101.167 21 145.5 63s86.5 107 126.5 195c55.333 119.333 99 247.666 131 384.999s48 264.333 48 381
c0 89.333 -16.167 158.166 -48.5 206.499s-78.5 72.5 -138.5 72.5z" />
    <glyph glyph-name="one" unicode="1" horiz-adv-x="1118" 
d="M86 0l23.002 90l175 10c28 2 48.833 9.5 62.5 22.5s25.167 39.167 34.5 78.5l240 961c0.666992 2 1.16699 4 1.5 6s0.5 5.33301 0.5 10c-0.666992 12.667 -7.5 21.5 -20.5 26.5s-43.167 7.5 -90.5 7.5h-20h-150l23 86c99.333 10.667 187.666 28.5 264.999 53.5
s142.333 57.167 195 96.5h52l-302 -1211c-4 -16.667 -7.33301 -33 -10 -49s-4 -28.667 -4 -38c0 -20 6.66699 -34 20 -42s37.666 -12.667 72.999 -14l180 -4l-25 -90h-723z" />
    <glyph glyph-name="two" unicode="2" horiz-adv-x="1118" 
d="M891 434l79.999 -31.001l-164 -403h-883l17 72c70 98.667 194.667 223.334 374 374.001l82 70c166.667 141.333 280.334 256.5 341.001 345.5s91 177.167 91 264.5c0 66.667 -22.667 120 -68 160s-105.666 60 -180.999 60c-72.667 0 -139.667 -22.833 -201 -68.5
s-92 -91.834 -92 -138.501c0 -18 18 -32.333 54 -43c19.333 -6 34 -11.667 44 -17c20.667 -10 36.5 -23.833 47.5 -41.5s16.5 -38.5 16.5 -62.5c0 -37.333 -12 -67.5 -36 -90.5s-56 -34.5 -96 -34.5c-48.667 0 -88 17.333 -118 52s-45 80.667 -45 138
c0 108 47.833 202.333 143.5 283s210.167 121 343.5 121c120.667 0 217.667 -32.167 291 -96.5s110 -148.833 110 -253.5c0 -92.667 -29.333 -179.167 -88 -259.5s-162.334 -172.166 -311.001 -275.499l-105 -72c-188.667 -130 -319.667 -233 -393 -309h476
c96.667 0 184 80 262 240z" />
    <glyph glyph-name="three" unicode="3" horiz-adv-x="1118" 
d="M709 754c80 -20 140.501 -55.665 181.501 -106.998s61.5 -117.333 61.5 -198c0 -142.667 -50.833 -259 -152.5 -349s-232.167 -135 -391.5 -135c-115.333 0 -210.166 30.167 -284.499 90.5s-111.5 136.833 -111.5 229.5c0 56.667 13.667 101.834 41 135.501
s63.666 50.5 108.999 50.5c38.667 0 69.834 -11.5 93.501 -34.5s35.5 -53.167 35.5 -90.5c0 -21.333 -4.5 -40.333 -13.5 -57s-22.833 -31.667 -41.5 -45c-8 -6 -20.333 -12 -37 -18c-28.667 -10.667 -43 -26 -43 -46c0 -33.333 22.5 -63.5 67.5 -90.5
s98.833 -40.5 161.5 -40.5c104 0 189.333 41 256 123s100 187.667 100 317c0 70.667 -14.167 125.667 -42.5 165s-67.833 59 -118.5 59c-22 0 -47.167 -2.16699 -75.5 -6.5s-45.5 -6.5 -51.5 -6.5c-17.333 0 -31.333 5 -42 15s-16 23 -16 39
c0 15.333 5.5 28.666 16.5 39.999s24.167 17 39.5 17c6 0 21.167 -2 45.5 -6s45.166 -6 62.499 -6c82.667 0 152.167 34 208.5 102s84.5 152 84.5 252c0 65.333 -19.167 115.833 -57.5 151.5s-92.833 53.5 -163.5 53.5c-55.333 0 -104.333 -11.667 -147 -35
s-64 -47.333 -64 -72c0 -9.33301 13.333 -26.833 40 -52.5s40 -53.834 40 -84.501c0 -32 -11.667 -59.167 -35 -81.5s-52 -33.5 -86 -33.5c-38 0 -68.333 12.5 -91 37.5s-34 58.5 -34 100.5c0 84.667 38.833 157 116.5 217s173.167 90 286.5 90
c119.333 0 215.166 -30.333 287.499 -91s108.5 -140.334 108.5 -239.001c0 -82 -29.667 -154 -89 -216s-144.333 -110 -255 -144z" />
    <glyph glyph-name="four" unicode="4" horiz-adv-x="1118" 
d="M260 0l25 89.999l138 10c26 2 45.5 8.83301 58.5 20.5s25.167 38.5 36.5 80.5l51 186h-581v84l956 987h103l-263 -962h244l-31 -109h-243l-41 -149c-4.66699 -16 -8.33398 -31 -11.001 -45s-4 -25.667 -4 -35c0 -24 9.33301 -40.667 28 -50
s55.334 -14.666 110.001 -15.999l79 -2l-24 -90h-631zM598 493.999l182 669l-647 -669h465z" />
    <glyph glyph-name="five" unicode="5" horiz-adv-x="1118" 
d="M346 848c41.333 25.333 84.1699 43.9961 128.503 55.9961s93.833 18 148.5 18c108 0 196 -34.5 264 -103.5s102 -158.833 102 -269.5c0 -63.333 -10.667 -124.833 -32 -184.5s-52.333 -114.834 -93 -165.501c-58 -73.333 -128.5 -131 -211.5 -173
s-168.167 -63 -255.5 -63c-111.333 0 -203 30.333 -275 91s-108 137 -108 229c0 52.667 14.167 95.834 42.5 129.501s64.166 50.5 107.499 50.5c36 0 65.833 -10.833 89.5 -32.5s35.5 -48.5 35.5 -80.5c0 -27.333 -5.33301 -51 -16 -71s-26.334 -36.333 -47.001 -49
c-6.66699 -4 -15 -8.66699 -25 -14c-27.333 -13.333 -41 -27.333 -41 -42c0 -30.667 21.167 -59.167 63.5 -85.5s93.5 -39.5 153.5 -39.5c50.667 0 97.834 10.333 141.501 31s83.167 51.334 118.5 92.001c39.333 45.333 71.666 103.166 96.999 173.499s38 137.5 38 201.5
c0 85.333 -21.833 151.333 -65.5 198s-105.167 70 -184.5 70c-36 0 -72.5 -7 -109.5 -21s-70.833 -33.667 -101.5 -59c-6 -35.333 -17.333 -63.166 -34 -83.499s-36.667 -30.5 -60 -30.5c-17.333 0 -31.5 5.66699 -42.5 17s-16.5 26 -16.5 44
c0 20.667 5.83301 39.834 17.5 57.501s29.5 34.834 53.5 51.501c44.667 140.667 82.667 264.834 114 372.501s57.666 205.167 78.999 292.5c80.667 -20 154 -35.167 220 -45.5s121 -15.5 165 -15.5c60.667 0 116.167 5.33301 166.5 16s96.5 27 138.5 49l23 -16
c-35.333 -78 -85.333 -136.167 -150 -174.5s-146 -57.5 -244 -57.5c-40.667 0 -84 2.66699 -130 8s-95.333 13 -148 23l-56 -196.5z" />
    <glyph glyph-name="six" unicode="6" horiz-adv-x="1118" 
d="M319 721c52 54 106.333 94.832 163 122.499s113.667 41.5 171 41.5c99.333 0 181.166 -33.333 245.499 -100s96.5 -152.334 96.5 -257.001c0 -65.333 -11.667 -130.333 -35 -195s-56.666 -123 -99.999 -175c-51.333 -63.333 -111 -112.333 -179 -147s-138 -52 -210 -52
c-124 0 -223 44.667 -297 134s-111 210 -111 362c0 114.667 17.667 229.5 53 344.5s84.666 218.5 147.999 310.5c74.667 108.667 157 191.5 247 248.5s184 85.5 282 85.5c89.333 0 163.166 -23.167 221.499 -69.5s87.5 -103.833 87.5 -172.5c0 -44.667 -12.667 -80 -38 -106
s-59.666 -39 -102.999 -39c-32 0 -58.833 10.333 -80.5 31s-32.5 46.334 -32.5 77.001c0 23.333 8.5 49.833 25.5 79.5s25.5 49.834 25.5 60.501c0 17.333 -10.5 31.5 -31.5 42.5s-48.833 16.5 -83.5 16.5c-103.333 0 -193.166 -52.833 -269.499 -158.5
s-141.5 -267.167 -195.5 -484.5zM578 765.999c-89.333 0 -165.998 -43.501 -229.998 -130.501s-96 -193.833 -96 -320.5c0 -82 19.333 -147.167 58 -195.5s91 -72.5 157 -72.5c91.333 0 167.666 45.5 228.999 136.5s92 205.167 92 342.5
c0 76.667 -18.333 135.834 -55 177.501s-88.334 62.5 -155.001 62.5z" />
    <glyph glyph-name="seven" unicode="7" horiz-adv-x="1118" 
d="M979 1241l-436.001 -0.000976562c-64 0 -115.5 -16 -154.5 -48s-87.167 -103.333 -144.5 -214l-72 29l186 425c122.667 -7.33301 211.667 -12.166 267 -14.499s102.333 -3.5 141 -3.5c46 0 101.833 1 167.5 3s140.834 5 225.501 9v-63
c-142 -204.667 -260.667 -395 -356 -571s-166.333 -336.667 -213 -482c-11.333 -34 -23.833 -80.667 -37.5 -140s-25.834 -99.333 -36.501 -120c-16.667 -34.667 -35.5 -59.667 -56.5 -75s-46.5 -23 -76.5 -23c-35.333 0 -63.666 11.833 -84.999 35.5s-32 55.5 -32 95.5
c0 85.333 141.667 331.333 425 738z" />
    <glyph glyph-name="eight" unicode="8" horiz-adv-x="1118" 
d="M676 811c76.667 21.333 137.833 62.6699 183.5 124.003s68.5 132.666 68.5 213.999c0 68.667 -21.167 121.667 -63.5 159s-102.5 56 -180.5 56c-78.667 0 -146.5 -25.5 -203.5 -76.5s-85.5 -111.5 -85.5 -181.5c0 -58.667 22.333 -111.334 67 -158.001
s116 -92.334 214 -137.001zM767.999 768.004c74 -46 128.667 -96.667 164 -152s53 -118 53 -188c0 -134 -51 -245.333 -153 -334s-231.333 -133 -388 -133c-126.667 0 -229.334 31 -308.001 93s-118 141.667 -118 239c0 94 32.167 177.5 96.5 250.5
s157.833 132.167 280.5 177.5c-54 40.667 -93.333 85 -118 133s-37 104 -37 168c0 116 44 215.667 132 299s195.333 125 322 125c115.333 0 208 -29.833 278 -89.5s105 -138.5 105 -236.5c0 -78 -24.167 -144.833 -72.5 -200.5s-127.166 -106.167 -236.499 -151.5z
M466.999 672.004c-94 -40.667 -165 -92.332 -213 -154.999s-72 -134.667 -72 -216c0 -75.333 25.167 -135.833 75.5 -181.5s116.833 -68.5 199.5 -68.5c105.333 0 190 26.333 254 79s96 122 96 208c0 67.333 -23.167 124.666 -69.5 171.999s-136.5 101.333 -270.5 162z" />
    <glyph glyph-name="nine" unicode="9" horiz-adv-x="1118" 
d="M813 686c-52 -54 -106.169 -94.834 -162.502 -122.501s-113.5 -41.5 -171.5 -41.5c-99.333 0 -181.166 33.333 -245.499 100s-96.5 152.334 -96.5 257.001c0 66 11.667 131.333 35 196s56 122.667 98 174c51.333 63.333 111.333 112.333 180 147s139.334 52 212.001 52
c124 0 222.833 -44.667 296.5 -134s110.5 -210 110.5 -362c0 -114.667 -17.667 -229.5 -53 -344.5s-84.666 -218.5 -147.999 -310.5c-74.667 -108.667 -157.167 -191.5 -247.5 -248.5s-183.833 -85.5 -280.5 -85.5c-89.333 0 -163.166 23.167 -221.499 69.5
s-87.5 103.833 -87.5 172.5c0 44.667 12.5 80 37.5 106s59.5 39 103.5 39c32 0 58.5 -10 79.5 -30s31.5 -45.333 31.5 -76c0 -23.333 -8.66699 -50.166 -26 -80.499s-26 -50.833 -26 -61.5c0 -16.667 10.667 -30.334 32 -41.001s49.666 -16 84.999 -16
c104 0 194.167 52.667 270.5 158s141.166 266.333 194.499 483zM554.998 640.999c88.667 0 164.833 43.001 228.5 129.001s95.5 192.667 95.5 320c0 84 -19 150 -57 198s-90 72 -156 72c-92 0 -168.667 -45.5 -230 -136.5s-92 -205.167 -92 -342.5
c0 -76.667 18.333 -135.834 55 -177.501s88.667 -62.5 156 -62.5z" />
    <glyph glyph-name="colon" unicode=":" horiz-adv-x="606" 
d="M139 225c34.667 0 64.167 -12 88.5 -36s36.5 -53.667 36.5 -89s-12 -65.333 -36 -90s-53.667 -37 -89 -37c-34 0 -63.667 12.667 -89 38s-38 55 -38 89c0 34.667 12.5 64.167 37.5 88.5s54.833 36.5 89.5 36.5zM340 958c34.667 0 64.5 -12.332 89.5 -36.999
s37.5 -54.667 37.5 -90c0 -34.667 -12.333 -64.334 -37 -89.001s-54.667 -37 -90 -37c-34.667 0 -64.5 12.5 -89.5 37.5s-37.5 54.5 -37.5 88.5c0 35.333 12.5 65.333 37.5 90s54.833 37 89.5 37z" />
    <glyph glyph-name="semicolon" unicode=";" horiz-adv-x="606" 
d="M-96 -272c81.333 35.333 143.667 74.332 187 116.999s66.333 88 69 136l-6 1c-46 0 -81.167 9.83301 -105.5 29.5s-36.5 48.5 -36.5 86.5c0 35.333 12.167 65 36.5 89s53.833 36 88.5 36c40.667 0 75.167 -16.167 103.5 -48.5s42.5 -72.833 42.5 -121.5
c0 -84.667 -30.333 -161.167 -91 -229.5s-145.667 -122.166 -255 -161.499zM342.001 957.999c34.667 0 64.5 -12.332 89.5 -36.999s37.5 -54.667 37.5 -90c0 -34.667 -12.333 -64.334 -37 -89.001s-54.667 -37 -90 -37c-34 0 -63.333 12.5 -88 37.5s-37 54.5 -37 88.5
c0 35.333 12.167 65.333 36.5 90s53.833 37 88.5 37z" />
    <glyph glyph-name="less" unicode="&#x3c;" horiz-adv-x="1706" 
d="M1442 1159v-153l-969 -396l969 -393v-154l-1178 484v129z" />
    <glyph glyph-name="equal" unicode="=" horiz-adv-x="1706" 
d="M254 481h1198v-139h-1198v139zM254 879h1198v-140h-1198v140z" />
    <glyph glyph-name="greater" unicode="&#x3e;" horiz-adv-x="1706" 
d="M264 1159l1178 -483v-129l-1178 -484v154l971 393l-971 396v153z" />
    <glyph glyph-name="question" unicode="?" horiz-adv-x="1020" 
d="M401 217c34 0 63.333 -12.333 88 -37s37 -54 37 -88s-12.167 -63 -36.5 -87s-53.833 -36 -88.5 -36c-33.333 0 -62 12 -86 36s-36 53 -36 87s12 63.333 36 88s52.667 37 86 37zM659 629l71.999 -0.00390625c-10 -70 -35.833 -123.667 -77.5 -161s-95.5 -56 -161.5 -56
c-55.333 0 -100.333 19 -135 57s-52 87.667 -52 149s17.333 120.333 52 177s92.334 119.334 173.001 188.001c19.333 16.667 47 39.334 83 68.001c120 97.333 180 177 180 239c0 50 -15.333 89.833 -46 119.5s-71.334 44.5 -122.001 44.5c-75.333 0 -138 -31.667 -188 -95
s-75 -145 -75 -245v-27l-67 1c-0.666992 4 -1.16699 9.33301 -1.5 16s-0.5 16.334 -0.5 29.001c0 116.667 31.333 210.667 94 282s145.334 107 248.001 107c85.333 0 154.166 -26 206.499 -78s78.5 -120.333 78.5 -205c0 -73.333 -19.167 -139.666 -57.5 -198.999
s-98.5 -116 -180.5 -170l-60 -38c-146 -93.333 -219 -174 -219 -242c0 -32 8.83301 -57.167 26.5 -75.5s41.834 -27.5 72.501 -27.5c37.333 0 70.5 13 99.5 39s48.167 60.333 57.5 103z" />
    <glyph glyph-name="at" unicode="@" horiz-adv-x="2019" 
d="M1186 332c-41.333 -70 -87.332 -121.998 -137.999 -155.998s-107 -51 -169 -51c-86 0 -154.667 30.667 -206 92s-77 143.333 -77 246c0 72.667 16.5 144.667 49.5 216s79.833 136.333 140.5 195c45.333 43.333 94 76.5 146 99.5s103.667 34.5 155 34.5
c60 0 108.667 -16.167 146 -48.5s62.666 -79.833 75.999 -142.5l51 174h158l-172 -612l-4 -12c-10 -37.333 -15 -66 -15 -86c0 -34 7.83301 -60.333 23.5 -79s37.834 -28 66.501 -28c22 0 48.833 6.66699 80.5 20s61.5 30.666 89.5 51.999
c79.333 60 139.166 136.167 179.499 228.5s60.5 198.5 60.5 318.5c0 88.667 -17.5 170.334 -52.5 245.001s-87.167 141.667 -156.5 201c-60 51.333 -131.333 90.833 -214 118.5s-171.667 41.5 -267 41.5c-120 0 -231.833 -20.5 -335.5 -61.5s-195.5 -101.167 -275.5 -180.5
c-84 -82.667 -147.333 -178.334 -190 -287.001s-64 -228 -64 -358c0 -121.333 19 -225.666 57 -312.999s97.667 -165.333 179 -234c72.667 -61.333 157.334 -108.333 254.001 -141s199 -49 307 -49c113.333 0 222.333 17.167 327 51.5s204.667 86.166 300 155.499l33 -41
c-98 -73.333 -202.167 -128.666 -312.5 -165.999s-225.5 -56 -345.5 -56c-126 0 -241.167 15.167 -345.5 45.5s-195.833 75.5 -274.5 135.5c-100.667 75.333 -177.5 167.5 -230.5 276.5s-79.5 229.167 -79.5 360.5c0 135.333 28.833 262.166 86.5 380.499
s141.5 222.833 251.5 313.5c89.333 74 187.5 129.667 294.5 167s221.167 56 342.5 56c230.667 0 415.667 -62.833 555 -188.5s209 -292.167 209 -499.5c0 -106 -19.5 -205.333 -58.5 -298s-94.5 -171.667 -166.5 -237c-39.333 -34.667 -81.333 -61.334 -126 -80.001
s-89.334 -28 -134.001 -28c-64 0 -113.667 17.667 -149 53s-55.333 87.333 -60 156zM1104 961.002c-36 0 -68.8301 -10.168 -98.4971 -30.501s-59.834 -53.5 -90.501 -99.5c-47.333 -71.333 -85 -149.166 -113 -233.499s-42 -160.5 -42 -228.5
c0 -57.333 13.167 -103.5 39.5 -138.5s60.166 -52.5 101.499 -52.5c43.333 0 84.166 14.5 122.499 43.5s75.5 73.167 111.5 132.5c36.667 62 66.167 130 88.5 204s33.5 140 33.5 198c0 61.333 -14 110.833 -42 148.5s-65 56.5 -111 56.5z" />
    <glyph glyph-name="A" unicode="A" horiz-adv-x="1434" 
d="M780 1182l-336 -590h449zM256 256c-6.66699 -10.667 -11.6689 -22.6689 -15.002 -36.002s-5 -26 -5 -38c0 -32.667 12.333 -56.167 37 -70.5s65.334 -21.5 122.001 -21.5h27l-10 -90h-555l25 90c53.333 3.33301 103.333 23.833 150 61.5s91.334 93.5 134.001 167.5
l690 1197h78l256 -1301c9.33301 -47.333 25.333 -79.166 48 -95.499s70 -26.166 142 -29.499v-90h-602v90l106 6c36 2.66699 59.833 8.5 71.5 17.5s17.5 23.833 17.5 44.5c0 12 -0.5 24 -1.5 36s-2.5 23 -4.5 33l-54 265h-530z" />
    <glyph glyph-name="B" unicode="B" horiz-adv-x="1464" 
d="M717 713h-198.999l-117 -478c-6 -26 -10.167 -45.333 -12.5 -58s-3.5 -21.667 -3.5 -27c0 -23.333 11.167 -39.166 33.5 -47.499s71.833 -12.5 148.5 -12.5c102.667 0 180.5 6.33301 233.5 19s97.5 33.667 133.5 63c39.333 31.333 71 73.666 95 126.999
s36 109.333 36 168c0 88 -26.333 151 -79 189s-142.334 57 -269.001 57zM662.001 1300l-123 -499h137c161.333 0 277.833 28.833 349.5 86.5s107.5 150.167 107.5 277.5c0 84 -22.5 142.333 -67.5 175s-129.167 49 -252.5 49c-50.667 0 -86.5 -6.5 -107.5 -19.5
s-35.5 -36.167 -43.5 -69.5zM819.001 1479c111.333 0 191.833 -3.66797 241.5 -11.001s92.167 -19.333 127.5 -36c59.333 -28.667 104.5 -67.167 135.5 -115.5s46.5 -104.166 46.5 -167.499c0 -111.333 -36.333 -201.166 -109 -269.499s-173.667 -107.5 -303 -117.5
c114 -21.333 199.167 -59.833 255.5 -115.5s84.5 -129.167 84.5 -220.5c0 -122.667 -47.5 -224.334 -142.5 -305.001s-216.5 -121 -364.5 -121h-852l16 90l120 8c28 2 48.667 9.16699 62 21.5s25 38.833 35 79.5l262 1042c5.33301 20 9.5 38 12.5 54s4.5 27.333 4.5 34
c0 21.333 -8.5 36 -25.5 44s-54.167 12.333 -111.5 13l-74 3l16 90h563z" />
    <glyph glyph-name="C" unicode="C" horiz-adv-x="1432" 
d="M1194 455l84.001 -39.001c-70 -156 -154.833 -270.5 -254.5 -343.5s-221.167 -109.5 -364.5 -109.5c-176.667 0 -316.334 54.667 -419.001 164s-154 258 -154 446c0 120 19.667 235 59 345s96.666 211.667 171.999 305c79.333 96 167.5 169.5 264.5 220.5
s198.167 76.5 303.5 76.5c76.667 0 145 -14.5 205 -43.5s113 -73.5 159 -133.5l127 136h66l-111 -586h-82v43c0 158 -31.167 279.833 -93.5 365.5s-151.166 128.5 -266.499 128.5c-64 0 -124.667 -16.667 -182 -50s-108.666 -81.666 -153.999 -144.999
c-70.667 -98.667 -126.167 -214.667 -166.5 -348s-60.5 -267.333 -60.5 -402c0 -134 32 -238.5 96 -313.5s153.333 -112.5 268 -112.5c108 0 204.167 33 288.5 99s156.166 165 215.499 297z" />
    <glyph glyph-name="D" unicode="D" horiz-adv-x="1583" 
d="M668 1294l-265.001 -1055c-6 -23.333 -10.167 -41 -12.5 -53s-3.5 -21.333 -3.5 -28c0 -26 9.66699 -43.833 29 -53.5s62.333 -14.5 129 -14.5c112.667 0 204.834 13.5 276.501 40.5s133.834 70.833 186.501 131.5c33.333 38 66.666 90.167 99.999 156.5
s62.666 139.833 87.999 220.5c20 65.333 34.833 128.333 44.5 189s14.5 120 14.5 178c0 139.333 -31.833 239 -95.5 299s-170.167 90 -319.5 90c-60.667 0 -102.167 -7 -124.5 -21s-38.166 -40.667 -47.499 -80zM-61.001 0l15.999 90l120 8c25.333 2 44.833 8.5 58.5 19.5
s23.834 28.5 30.501 52.5l270 1071c5.33301 20 9.5 38 12.5 54s4.5 27.333 4.5 34c0 21.333 -8.5 36 -25.5 44s-54.167 12.333 -111.5 13l-74 3l16 90h649c188.667 0 334.5 -50.333 437.5 -151s154.5 -243.667 154.5 -429c0 -155.333 -33.5 -300 -100.5 -434
s-159.167 -240.667 -276.5 -320c-74 -49.333 -151.333 -85.833 -232 -109.5s-169.667 -35.5 -267 -35.5h-682z" />
    <glyph glyph-name="E" unicode="E" horiz-adv-x="1464" 
d="M-37 90l110.001 9.99707c26.667 2.66699 47 9.66699 61 21s24 28.333 30 51l272 1071c5.33301 18.667 9.5 35.667 12.5 51s4.5 26.333 4.5 33c0 22 -7.83301 37 -23.5 45s-54.167 12.667 -115.5 14l-83 3l17 90h1184l-82 -500h-84
c-0.666992 9.33301 -1.33398 22.333 -2.00098 39c-5.33301 146.667 -21 238.667 -47 276c-24.667 34 -60.834 57.833 -108.501 71.5s-124.834 20.5 -231.501 20.5c-78 0 -129.667 -5.5 -155 -16.5s-44 -41.5 -56 -91.5l-117 -454c20 -2 35 -3.33301 45 -4s19 -1 27 -1
c92.667 0 165.834 21 219.501 63s93.834 109 120.501 201h92l-189 -698h-90c6 28 10.333 54.333 13 79s4 49 4 73c0 76 -15.333 127.667 -46 155s-88 41 -172 41h-47l-123 -495c-5.33301 -21.333 -9.33301 -38.166 -12 -50.499s-4 -22.166 -4 -29.499
c0 -25.333 12.167 -42.666 36.5 -51.999s79.166 -14 164.499 -14c168 0 299.833 32.333 395.5 97s180.834 177.667 255.501 339h80l-160 -528h-1214z" />
    <glyph glyph-name="F" unicode="F" horiz-adv-x="1360" 
d="M-55 0l17.999 89.998l110 10c27.333 2.66699 47.833 9.5 61.5 20.5s23.5 28.167 29.5 51.5l272 1071c4.66699 18.667 8.33398 35.5 11.001 50.5s4 26.833 4 35.5c0 21.333 -7.66699 35.833 -23 43.5s-53.333 12.167 -114 13.5l-83 3l17 90h1184l-82 -500h-84
c-3.33301 108 -8.5 181.833 -15.5 221.5s-18.167 70.834 -33.5 93.501c-24.667 34 -60.834 57.833 -108.501 71.5s-124.834 20.5 -231.501 20.5c-76 0 -127.167 -5.5 -153.5 -16.5s-43.5 -31.833 -51.5 -62.5l-123 -483c20 -2 35 -3.33301 45 -4s19 -1 27 -1
c92.667 0 165.834 21 219.501 63s93.834 109 120.501 201h92l-189 -698h-90c6 28 10.333 54.333 13 79s4 49 4 73c0 76 -15.333 127.667 -46 155s-88 41 -172 41h-47l-123 -496l-1 -5c-10 -37.333 -15 -64.666 -15 -81.999c0 -21.333 8.5 -36 25.5 -44
s54.5 -12.667 112.5 -14l102 -2l-17 -90h-665z" />
    <glyph glyph-name="G" unicode="G" horiz-adv-x="1593" 
d="M1542 598l-119.001 0.00195312c-23.333 0 -41.833 -6.33301 -55.5 -19s-24.5 -33 -32.5 -61l-153 -555h-78l-14 170c-61.333 -58 -126.666 -100.833 -195.999 -128.5s-146 -41.5 -230 -41.5c-177.333 0 -317.666 53.333 -420.999 160s-155 252 -155 436
c0 115.333 20.333 227.833 61 337.5s100.334 212.834 179.001 309.501c81.333 100 174.666 177.333 279.999 232s213.333 82 324 82c77.333 0 147.5 -14.833 210.5 -44.5s119.833 -74.5 170.5 -134.5l135 138h70l-123 -582l-84 14v39
c0 151.333 -33.5 268.666 -100.5 351.999s-161.167 125 -282.5 125c-76 0 -146.833 -21.5 -212.5 -64.5s-125.834 -107.5 -180.501 -193.5c-63.333 -96.667 -114 -211.167 -152 -343.5s-57 -259.5 -57 -381.5c0 -120.667 32.167 -216.334 96.5 -287.001
s150.833 -106 259.5 -106c85.333 0 158 19.5 218 58.5s109.667 98.833 149 179.5c18 38 33 81.167 45 129.5s18 89.166 18 122.499c0 22 -8.33301 37 -25 45s-52.667 12 -108 12h-76l19 96h641z" />
    <glyph glyph-name="H" unicode="H" horiz-adv-x="1706" 
d="M1174 719l-652 -0.000976562l-121 -482c-4.66699 -18.667 -8.5 -36.167 -11.5 -52.5s-4.5 -27.833 -4.5 -34.5c0 -21.333 8.16699 -36 24.5 -44s53.5 -12.667 111.5 -14l75 -2l-18 -90h-639l16 90l120 10c25.333 2 44.833 8.5 58.5 19.5s23.834 28.5 30.501 52.5
l270 1071c5.33301 20 9.5 37.667 12.5 53s4.5 26.333 4.5 33c0 21.333 -8.5 36 -25.5 44s-54.167 12.333 -111.5 13l-74 3l16 90h643l-20 -90l-120 -9c-25.333 -2 -44.5 -8.33301 -57.5 -19s-22.833 -28 -29.5 -52l-125 -490h651l107 425c4 16.667 7.33301 32.834 10 48.501
s4 27.834 4 36.501c0 21.333 -8.33301 36 -25 44s-53.667 12.667 -111 14l-75 2l18 90h641l-18 -90l-119 -9c-26 -2 -46 -8.66699 -60 -20s-24 -28.333 -30 -51l-268 -1071c-4.66699 -18 -8.16699 -34.667 -10.5 -50s-3.83301 -28 -4.5 -38c0 -21.333 8.33301 -36 25 -44
s53.667 -12.667 111 -14l75 -2l-18 -90h-641l18 90l119 10c25.333 2 45.166 8.66699 59.499 20s24.5 28.666 30.5 51.999z" />
    <glyph glyph-name="I" unicode="I" horiz-adv-x="838" 
d="M401 238c-4.66699 -18.667 -8.5 -36.001 -11.5 -52.001s-4.5 -28 -4.5 -36c0 -21.333 8 -36 24 -44s54.333 -12.667 115 -14l64 -2l-19 -90h-624l18 90l110 10c27.333 2.66699 47.833 9.5 61.5 20.5s23.5 28.167 29.5 51.5l272 1071c6 20.667 10.333 37.834 13 51.501
s4 25.167 4 34.5c0 21.333 -8 36 -24 44s-54.667 12.333 -116 13l-69 3l18 90h619l-21 -90l-97 -9c-26.667 -2 -46.667 -8.33301 -60 -19s-23 -28 -29 -52z" />
    <glyph glyph-name="J" unicode="J" horiz-adv-x="1208" 
d="M838 1243c4 16.667 7.00391 32.333 9.00391 47s3 28.334 3 41.001c0 21.333 -8.83301 35.833 -26.5 43.5s-53.834 11.5 -108.501 11.5h-70l17 93h620l-16 -90l-101 -9c-26 -2 -45.833 -8.33301 -59.5 -19s-23.834 -28.334 -30.501 -53.001l-217 -851
c-45.333 -179.333 -110.333 -306.5 -195 -381.5s-203.334 -112.5 -356.001 -112.5c-113.333 0 -204.166 31.167 -272.499 93.5s-102.5 145.166 -102.5 248.499c0 84.667 23.833 154.667 71.5 210s106.5 83 176.5 83c46 0 83.5 -13.667 112.5 -41s43.5 -62 43.5 -104
c0 -40 -13.833 -74 -41.5 -102s-61.5 -42 -101.5 -42c-20.667 0 -42.834 5.5 -66.501 16.5s-37.834 16.5 -42.501 16.5c-18 0 -31.667 -6.33301 -41 -19s-14 -31 -14 -55c0 -59.333 23.5 -108.666 70.5 -147.999s107.5 -59 181.5 -59c93.333 0 166 29.333 218 88
s100 172 144 340z" />
    <glyph glyph-name="K" unicode="K" horiz-adv-x="1550" 
d="M-57 0l15.9961 90l110 8c26.667 2.66699 47 9.66699 61 21s24 28.333 30 51l282 1122c0.666992 2 2 7.33301 4 16s3 15.667 3 21c0 21.333 -7.66699 35.833 -23 43.5s-53.333 12.167 -114 13.5l-72 3l18 90h647l-18 -90l-126 -11c-26 -2 -45.833 -8.5 -59.5 -19.5
s-23.5 -28.167 -29.5 -51.5l-156 -613l662 555c16.667 14 30 28.667 40 44s15 28.666 15 39.999c0 21.333 -11.833 36 -35.5 44s-70.5 12 -140.5 12l14 90h590l-10 -84c-54.667 -4 -105.667 -16.833 -153 -38.5s-105 -60.834 -173 -117.501l-448 -373l331 -694
c12.667 -26.667 28.334 -45.667 47.001 -57s48.334 -18.333 89.001 -21l75 -4l-6 -90h-649l18 90l98 4c38 1.33301 64 5.33301 78 12s21 17.667 21 33c0 6.66699 -1.16699 14 -3.5 22s-7.16602 20.333 -14.499 37l-252 525l-236 -195l-74 -292
c-4.66699 -19.333 -8.5 -36.666 -11.5 -51.999s-4.5 -26.666 -4.5 -33.999c0 -21.333 7.83301 -36 23.5 -44s53.834 -12.667 114.501 -14l63 -2l-19 -90h-622z" />
    <glyph glyph-name="L" unicode="L" horiz-adv-x="1356" 
d="M401 229c-6 -23.333 -10.167 -41.668 -12.5 -55.001s-3.5 -23.666 -3.5 -30.999c0 -21.333 10.833 -36.166 32.5 -44.499s71.5 -12.5 149.5 -12.5c166 0 297.667 33.167 395 99.5s183.666 180.5 258.999 342.5h82l-162 -528h-1196l18 90l110 10
c27.333 2.66699 47.833 9.5 61.5 20.5s23.5 28.167 29.5 51.5l272 1071c4.66699 18.667 8.33398 35.667 11.001 51s4 27.666 4 36.999c0 21.333 -9 35.833 -27 43.5s-55 11.5 -111 11.5h-82l17 93h682l-21 -90l-146 -9c-25.333 -2 -45 -8.66699 -59 -20s-24 -28.333 -30 -51
z" />
    <glyph glyph-name="M" unicode="M" horiz-adv-x="1901" 
d="M1507 1298l-764.002 -1298h-61l-164 1257l-225 -898l-2 -8c-12.667 -52 -19 -89 -19 -111c0 -49.333 16.5 -85.833 49.5 -109.5s85.5 -37.167 157.5 -40.5l-10 -90h-561l17 90c76 9.33301 132.167 30.833 168.5 64.5s64.5 91.5 84.5 173.5l250 985
c-8.66699 23.333 -22.167 40.5 -40.5 51.5s-44.166 17.5 -77.499 19.5l-122 9l13 86h501l142 -1104l647 1104h451l-17 -90l-106 -11c-28 -2 -48.5 -8.83301 -61.5 -20.5s-24.833 -38.167 -35.5 -79.5l-256 -1043c-4.66699 -18.667 -8.5 -35.834 -11.5 -51.501
s-4.5 -26.834 -4.5 -33.501c0 -21.333 8.16699 -36 24.5 -44s53.5 -12.667 111.5 -14l75 -2l-19 -90h-641l19 90l120 8c27.333 2.66699 47.333 9.5 60 20.5s24.334 37.833 35.001 80.5z" />
    <glyph glyph-name="N" unicode="N" horiz-adv-x="1671" 
d="M1739 1479l-15.001 -90.0049c-63.333 -3.33301 -115.5 -25.166 -156.5 -65.499s-71.167 -99.833 -90.5 -178.5l-291 -1172h-74l-594 1237l-207 -852c-1.33301 -5.33301 -3 -12.666 -5 -21.999c-10 -43.333 -15 -74.666 -15 -93.999c0 -49.333 16.5 -86.166 49.5 -110.499
s85.167 -38.166 156.5 -41.499l-12 -90h-559l15 90c75.333 8.66699 131.333 30.167 168 64.5s65.334 92.833 86.001 175.5l249 983c-8.66699 24 -22 41.667 -40 53s-43.667 18.333 -77 21l-122 6l14 86h418l539 -1133l204 831c4 14.667 6.83301 28 8.5 40s2.5 23.333 2.5 34
c0 44 -15.833 77.5 -47.5 100.5s-79.5 36.167 -143.5 39.5l14 88h525z" />
    <glyph glyph-name="O" unicode="O" horiz-adv-x="1593" 
d="M1507 924c0 -114 -21 -227.169 -63 -339.502s-102 -216.5 -180 -312.5c-81.333 -99.333 -174.333 -175.666 -279 -228.999s-214 -80 -328 -80c-173.333 0 -311.5 54 -414.5 162s-154.5 253.333 -154.5 436c0 116 20.333 229 61 339s100.334 212.667 179.001 308
c82 100.667 175.667 177.834 281 231.501s215.666 80.5 330.999 80.5c168 0 304.5 -55.333 409.5 -166s157.5 -254 157.5 -430zM1266 1047c0 123.333 -28.5 216.833 -85.5 280.5s-140.5 95.5 -250.5 95.5c-78 0 -150.333 -21.167 -217 -63.5
s-123.334 -102.833 -170.001 -181.5c-67.333 -111.333 -120.666 -235 -159.999 -371s-59 -262.333 -59 -379c0 -122 27.833 -214.333 83.5 -277s137.5 -94 245.5 -94c84 0 160.5 22.833 229.5 68.5s129.167 113.167 180.5 202.5c62 108 111.333 227.167 148 357.5
s55 250.833 55 361.5z" />
    <glyph glyph-name="P" unicode="P" horiz-adv-x="1370" 
d="M528 745l144 -0.00195312c165.333 0 284.833 32.333 358.5 97s110.5 168.334 110.5 311.001c0 87.333 -23 148.5 -69 183.5s-130.333 52.5 -253 52.5c-53.333 0 -89.833 -8.16699 -109.5 -24.5s-35.5 -49.166 -47.5 -98.499zM401 234.998
c-4.66699 -18.667 -8.5 -35.835 -11.5 -51.502s-4.5 -26.834 -4.5 -33.501c0 -21.333 8.16699 -36 24.5 -44s53.5 -12.667 111.5 -14l93 -2l-16 -90h-659l16 90l120 8c28 2.66699 48.5 9.66699 61.5 21s24.833 38 35.5 80l262 1042c5.33301 20 9.5 38 12.5 54
s4.5 27.333 4.5 34c0 21.333 -8.5 36 -25.5 44s-54.167 12.333 -111.5 13l-74 3l16 90h471c133.333 0 226.333 -3.33301 279 -10s97.667 -17.667 135 -33c74.667 -31.333 131.5 -74.666 170.5 -129.999s58.5 -121.333 58.5 -198c0 -67.333 -13.667 -129.666 -41 -186.999
s-67 -105.666 -119 -144.999c-56 -44 -119.167 -75.5 -189.5 -94.5s-180.5 -28.5 -330.5 -28.5h-59h-125z" />
    <glyph glyph-name="Q" unicode="Q" horiz-adv-x="1593" 
d="M799 -21c-28.667 -6 -55.167 -10.501 -79.5 -13.501s-45.833 -4.5 -64.5 -4.5c-174.667 0 -312.834 54 -414.501 162s-152.5 254.667 -152.5 440c0 114.667 20.333 227 61 337s100.334 212.667 179.001 308c82 100.667 175.667 177.834 281 231.501
s215.666 80.5 330.999 80.5c168 0 304.5 -55.5 409.5 -166.5s157.5 -254.833 157.5 -431.5c0 -174 -44.333 -339 -133 -495s-206.667 -276.333 -354 -361c8.66699 -130.667 20.834 -215 36.501 -253s41.167 -57 76.5 -57c22 0 44 10.833 66 32.5s49.667 60.834 83 117.501
l66 -39c-38 -84 -85.167 -149 -141.5 -195s-116.5 -69 -180.5 -69c-72 0 -129.167 24.167 -171.5 72.5s-63.5 114.166 -63.5 197.499c0 14 0.666992 30.167 2 48.5s3.33301 37.5 6 57.5zM381 187.999c0 3.33301 -0.333008 8.33203 -1 14.999c-2 22 -3 36.333 -3 43
c0 90 27.833 163 83.5 219s128.834 84 219.501 84c87.333 0 159 -27.833 215 -83.5s90 -133.167 102 -232.5c30.667 30.667 59.667 71.334 87 122.001s53.666 112.667 78.999 186c33.333 92.667 58.833 182.5 76.5 269.5s26.5 165.833 26.5 236.5
c0 123.333 -28.5 216.833 -85.5 280.5s-139.833 95.5 -248.5 95.5c-98 0 -183.833 -30.833 -257.5 -92.5s-142.167 -161.167 -205.5 -298.5c-46 -100.667 -82 -204.834 -108 -312.501s-39 -205.5 -39 -293.5c0 -50.667 4.66699 -95.167 14 -133.5
s24.333 -73.166 45 -104.499zM817 77.998c8 34.667 13.833 66.834 17.5 96.501s5.5 57.5 5.5 83.5c0 60.667 -15.833 108 -47.5 142s-76.167 51 -133.5 51c-60 0 -108.333 -20.5 -145 -61.5s-55 -95.167 -55 -162.5c0 -54.667 18.167 -98.334 54.5 -131.001
s84.833 -49 145.5 -49c21.333 0 45 2.5 71 7.5s55 12.833 87 23.5z" />
    <glyph glyph-name="R" unicode="R" horiz-adv-x="1546" 
d="M662 1280l-115 -462.999h135c179.333 0 308.833 28.667 388.5 86s119.5 149.666 119.5 276.999c0 78 -25 132.333 -75 163s-145.333 46 -286 46c-60 0 -100.167 -7.16699 -120.5 -21.5s-35.833 -43.5 -46.5 -87.5zM868 1479c189.333 0 329.164 -26.668 419.497 -80.001
s135.5 -135.333 135.5 -246c0 -116 -45.333 -208.5 -136 -277.5s-220.667 -109.5 -390 -121.5c83.333 -28 142 -66 176 -114s51 -116.667 51 -206c0 -17.333 -1 -48.5 -3 -93.5s-3 -81.5 -3 -109.5c0 -46.667 5.33301 -80.5 16 -101.5s28 -31.5 52 -31.5
c20 0 41.333 16.167 64 48.5s47.667 81.833 75 148.5l70 -31c-33.333 -96 -75.166 -169.5 -125.499 -220.5s-106.166 -76.5 -167.499 -76.5c-69.333 0 -123.166 22 -161.499 66s-57.5 106 -57.5 186c0 50 4.33301 112.333 13 187s13 124.334 13 149.001
c0 64 -17.5 108 -52.5 132s-110.833 36 -227.5 36h-105l-123 -488c-6 -26 -10.167 -45.333 -12.5 -58s-3.5 -21.667 -3.5 -27c0 -21.333 8.33301 -36 25 -44s53.667 -12.667 111 -14l67 -2l-15 -90h-634l16 90l120 8c28 2.66699 48.5 9.66699 61.5 21s24.833 38 35.5 80
l262 1042c5.33301 20 9.5 38 12.5 54s4.5 27.333 4.5 34c0 21.333 -8.5 36 -25.5 44s-54.167 12.333 -111.5 13l-74 3l16 90h612z" />
    <glyph glyph-name="S" unicode="S" horiz-adv-x="1354" 
d="M86 0h-76.001l113 582l84 -15v-20c0 -162.667 34.5 -285 103.5 -367s171.5 -123 307.5 -123c113.333 0 202.5 26.333 267.5 79s97.5 124 97.5 214c0 121.333 -109 220 -327 296l-3 1c-150 52 -253.667 109.5 -311 172.5s-86 146.167 -86 249.5c0 128 45 234.5 135 319.5
s204 127.5 342 127.5c77.333 0 147.5 -13.167 210.5 -39.5s120.5 -66.5 172.5 -120.5l107 110h77l-104 -534l-79 16c-2 159.333 -34.167 278.666 -96.5 357.999s-155.5 119 -279.5 119c-89.333 0 -162.166 -25.167 -218.499 -75.5s-84.5 -115.166 -84.5 -194.499
c0 -62 20.833 -112.5 62.5 -151.5s124.834 -79.833 249.501 -122.5c169.333 -58.667 283.333 -119.167 342 -181.5s88 -146.833 88 -253.5c0 -144 -51.167 -261.167 -153.5 -351.5s-234.833 -135.5 -397.5 -135.5c-86 0 -163.333 14 -232 42s-131.334 70.667 -188.001 128z
" />
    <glyph glyph-name="T" unicode="T" horiz-adv-x="1446" 
d="M180 0l20.999 90l145 8c48 2.66699 80 36 96 100v1l269 1053c6 23.333 10.167 41 12.5 53s3.5 21.333 3.5 28c0 20.667 -6.83301 35.5 -20.5 44.5s-36.167 13.5 -67.5 13.5c-94 0 -173.833 -31.333 -239.5 -94s-141.5 -185.667 -227.5 -369l-74 26l176 525h1207l-82 -566
l-84 1c2 36 3.5 67.833 4.5 95.5s1.5 49.5 1.5 65.5c0 110.667 -20.667 190.667 -62 240s-108 74 -200 74c-34.667 0 -59.667 -5.83301 -75 -17.5s-28.666 -39.5 -39.999 -83.5l-270 -1052c-4.66699 -17.333 -8.16699 -33 -10.5 -47s-3.83301 -27 -4.5 -39
c0 -21.333 8.5 -36 25.5 -44s54.5 -12.667 112.5 -14l86 -2l-6 -90h-697z" />
    <glyph glyph-name="U" unicode="U" horiz-adv-x="1655" 
d="M242 590l163.999 654.001c4.66699 18.667 8.5 35.834 11.5 51.501s4.5 26.834 4.5 33.501c0 21.333 -8.33301 36 -25 44s-53.667 12.667 -111 14l-75 2l18 90h641l-18 -90l-121 -9c-28 -2 -48.5 -8.83301 -61.5 -20.5s-24.5 -38.167 -34.5 -79.5l-168 -678
c-2 -8.66699 -5.33301 -21.667 -10 -39c-23.333 -94 -35 -161.667 -35 -203c0 -92 28.667 -165.5 86 -220.5s134.333 -82.5 231 -82.5c120.667 0 221.834 40.167 303.501 120.5s142.5 199.5 182.5 357.5l145 585c1.33301 4.66699 2.66602 10.334 3.99902 17.001
c11.333 48 17 82 17 102c0 49.333 -16.5 85.833 -49.5 109.5s-85.5 37.167 -157.5 40.5l12 90h559l-14 -90c-74.667 -8.66699 -130.167 -29.834 -166.5 -63.501s-65.5 -91.834 -87.5 -174.501l-168 -657c-48 -188.667 -122.167 -324.667 -222.5 -408
s-239.166 -125 -416.499 -125c-142 0 -257.667 35.667 -347 107s-134 162.666 -134 273.999c0 53.333 14.333 135.666 43 246.999v1z" />
    <glyph glyph-name="V" unicode="V" horiz-adv-x="1360" 
d="M563 -37l-71.001 0.000976562l-230 1301c-8 46.667 -24.167 78.5 -48.5 95.5s-72.166 26.833 -143.499 29.5v90h604v-90l-109 -7c-35.333 -2 -58.5 -7.5 -69.5 -16.5s-16.5 -24.5 -16.5 -46.5c0 -13.333 0.5 -25.5 1.5 -36.5s2.5 -21.167 4.5 -30.5l162 -937l537 908
c8 14 14 28 18 42s6 27.333 6 40c0 31.333 -13 53.166 -39 65.499s-77.667 18.5 -155 18.5l10 90h518l-10 -90c-54 -10 -99.333 -30 -136 -60s-78.667 -86 -126 -168z" />
    <glyph glyph-name="W" unicode="W" horiz-adv-x="1870" 
d="M453 -37l-179.001 1301c-6 47.333 -19.167 80 -39.5 98s-53.5 27 -99.5 27h-26v90h536v-90l-68 -5c-32.667 -2 -55 -7.5 -67 -16.5s-18 -24.5 -18 -46.5c0 -8.66699 0.5 -18.667 1.5 -30s2.5 -24.666 4.5 -39.999l110 -848l365 797c0 4.66699 0.333008 11.167 1 19.5
s1 14.166 1 17.499c0 58 -11.167 97.833 -33.5 119.5s-64.5 32.5 -126.5 32.5h-20v90h555v-90l-84 -7c-37.333 -2 -61.333 -7.33301 -72 -16s-16 -23 -16 -43c0 -7.33301 1.33301 -22.333 4 -45c2 -12 3.33301 -21 4 -27l114 -848l363 789c14 30 24 54.5 30 73.5
s9 34.833 9 47.5c0 27.333 -12.667 46.5 -38 57.5s-77.666 17.167 -156.999 18.5l11 90h524l-8 -90c-64.667 -6.66699 -116.667 -26.5 -156 -59.5s-77 -89.167 -113 -168.5l-546 -1198h-74l-150 1043l-469 -1043h-73z" />
    <glyph glyph-name="X" unicode="X" horiz-adv-x="1434" 
d="M813 905l307 317.999c16.667 16 28.334 31.167 35.001 45.5s10 29.833 10 46.5c0 25.333 -12.5 44 -37.5 56s-65.5 18 -121.5 18l20 90h543l-21 -90c-46 -5.33301 -90.667 -20 -134 -44s-87.333 -58.667 -132 -104l-426 -434l256 -590
c19.333 -44 39.166 -74.167 59.499 -90.5s55.833 -26.5 106.5 -30.5l74 -6v-90h-654v90l99 4c45.333 1.33301 74 5.33301 86 12s18 17.667 18 33c0 14 -4.66699 31.667 -14 53c-1.33301 2.66699 -2 4.33398 -2 5.00098l-191 446l-297 -307
c-39.333 -40.667 -65.833 -72.167 -79.5 -94.5s-20.5 -43.5 -20.5 -63.5c0 -30 13.167 -52.167 39.5 -66.5s66.5 -21.5 120.5 -21.5h10v-90h-590l15 90c51.333 7.33301 102 26.666 152 57.999s114 86.333 192 165l417 428l-235 545c-14.667 35.333 -29.167 58.5 -43.5 69.5
s-44.833 19.167 -91.5 24.5l-62 9v90h592v-90l-70 -3c-43.333 -1.33301 -71.5 -5.66602 -84.5 -12.999s-19.5 -20.666 -19.5 -39.999c0 -7.33301 1.66699 -16.333 5 -27s9.33301 -25.334 18 -44.001z" />
    <glyph glyph-name="Y" unicode="Y" horiz-adv-x="1370" 
d="M750 743l387.003 475.999c12 14.667 20.667 28.834 26 42.501s8 27.5 8 41.5c0 29.333 -13.5 50.333 -40.5 63s-77.5 20.334 -151.5 23.001l10 90h572l-21 -90c-48.667 -1.33301 -91.834 -11.166 -129.501 -29.499s-72.167 -46.833 -103.5 -85.5l-525 -641l-98 -395
c-4.66699 -20 -8.16699 -37.5 -10.5 -52.5s-3.5 -25.5 -3.5 -31.5c0 -22.667 8.16699 -38.334 24.5 -47.001s53.166 -13.667 110.499 -15l102 -2l-16 -90h-703l21 90l149 10c27.333 2 47.5 8.66699 60.5 20s25.167 38.333 36.5 81l110 440l-264 645
c-14.667 37.333 -34.834 63.5 -60.501 78.5s-67.5 23.833 -125.5 26.5v88h594v-88l-113 -2c-30.667 0 -52 -3.5 -64 -10.5s-18 -18.833 -18 -35.5c0 -4.66699 1 -10.834 3 -18.501s5.66699 -18.167 11 -31.5z" />
    <glyph glyph-name="Z" unicode="Z" horiz-adv-x="1341" 
d="M244 96h252c172.667 0 307.667 34 405 102s182 186.333 254 355l70 -27l-162 -526h-1114v76l1085 1313h-160c-165.333 0 -296 -31.5 -392 -94.5s-176 -168.833 -240 -317.5l-80 14l162 488h1007v-64z" />
    <glyph glyph-name="bracketleft" unicode="[" horiz-adv-x="678" 
d="M344 -221h-465l443 1700h432l-11 -64h-299l-409 -1571h317z" />
    <glyph glyph-name="backslash" unicode="\" horiz-adv-x="569" 
d="M344 -190l-211 1706h90l209 -1706h-88z" />
    <glyph glyph-name="bracketright" unicode="]" horiz-adv-x="678" 
d="M276 1479h465l-442 -1700h-432l10 65h299l410 1571h-318z" />
    <glyph glyph-name="asciicircum" unicode="^" horiz-adv-x="2048" 
d="M926 1462h194l512 -565h-98l-512 420l-514 -420h-96z" />
    <glyph glyph-name="underscore" unicode="_" 
d="M0 -340h1024v-143h-1024v143z" />
    <glyph glyph-name="grave" unicode="`" 
d="M782 1079h-80l-266 199c-19.333 14.667 -34 29.167 -44 43.5s-15 28.5 -15 42.5c0 22 7.16699 40.167 21.5 54.5s32.5 21.5 54.5 21.5c13.333 0 27.333 -4.5 42 -13.5s28.667 -21.5 42 -37.5z" />
    <glyph glyph-name="a" unicode="a" horiz-adv-x="1135" 
d="M608 139c-44.667 -56 -93.998 -98.6699 -147.998 -128.003s-109.667 -44 -167 -44c-86 0 -156.333 32 -211 96s-82 146 -82 246c0 72 10.833 143.333 32.5 214s53.167 136.667 94.5 198c54 80 114 141 180 183s135.667 63 209 63c61.333 0 113 -16.667 155 -50
s72.333 -81.666 91 -144.999l61 162h164l-47 -127c-54 -151.333 -98.167 -291 -132.5 -419s-51.5 -209 -51.5 -243c0 -22 3.16699 -38.333 9.5 -49s16.166 -16 29.499 -16c23.333 0 53.333 21.5 90 64.5s79 106.833 127 191.5l59 -35
c-58.667 -111.333 -114.834 -193.166 -168.501 -245.499s-108.167 -78.5 -163.5 -78.5c-42 0 -74.333 12.333 -97 37s-34 60.334 -34 107.001v18zM186.002 280.997c0 -64 15.166 -113.835 45.499 -149.502s72.5 -53.5 126.5 -53.5c48 0 92.167 16 132.5 48
s76.833 79.333 109.5 142c30 58.667 54.5 125.834 73.5 201.501s28.5 141.834 28.5 198.501c0 60.667 -15 108.5 -45 143.5s-70.667 52.5 -122 52.5c-41.333 0 -81.166 -13.333 -119.499 -40s-73.833 -65.667 -106.5 -117c-36 -57.333 -65.5 -125.833 -88.5 -205.5
s-34.5 -153.167 -34.5 -220.5z" />
    <glyph glyph-name="b" unicode="b" horiz-adv-x="1040" 
d="M188 252c0 -68.667 14.668 -119.667 44.001 -153s74.333 -50 135 -50c49.333 0 95.166 15.333 137.499 46s81.833 76.667 118.5 138c36.667 64 66.167 134 88.5 210s33.5 143.333 33.5 202c0 65.333 -15.667 115.833 -47 151.5s-75.666 53.5 -132.999 53.5
c-43.333 0 -84.333 -12.5 -123 -37.5s-75.334 -62.5 -110.001 -112.5c-44 -63.333 -79 -135.833 -105 -217.5s-39 -158.5 -39 -230.5zM330.001 813c44.667 48 91.8311 84.1689 141.498 108.502s100.834 36.5 153.501 36.5c95.333 0 170.666 -29.167 225.999 -87.5
s83 -138.166 83 -239.499c0 -86.667 -16 -171.334 -48 -254.001s-76 -153.667 -132 -213c-61.333 -64 -126.666 -113.167 -195.999 -147.5s-138.666 -51.5 -207.999 -51.5c-102 0 -183.167 28 -243.5 84s-90.5 131 -90.5 225c0 52 18.333 137.667 55 257l9 30l213 688
c8 27.333 14 49.666 18 66.999s6 30.666 6 39.999c0 24 -9 40.5 -27 49.5s-56 13.5 -114 13.5h-41l21 74l393 23z" />
    <glyph glyph-name="c" unicode="c" horiz-adv-x="891" 
d="M750 227c-62 -88.667 -126.667 -154.835 -194 -198.502s-139.333 -65.5 -216 -65.5c-103.333 0 -186.833 35.833 -250.5 107.5s-95.5 166.167 -95.5 283.5c0 71.333 12.167 140 36.5 206s61.166 130 110.499 192c55.333 68.667 117.833 122 187.5 160s140.5 57 212.5 57
c78 0 142.5 -21 193.5 -63s76.5 -94.667 76.5 -158c0 -45.333 -12.333 -82 -37 -110s-56.667 -42 -96 -42c-32 0 -57.5 9.16699 -76.5 27.5s-28.5 43.166 -28.5 74.499c0 18.667 4.16699 35.834 12.5 51.501s19.833 27.834 34.5 36.501
c4.66699 2.66699 12 6.33398 22 11.001c24 10 36 21.333 36 34c0 17.333 -12.833 32.333 -38.5 45s-56.5 19 -92.5 19c-49.333 0 -94.166 -13.167 -134.499 -39.5s-75.5 -65.166 -105.5 -116.499c-38.667 -66.667 -68.167 -135.334 -88.5 -206.001s-30.5 -141 -30.5 -211
c0 -82.667 17.333 -146.5 52 -191.5s83.667 -67.5 147 -67.5c53.333 0 103.333 16.167 150 48.5s97.667 86.5 153 162.5z" />
    <glyph glyph-name="d" unicode="d" horiz-adv-x="1233" 
d="M645 139c-48 -56 -100.669 -98.665 -158.002 -127.998s-116.666 -44 -177.999 -44c-92 0 -166.5 32.167 -223.5 96.5s-85.5 149.5 -85.5 255.5c0 84.667 18.333 170.667 55 258s87.334 164.666 152.001 231.999c48 50.667 101.667 90 161 118s119.666 42 180.999 42
c58.667 0 109.834 -13.833 153.501 -41.5s78.5 -67.834 104.5 -120.501l133 449l3 10c14.667 51.333 22 83.333 22 96c0 25.333 -10.167 42.5 -30.5 51.5s-77.166 13.5 -170.499 13.5l24 72l412 23l-211 -695c-77.333 -254.667 -128 -427 -152 -517s-36 -147.667 -36 -173
c0 -18 3.66699 -32 11 -42s18 -15 32 -15c24.667 0 55.5 20.833 92.5 62.5s82.5 106.834 136.5 195.501l62 -37c-62 -110.667 -121.333 -192.334 -178 -245.001s-114.334 -79 -173.001 -79c-45.333 0 -79.833 12 -103.5 36s-35.5 59.333 -35.5 106v20zM189.998 279.002
c0 -67.333 16.334 -119.334 49.001 -156.001s78 -55 136 -55c50 0 97.167 16.667 141.5 50s84.5 82.666 120.5 147.999c31.333 59.333 57.666 128.833 78.999 208.5s32 148.834 32 207.501c0 64 -16 113.833 -48 149.5s-76.333 53.5 -133 53.5
c-45.333 0 -88.5 -13.667 -129.5 -41s-78.833 -67.666 -113.5 -120.999c-38.667 -60 -70.667 -132 -96 -216s-38 -160 -38 -228z" />
    <glyph glyph-name="e" unicode="e" horiz-adv-x="891" 
d="M745 186c-50.667 -72.667 -110.668 -128 -180.001 -166s-144.333 -57 -225 -57c-102.667 0 -185.667 34.5 -249 103.5s-95 159.5 -95 271.5c0 68 12.833 135.833 38.5 203.5s63.167 132.167 112.5 193.5c58.667 72 124 128 196 168s144 60 216 60
c79.333 0 141.5 -18.5 186.5 -55.5s67.5 -87.5 67.5 -151.5c0 -88 -52.167 -165.333 -156.5 -232s-261.166 -122.667 -470.499 -168c0 -7.33301 -1 -20.333 -3 -39s-3 -32.334 -3 -41.001c0 -67.333 16.333 -119.666 49 -156.999s78.667 -56 138 -56
c56.667 0 112.667 14.333 168 43s109 71 161 127zM194.999 432c147.333 32.667 257.832 76.832 331.499 132.499s110.5 122.834 110.5 201.501c0 36 -10.167 64.833 -30.5 86.5s-47.166 32.5 -80.499 32.5c-73.333 0 -139 -39.5 -197 -118.5s-102.667 -190.5 -134 -334.5z
" />
    <glyph glyph-name="f" unicode="f" horiz-adv-x="678" 
d="M250 844l-187.002 0.00292969l27 90h186c44.667 194.667 105.5 340.334 182.5 437.001s171.167 145 282.5 145c62 0 112 -15.667 150 -47s57 -71.666 57 -120.999c0 -36.667 -10.167 -66.334 -30.5 -89.001s-46.833 -34 -79.5 -34c-27.333 0 -50.666 9.5 -69.999 28.5
s-29 41.5 -29 67.5c0 15.333 5.5 32.166 16.5 50.499s16.5 30.166 16.5 35.499c0 10 -4.83301 18 -14.5 24s-23.167 9 -40.5 9c-56 0 -102.333 -30.5 -139 -91.5s-82 -199.167 -136 -414.5h252l-18 -90h-256l-174 -713c-30 -120.667 -57.167 -220.5 -81.5 -299.5
s-49.166 -151.167 -74.499 -216.5l-223 -39c48.667 99.333 92 201.666 130 306.999s70.333 212.666 97 321.999z" />
    <glyph glyph-name="g" unicode="g" horiz-adv-x="1130" 
d="M285 403c-42.667 24.667 -73.835 53.5049 -93.502 86.5049s-29.5 71.833 -29.5 116.5c0 100 39.333 185.167 118 255.5s175 105.5 289 105.5c26 0 53.667 -3.33301 83 -10s63.333 -17 102 -31c32.667 34 68 59.833 106 77.5s77 26.5 117 26.5c42 0 74.333 -9 97 -27
s34 -43.667 34 -77c0 -25.333 -7.5 -46 -22.5 -62s-34.167 -24 -57.5 -24c-26.667 0 -49 15 -67 45s-38 45 -60 45c-15.333 0 -29.666 -3.66699 -42.999 -11s-25.666 -18 -36.999 -32c40.667 -32 71 -66 91 -102s30 -73.667 30 -113
c0 -102.667 -39.333 -187.834 -118 -255.501s-178.667 -101.5 -300 -101.5c-28.667 0 -67 2.83301 -115 8.5s-82 8.5 -102 8.5c-40.667 0 -72 -7.33301 -94 -22s-33 -35.334 -33 -62.001c0 -48 63.333 -76 190 -84c15.333 -0.666992 27.333 -1.33398 36 -2.00098
c176 -12 294 -36.5 354 -73.5s90 -97.833 90 -182.5c0 -106.667 -48.167 -189.334 -144.5 -248.001s-232.5 -88 -408.5 -88c-136 0 -240.333 21 -313 63s-109 102.333 -109 181c0 59.333 23.167 107.833 69.5 145.5s115.5 63.5 207.5 77.5c-44 11.333 -77 29.666 -99 54.999
s-33 58 -33 98c0 54.667 24 101.5 72 140.5s112.333 63.167 193 72.5zM249.999 4.00488c-68 -12.667 -120.167 -35.167 -156.5 -67.5s-54.5 -71.833 -54.5 -118.5c0 -53.333 24.667 -94.333 74 -123s120.333 -43 213 -43c117.333 0 209 17.167 275 51.5s99 81.833 99 142.5
c0 54 -35 93.333 -105 118s-185 38 -345 40zM335.999 563.005c0 -56 16 -99.334 48 -130.001s77.333 -46 136 -46c71.333 0 129.833 31.333 175.5 94s68.5 143.334 68.5 242.001c0 52 -16.167 92.667 -48.5 122s-77.5 44 -135.5 44c-73.333 0 -132.333 -30 -177 -90
s-67 -138.667 -67 -236z" />
    <glyph glyph-name="h" unicode="h" horiz-adv-x="1241" 
d="M201 0l-187.003 0.000976562l357 1256l3 10c14 51.333 21 84 21 98c0 24 -9.66699 40.167 -29 48.5s-69 12.5 -149 12.5l21 74l387 23l-230 -832c62.667 86.667 127.167 153 193.5 199s129.5 69 189.5 69c58 0 105.333 -16.833 142 -50.5s55 -76.834 55 -129.501
c0 -16 -3 -38.667 -9 -68s-14.667 -62 -26 -98l-135 -419c-4.66699 -14 -8.16699 -27.333 -10.5 -40s-3.5 -23.334 -3.5 -32.001c0 -15.333 3.5 -26.666 10.5 -33.999s17.833 -11 32.5 -11c27.333 0 62.333 21.333 105 64s90.667 104.667 144 186l58 -39
c-61.333 -102 -121.666 -178.667 -180.999 -230s-117.333 -77 -174 -77c-46.667 0 -85.167 14.5 -115.5 43.5s-45.5 65.5 -45.5 109.5c0 16 2.33301 34.5 7 55.5s15.334 57.167 32.001 108.5l116 356c8.66699 26 15 48.667 19 68s6 35.666 6 48.999c0 26.667 -8 47 -24 61
s-39.333 21 -70 21c-35.333 0 -74.833 -15.667 -118.5 -47s-88.167 -75.666 -133.5 -132.999c-45.333 -56.667 -84.166 -122 -116.499 -196s-63.833 -172 -94.5 -294z" />
    <glyph glyph-name="i" unicode="i" horiz-adv-x="690" 
d="M578 285c-68.667 -107.333 -131.166 -185 -187.499 -233s-112.833 -72 -169.5 -72c-46.667 0 -85.667 14.167 -117 42.5s-47 63.833 -47 106.5c0 16 2.5 35 7.5 57s15.5 59 31.5 111l127 393c8 23.333 14.167 44.5 18.5 63.5s6.5 33.5 6.5 43.5
c0 24.667 -9 41.334 -27 50.001s-68.333 13 -151 13l20 74l393 22l-243 -763c-4.66699 -14 -8.33398 -27.333 -11.001 -40s-4 -23.334 -4 -32.001c0 -15.333 3.66699 -27 11 -35s18 -12 32 -12c25.333 0 59.333 21.5 102 64.5s92 105.5 148 187.5zM342.001 1372
c0 30 10.332 55.333 30.999 76s46 31 76 31s55.5 -10.333 76.5 -31s31.5 -46 31.5 -76c0 -29.333 -10.667 -54.666 -32 -75.999s-46.666 -32 -75.999 -32s-54.5 10.667 -75.5 32s-31.5 46.666 -31.5 75.999z" />
    <glyph glyph-name="j" unicode="j" horiz-adv-x="678" 
d="M379 1372c0 29.333 10.501 54.5 31.501 75.5s46.5 31.5 76.5 31.5c30.667 0 56.5 -10.333 77.5 -31s31.5 -46 31.5 -76c0 -29.333 -10.667 -54.666 -32 -75.999s-47 -32 -77 -32c-28.667 0 -53.834 10.667 -75.501 32s-32.5 46.666 -32.5 75.999zM287.001 690
l-0.000976562 1.99902c16 54.667 24 89.667 24 105c0 24.667 -8.83301 41.334 -26.5 50.001s-68.167 13 -151.5 13l21 74l381 22l-236 -835c-56.667 -198 -121.5 -339 -194.5 -423s-165.833 -126 -278.5 -126c-63.333 0 -114.666 15.5 -153.999 46.5s-59 71.5 -59 121.5
c0 38.667 10 68.834 30 90.501s47.667 32.5 83 32.5c29.333 0 53 -9.33301 71 -28s27 -43 27 -73c0 -14.667 -4.83301 -30.5 -14.5 -47.5s-14.5 -28.167 -14.5 -33.5c0 -10.667 4.33301 -18.834 13 -24.501s20.667 -8.5 36 -8.5c92 0 177.667 135 257 405l10 33z" />
    <glyph glyph-name="k" unicode="k" horiz-adv-x="1124" 
d="M176 0l-185.996 0.00390625l370 1236l4 13c14 50.667 21 82 21 94c0 26 -9.5 43.5 -28.5 52.5s-68.833 13.5 -149.5 13.5l18 72l385 22l-231 -813c73.333 96 140.666 165.167 201.999 207.5s123.666 63.5 186.999 63.5c54.667 0 100 -18 136 -54s54 -81.667 54 -137
c0 -64.667 -29.833 -124.334 -89.5 -179.001s-151.834 -106.334 -276.501 -155.001c26.667 -21.333 47 -44.833 61 -70.5s25 -64.167 33 -115.5c4 -24.667 7.33301 -55.334 10 -92.001c4.66699 -57.333 18.334 -86 41.001 -86c20.667 0 50 22.667 88 68
s75 103.666 111 174.999l63 -32c-40.667 -96.667 -90.334 -173.167 -149.001 -229.5s-116.667 -84.5 -174 -84.5c-54 0 -93.833 17.167 -119.5 51.5s-38.5 88.166 -38.5 161.499c0 50.667 1.66699 103.334 5 158.001c0.666992 12 1 19.333 1 22
c0 20 -3.83301 33.333 -11.5 40s-31.167 10 -70.5 10c-24.667 0 -41.334 3 -50.001 9s-13 16.667 -13 32c0 13.333 4.5 24.166 13.5 32.499s21.5 12.5 37.5 12.5c9.33301 0 20.5 -1.16699 33.5 -3.5s29.833 -6.16602 50.5 -11.499c84.667 22 153.334 57.667 206.001 107
s79 102 79 158c0 32.667 -9.33301 58.5 -28 77.5s-44.334 28.5 -77.001 28.5c-30 0 -63.167 -11.333 -99.5 -34s-74.166 -55.667 -113.499 -99c-59.333 -66 -109.333 -142.167 -150 -228.5s-83.334 -216.5 -128.001 -390.5z" />
    <glyph glyph-name="l" unicode="l" horiz-adv-x="678" 
d="M211 197c-4 -14 -7.00098 -27.332 -9.00098 -39.999s-3 -23.334 -3 -32.001c0 -18 3.16699 -30.667 9.5 -38s17.5 -11 33.5 -11c25.333 0 57.5 19.167 96.5 57.5s90.167 101.833 153.5 190.5l59 -39c-66.667 -104.667 -129.167 -181.667 -187.5 -231
s-116.166 -74 -173.499 -74c-44.667 0 -81.667 14.333 -111 43s-44 65.334 -44 110.001c0 18.667 2.83301 41.667 8.5 69s14.5 59.666 26.5 96.999l282 938c8.66699 26 15 47.667 19 65s6 31 6 41c0 26 -9.5 43.5 -28.5 52.5s-68.833 13.5 -149.5 13.5l18 72l381 22z" />
    <glyph glyph-name="m" unicode="m" horiz-adv-x="1802" 
d="M18 0l218.003 689.996c6.66699 23.333 12 44.5 16 63.5s6 33.5 6 43.5c0 24.667 -8.83301 41.334 -26.5 50.001s-67.5 13 -149.5 13l18 74l353 22l-54 -266c61.333 87.333 123.833 153.833 187.5 199.5s124.834 68.5 183.501 68.5c62 0 110 -19.667 144 -59
s51 -94.666 51 -165.999v-28c63.333 82 127 144.667 191 188s125 65 183 65s105.333 -16.833 142 -50.5s55 -76.834 55 -129.501c0 -18.667 -3.16699 -43 -9.5 -73s-14.833 -61 -25.5 -93l-137 -420c-4.66699 -13.333 -8.5 -26.666 -11.5 -39.999s-4.5 -23.666 -4.5 -30.999
c0 -14.667 3.66699 -25.834 11 -33.501s18.666 -11.5 33.999 -11.5c26.667 0 60 20.167 100 60.5s89 103.5 147 189.5l60 -39c-70 -108.667 -132.833 -187 -188.5 -235s-111.834 -72 -168.501 -72c-46.667 0 -85.167 14.5 -115.5 43.5s-45.5 65.5 -45.5 109.5
c0 16.667 2.66699 36.667 8 60s15.666 58 30.999 104l120 356c8 22 14.167 43.167 18.5 63.5s6.5 38.166 6.5 53.499c0 26.667 -7.83301 47 -23.5 61s-38.5 21 -68.5 21c-35.333 0 -75.333 -15.667 -120 -47s-89.334 -75.666 -134.001 -132.999
c-42 -53.333 -78.167 -113.166 -108.5 -179.499s-64.5 -169.833 -102.5 -310.5l-49 -182h-174c10 30 35.333 113.333 76 250l6 19l114 382c6 17.333 10.333 34.666 13 51.999s4 35 4 53c0 32.667 -7.83301 56.834 -23.5 72.501s-39.167 23.5 -70.5 23.5
c-33.333 0 -71.833 -16 -115.5 -48s-88.5 -77.333 -134.5 -136c-39.333 -50 -75 -113.167 -107 -189.5s-64 -175.166 -96 -296.499l-49 -182h-185z" />
    <glyph glyph-name="n" unicode="n" horiz-adv-x="1241" 
d="M18 0l218.001 689.998c6.66699 23.333 12 44.5 16 63.5s6 33.5 6 43.5c0 24.667 -8.83301 41.334 -26.5 50.001s-67.5 13 -149.5 13l18 74l361 22l-62 -266c62.667 86.667 127.167 153 193.5 199s129.5 69 189.5 69c58 0 105.333 -16.833 142 -50.5
s55 -76.834 55 -129.501c0 -18.667 -3.16699 -43 -9.5 -73s-14.833 -61 -25.5 -93l-139 -419c-4.66699 -13.333 -8.16699 -26.333 -10.5 -39s-3.5 -23.667 -3.5 -33c0 -15.333 3.5 -26.666 10.5 -33.999s17.833 -11 32.5 -11c26 0 59.167 20 99.5 60
s90.166 103.333 149.499 190l58 -39c-60.667 -100.667 -121 -177 -181 -229s-118 -78 -174 -78c-46.667 0 -85.167 14 -115.5 42s-45.5 63.667 -45.5 107c0 20 3 43.5 9 70.5s16 59.5 30 97.5l120 356c8 22 14.167 43.167 18.5 63.5s6.5 38.166 6.5 53.499
c0 26.667 -8 47 -24 61s-39.333 21 -70 21c-35.333 0 -74.833 -15.667 -118.5 -47s-88.167 -75.666 -133.5 -132.999c-42 -53.333 -78.167 -113.166 -108.5 -179.499s-64.5 -169.833 -102.5 -310.5l-49 -182h-185z" />
    <glyph glyph-name="o" unicode="o" 
d="M-6 352c0 64.667 11.1699 130.999 33.5029 198.999s53.5 129.333 93.5 184c56 78 119.833 136.5 191.5 175.5s150.5 58.5 236.5 58.5c105.333 0 191.666 -36.167 258.999 -108.5s101 -165.166 101 -278.499c0 -74.667 -13.167 -148.167 -39.5 -220.5
s-62.833 -136.166 -109.5 -191.499c-58.667 -68.667 -120.334 -120 -185.001 -154s-133.334 -51 -206.001 -51c-114 0 -205 35.167 -273 105.5s-102 164.166 -102 281.499zM178.003 263.999c0 -70 16.168 -124.335 48.501 -163.002s77.5 -58 135.5 -58
c42.667 0 83.5 11.5 122.5 34.5s72.167 55.167 99.5 96.5c42.667 64.667 77.167 142.334 103.5 233.001s39.5 177 39.5 259c0 72.667 -16.333 128.667 -49 168s-79 59 -139 59c-47.333 0 -91.833 -14.833 -133.5 -44.5s-78.5 -72.834 -110.5 -129.501
c-34.667 -59.333 -62.834 -131.166 -84.501 -215.499s-32.5 -164.166 -32.5 -239.499z" />
    <glyph glyph-name="p" unicode="p" horiz-adv-x="1124" 
d="M113 -227c-4.66699 -15.333 -7.99805 -29.165 -9.99805 -41.498s-3 -23.166 -3 -32.499c0 -18.667 7.5 -31.5 22.5 -38.5s43.167 -10.5 84.5 -10.5h43l-12 -76h-488l21 76l88 6c19.333 2 33.833 8 43.5 18s19.5 32.667 29.5 68l285 991c4 14.667 7 28.167 9 40.5
s3 22.166 3 29.499c0 22.667 -9.16699 38.167 -27.5 46.5s-69.833 12.5 -154.5 12.5l21 74l352 22l-39 -186c52.667 63.333 106.167 110.666 160.5 141.999s110.166 47 167.499 47c87.333 0 157.166 -29.833 209.499 -89.5s78.5 -139.834 78.5 -240.501
c0 -85.333 -14.167 -168.5 -42.5 -249.5s-67.833 -152.167 -118.5 -213.5c-52.667 -64 -110.667 -113.5 -174 -148.5s-127 -52.5 -191 -52.5c-56.667 0 -107 13.167 -151 39.5s-79.667 64.5 -107 114.5zM272.002 254.001c0 -61.333 15.499 -109.167 46.499 -143.5
s73.5 -51.5 127.5 -51.5c51.333 0 97.5 15 138.5 45s78.833 76.667 113.5 140c34.667 61.333 62.5 129 83.5 203s31.5 140 31.5 198c0 64.667 -15.333 114.667 -46 150s-74 53 -130 53c-43.333 0 -84.166 -12.667 -122.499 -38s-73.833 -63.333 -106.5 -114
c-38.667 -58 -71 -129.5 -97 -214.5s-39 -160.833 -39 -227.5z" />
    <glyph glyph-name="q" unicode="q" horiz-adv-x="1104" 
d="M602 123c-34.667 -48.667 -78.666 -86.499 -131.999 -113.499s-111 -40.5 -173 -40.5c-87.333 0 -159.333 32.167 -216 96.5s-85 146.166 -85 245.499c0 85.333 19.167 172.333 57.5 261s90.166 165.667 155.499 231c50.667 50.667 106.5 90 167.5 118
s121.833 42 182.5 42c54.667 0 103.5 -11.5 146.5 -34.5s83.5 -59.5 121.5 -109.5l115 139h70l-334 -1185c-4 -13.333 -7 -26.5 -9 -39.5s-3 -24.5 -3 -34.5c0 -18.667 7.5 -31.5 22.5 -38.5s43.5 -10.5 85.5 -10.5h45l-22 -76h-494l23 76l90 6c20.667 2 36 7.5 46 16.5
s20.667 32.167 32 69.5zM186.001 276.001c0 -67.333 15.5 -118.833 46.5 -154.5s75.833 -53.5 134.5 -53.5c54 0 102.167 16.167 144.5 48.5s80.833 82.833 115.5 151.5c34 67.333 61.167 139 81.5 215s30.5 141.667 30.5 197c0 66 -15.167 117 -45.5 153
s-73.833 54 -130.5 54c-44 0 -87.167 -14.167 -129.5 -42.5s-80.5 -68.833 -114.5 -121.5c-38 -58.667 -69.667 -130.167 -95 -214.5s-38 -161.833 -38 -232.5z" />
    <glyph glyph-name="r" unicode="r" horiz-adv-x="903" 
d="M20 0l211.001 689.998c8.66699 26 15 47.833 19 65.5s6 31.5 6 41.5c0 24.667 -9 41.334 -27 50.001s-68.333 13 -151 13l18 74l355 22l-48 -247c56 83.333 111.167 145.333 165.5 186s109.166 61 164.499 61c50 0 89.5 -13.5 118.5 -40.5s43.5 -63.833 43.5 -110.5
c0 -37.333 -10.5 -67.833 -31.5 -91.5s-48.167 -35.5 -81.5 -35.5c-21.333 0 -41 6.16699 -59 18.5s-31.667 29.5 -41 51.5c-4.66699 11.333 -7.66699 27.333 -9 48c-2 28.667 -14.667 43.334 -38 44.001c-60.667 0 -128.5 -67.167 -203.5 -201.5
s-140.167 -310.833 -195.5 -529.5l-29 -109h-187z" />
    <glyph glyph-name="s" unicode="s" horiz-adv-x="901" 
d="M322 -35c-97.333 0 -176.331 22.499 -236.998 67.499s-91 103.167 -91 174.5c0 41.333 11 74.833 33 100.5s50.667 38.5 86 38.5c28 0 51.333 -9.66699 70 -29s28 -43.666 28 -72.999c0 -39.333 -19 -73 -57 -101c-8.66699 -6.66699 -13 -10.667 -13 -12
c0 -24 16.167 -44.667 48.5 -62s73.5 -26 123.5 -26c77.333 0 138.666 18 183.999 54s68 84.333 68 145c0 58.667 -51.667 108 -155 148l-18 7c-108 41.333 -179.833 81.333 -215.5 120s-53.5 89 -53.5 151c0 86.667 33.167 158.167 99.5 214.5s151.833 84.5 256.5 84.5
c93.333 0 168.166 -19.167 224.499 -57.5s84.5 -88.166 84.5 -149.499c0 -36.667 -10 -66 -30 -88s-46.667 -33 -80 -33c-29.333 0 -54.166 9 -74.499 27s-30.5 40.333 -30.5 67c0 22.667 8.66699 45.167 26 67.5s26 36.166 26 41.499c0 14 -13 26.333 -39 37s-59 16 -99 16
c-66 0 -119.667 -15.5 -161 -46.5s-62 -70.167 -62 -117.5c0 -66.667 64.333 -123.667 193 -171l63 -23c69.333 -26.667 119.166 -59 149.499 -97s45.5 -87 45.5 -147c0 -98.667 -36 -178 -108 -238s-167 -90 -285 -90z" />
    <glyph glyph-name="t" unicode="t" horiz-adv-x="674" 
d="M207 193c-4.66699 -16.667 -8.16309 -31.332 -10.4961 -43.999s-3.5 -22 -3.5 -28c0 -14.667 3.66699 -25.834 11 -33.501s18.666 -11.5 33.999 -11.5c26.667 0 60.167 20 100.5 60s92.166 105.333 155.499 196l59 -37c-60.667 -102 -122.334 -180 -185.001 -234
s-122.667 -81 -180 -81c-50 0 -89.333 13.5 -118 40.5s-43 64.5 -43 112.5c0 18 2.16699 37.667 6.5 59s14.166 56.333 29.499 105l177 551h-189l25 86h192l115 348h162l-111 -348h225l-26 -86h-225z" />
    <glyph glyph-name="u" unicode="u" horiz-adv-x="1241" 
d="M647 231c-62.667 -86 -126.831 -151.834 -192.498 -197.501s-129.834 -68.5 -192.501 -68.5c-62 0 -109.833 15.833 -143.5 47.5s-50.5 76.5 -50.5 134.5c0 16 3 38.833 9 68.5s14.333 60.834 25 93.501l127 381c8 22.667 14.167 43.834 18.5 63.501s6.5 34.167 6.5 43.5
c0 24.667 -9.16699 41.334 -27.5 50.001s-66.5 13 -144.5 13l18 74l387 22l-219 -675c-9.33301 -28.667 -16 -52.334 -20 -71.001s-6 -34.667 -6 -48c0 -26 8 -46.5 24 -61.5s38 -22.5 66 -22.5c84.667 0 167 57.667 247 173s155.333 285.666 226 510.999l55 172h184
c-82 -212 -145.167 -388.667 -189.5 -530s-66.5 -237 -66.5 -287c0 -20 3.5 -34.333 10.5 -43s17.833 -13 32.5 -13c24.667 0 56 20 94 60s85.333 102.667 142 188l55 -39c-61.333 -103.333 -119.5 -180 -174.5 -230s-108.833 -75 -161.5 -75
c-44.667 0 -81.334 14.667 -110.001 44s-43 67.333 -43 114c0 12.667 1 27.5 3 44.5s5.66699 38.167 11 63.5z" />
    <glyph glyph-name="v" unicode="v" horiz-adv-x="1030" 
d="M49 860l9.99609 74.001l373 22l-170 -589c-6.66699 -23.333 -12 -47 -16 -71s-6 -45.667 -6 -65c0 -46.667 14.167 -84.167 42.5 -112.5s65.833 -42.5 112.5 -42.5c39.333 0 79.333 14.167 120 42.5s80.667 69.5 120 123.5c46.667 64.667 84.334 136.167 113.001 214.5
s43 145.833 43 202.5c0 38 -17.167 77.833 -51.5 119.5s-51.5 75.167 -51.5 100.5s9.33301 46.666 28 63.999s41.334 26 68.001 26c38.667 0 68.167 -13.833 88.5 -41.5s30.5 -67.167 30.5 -118.5c0 -85.333 -15.667 -179.5 -47 -282.5s-74.333 -201.5 -129 -295.5
c-50.667 -87.333 -109.167 -153.5 -175.5 -198.5s-138.166 -67.5 -215.499 -67.5c-80 0 -144.333 25.333 -193 76s-73 117.667 -73 201c0 22 1.83301 44.333 5.5 67s9.83398 50 18.501 82l82 299c10 34 16.667 58.5 20 73.5s5 26.833 5 35.5
c0 23.333 -9.33301 39.333 -28 48s-60 13 -124 13z" />
    <glyph glyph-name="w" unicode="w" horiz-adv-x="1569" 
d="M205 690c7.33301 23.333 13.1641 44.501 17.4971 63.501s6.5 33.5 6.5 43.5c0 24.667 -9 41.334 -27 50.001s-59.333 13 -124 13l10 74l358 22l-180 -589c-11.333 -35.333 -20 -68.666 -26 -99.999s-9 -58.333 -9 -81c0 -31.333 9 -56.5 27 -75.5s42 -28.5 72 -28.5
c92.667 0 183.667 77.5 273 232.5s160 361.5 212 619.5h184c-63.333 -211.333 -107.5 -369.833 -132.5 -475.5s-37.5 -186.167 -37.5 -241.5c0 -44 9 -77.5 27 -100.5s44 -34.5 78 -34.5c34.667 0 70.834 12.5 108.501 37.5s73.834 60.833 108.501 107.5
c50 67.333 90.167 141.333 120.5 222s45.5 150.667 45.5 210c0 38 -17.167 78.167 -51.5 120.5s-51.5 73.166 -51.5 92.499c0 27.333 9.83301 50.333 29.5 69s44.167 28 73.5 28c35.333 0 62.5 -14 81.5 -42s28.5 -67.333 28.5 -118c0 -70.667 -10.667 -148.5 -32 -233.5
s-51.333 -167.5 -90 -247.5c-55.333 -114.667 -118.166 -202.834 -188.499 -264.501s-142.833 -92.5 -217.5 -92.5s-132.167 21.5 -172.5 64.5s-60.5 104.167 -60.5 183.5c0 13.333 0.5 26.833 1.5 40.5s2.5 27.5 4.5 41.5c-45.333 -102.667 -104 -184 -176 -244
s-146 -90 -222 -90c-61.333 0 -111.333 20.333 -150 61s-58 92.667 -58 156c0 25.333 3.66699 55.666 11 90.999s18 74 32 116z" />
    <glyph glyph-name="x" unicode="x" horiz-adv-x="1012" 
d="M397 319c-70 -127.333 -131.335 -218.166 -184.002 -272.499s-105.334 -81.5 -158.001 -81.5c-42 0 -76.333 13.167 -103 39.5s-40 60.166 -40 101.499c0 32.667 10 60 30 82s43.333 33 70 33c24 0 43.167 -5.33301 57.5 -16s24.5 -27 30.5 -49l5 -21
c4 -23.333 12.667 -35 26 -35c18 0 40.333 16.667 67 50s60.334 86.333 101.001 159l76 135l-41 189c-14.667 67.333 -29.5 116.833 -44.5 148.5s-30.833 47.5 -47.5 47.5c-16 0 -36.333 -13.667 -61 -41s-59 -75 -103 -143l-58 35
c60 101.333 112.833 174.166 158.5 218.499s90.5 66.5 134.5 66.5c41.333 0 74.833 -17 100.5 -51s46.167 -88.667 61.5 -164l25 -117c64.667 116.667 122.5 201.167 173.5 253.5s100.833 78.5 149.5 78.5c36.667 0 65.667 -10.667 87 -32s32 -49.666 32 -84.999
c0 -33.333 -8.66699 -59.833 -26 -79.5s-40.666 -29.5 -69.999 -29.5s-52.5 14 -69.5 42s-30.833 42 -41.5 42c-14.667 0 -42 -28.5 -82 -85.5s-83 -130.167 -129 -219.5l39 -192c19.333 -98 35.833 -161.167 49.5 -189.5s31.5 -42.5 53.5 -42.5
c20 0 44.833 16.167 74.5 48.5s66.834 83.833 111.501 154.5l57 -39c-52.667 -95.333 -105.667 -168 -159 -218s-104 -75 -152 -75c-48.667 0 -87.5 24.5 -116.5 73.5s-57.167 142.5 -84.5 280.5z" />
    <glyph glyph-name="y" unicode="y" horiz-adv-x="977" 
d="M385 -6c-31.333 242 -66.333 437.669 -105 587.002s-72.667 224 -102 224c-16.667 0 -35 -14.5 -55 -43.5s-46.667 -80.167 -80 -153.5l-66 27c44.667 106.667 89.667 187.667 135 243s90 83 134 83c79.333 0 164.333 -208.667 255 -626l23 -106l15 26
c128 224 192 377.333 192 460c0 24 -1 50.833 -3 80.5s-3 47.167 -3 52.5c0 33.333 9 60 27 80s41.667 30 71 30c27.333 0 49.166 -9.16699 65.499 -27.5s24.5 -42.5 24.5 -72.5c0 -63.333 -77.333 -235 -232 -515l-3 -5l-10 -18c-279.333 -501.333 -502 -752 -668 -752
c-56.667 0 -102.5 14.167 -137.5 42.5s-52.5 65.166 -52.5 110.499c0 35.333 9.33301 63.666 28 84.999s43.334 32 74.001 32c32 0 57.333 -9.5 76 -28.5s28 -44.167 28 -75.5c0 -8 -0.666992 -17.333 -2 -28s-2 -17 -2 -19c0 -9.33301 3.33301 -16.833 10 -22.5
s15.667 -8.5 27 -8.5c43.333 0 96.833 31.333 160.5 94s122.167 144 175.5 244z" />
    <glyph glyph-name="z" unicode="z" horiz-adv-x="895" 
d="M47 94l-0.00195312 -14.0029c0 -41.333 -4.66699 -70.833 -14 -88.5s-24.333 -26.5 -45 -26.5c-12.667 0 -23.334 5.5 -32.001 16.5s-13 24.833 -13 41.5c0 40.667 19.833 90.167 59.5 148.5s99.5 126.166 179.5 203.499c67.333 64 164.333 135.833 291 215.5
s209.334 140.167 248.001 181.5c-20.667 -8.66699 -43.5 -15.167 -68.5 -19.5s-52.833 -6.83301 -83.5 -7.5c-38.667 0 -89.5 11 -152.5 33s-106.167 33 -129.5 33c-28 0 -54 -11.5 -78 -34.5s-54.667 -66.833 -92 -131.5l-58 37c45.333 90.667 95.5 159.334 150.5 206.001
s112.833 70 173.5 70c47.333 0 105 -16.333 173 -49s118.333 -49 151 -49c16 0.666992 27.5 4.16699 34.5 10.5s13.167 20.833 18.5 43.5c4.66699 20.667 10.334 34.667 17.001 42s16 11 28 11c13.333 0 23.5 -5 30.5 -15s10.5 -24.333 10.5 -43
c0 -47.333 -29.167 -110.833 -87.5 -190.5s-131.5 -152.5 -219.5 -218.5c-28 -21.333 -96.833 -64.666 -206.5 -129.999s-189.834 -128.666 -240.501 -189.999c14 6.66699 31.833 11.834 53.5 15.501s47.5 5.5 77.5 5.5c54.667 0 117.334 -12.667 188.001 -38
s117.334 -38 140.001 -38c34 0 65.833 15.5 95.5 46.5s58.5 78.833 86.5 143.5l66 -26c-36 -104 -83 -183.667 -141 -239s-123.667 -83 -197 -83c-27.333 0 -56 4 -86 12s-75 25.333 -135 52c-16.667 7.33301 -39 18 -67 32c-50.667 24.667 -82.334 37 -95.001 37
c-5.33301 0 -10.666 -0.5 -15.999 -1.5s-10.333 -2.5 -15 -4.5z" />
    <glyph glyph-name="braceleft" unicode="{" 
d="M848 1516l-0.000976562 -53.002c-90.667 -1.33301 -152.667 -19.666 -186 -54.999s-50 -105.333 -50 -210v-141c0 -151.333 -19.667 -254.166 -59 -308.499s-111.666 -92.166 -216.999 -113.499c106 -21.333 178.5 -59.166 217.5 -113.499s58.5 -157.166 58.5 -308.499
v-141c0 -104.667 16.5 -174.334 49.5 -209.001s95.167 -52.667 186.5 -54v-53h-10c-146 0 -246.333 24.667 -301 74s-82 140 -82 272v207c0 107.333 -19.667 181.166 -59 221.499s-112 64.833 -218 73.5v64c107.333 8.66699 180.333 33.167 219 73.5s58 114.166 58 221.499
v206c0 132.667 27.333 223.667 82 273s155 74 301 74h10z" />
    <glyph glyph-name="bar" unicode="|" 
d="M438 1565h150v-2048h-150v2048z" />
    <glyph glyph-name="braceright" unicode="}" 
d="M176 1516l9.99902 0.00292969c146.667 0 247.5 -24.667 302.5 -74s82.5 -140.333 82.5 -273v-206c0 -107.333 19.333 -181.166 58 -221.499s111.667 -64.833 219 -73.5v-64c-107.333 -8.66699 -180.333 -33.167 -219 -73.5s-58 -114.166 -58 -221.499v-207
c0 -132 -27.5 -222.667 -82.5 -272s-155.833 -74 -302.5 -74h-10v53c91.333 1.33301 153.5 19.5 186.5 54.5s49.5 104.5 49.5 208.5v141c0 151.333 19.5 254.166 58.5 308.499s111.5 92.166 217.5 113.499c-105.333 21.333 -177.666 59.166 -216.999 113.499
s-59 157.166 -59 308.499v141c0 104.667 -16.667 174.667 -50 210s-95.333 53.666 -186 54.999v53z" />
    <glyph glyph-name="asciitilde" unicode="~" horiz-adv-x="1706" 
d="M1530 770l-0.00292969 -156.001c-69.333 -48 -135.666 -83.5 -198.999 -106.5s-126.666 -34.5 -189.999 -34.5c-62 0 -147.333 19.333 -256 58c-14.667 5.33301 -26 9.33301 -34 12l-15 5c-117.333 40 -208.333 60 -273 60c-56 0 -114.333 -12.333 -175 -37
s-130.667 -64.667 -210 -120v155c70.667 48 138 84 202 108s125.667 36 185 36c41.333 0 83.833 -4.5 127.5 -13.5s98.167 -25.167 163.5 -48.5c10.667 -3.33301 26.334 -9 47.001 -17c106 -38 186 -57 240 -57c58.667 0 118.5 12.333 179.5 37
s130.167 64.334 207.5 119.001z" />
    <glyph glyph-name="currency" unicode="&#xa4;" horiz-adv-x="1241" 
d="M623 1190c-84 0 -155.667 -29.667 -215 -89s-89 -130.666 -89 -213.999c0 -84 29.667 -155.833 89 -215.5s131 -89.5 215 -89.5c83.333 0 154.666 29.833 213.999 89.5s89 131.5 89 215.5c0 83.333 -29.667 154.666 -89 213.999s-130.666 89 -213.999 89zM162 1423
l205 -203.998c38 28.667 78 50.167 120 64.5s86.667 21.5 134 21.5s92.166 -7.16699 134.499 -21.5s82.833 -35.833 121.5 -64.5l204 204l82 -80l-205 -206c27.333 -36.667 47.833 -76 61.5 -118s20.5 -86.667 20.5 -134c0 -48.667 -6.66699 -93.834 -20 -135.501
s-34 -80.5 -62 -116.5l205 -205l-82 -82l-204 205c-39.333 -29.333 -80 -51 -122 -65s-86 -21 -132 -21c-48 0 -93.167 7.16699 -135.5 21.5s-82.5 35.833 -120.5 64.5l-205 -205l-82 82l207 205c-27.333 34 -48.166 72.667 -62.499 116s-21.5 88.666 -21.5 135.999
c0 46.667 7 91 21 133s35 81.667 63 119l-207 206z" />
    <glyph glyph-name="brokenbar" unicode="&#xa6;" 
d="M438 408h150v-758h-150v758zM438 1432h150v-758h-150v758z" />
    <glyph glyph-name="section" unicode="&#xa7;" 
d="M580 358c43.333 -52.667 76 -102.836 98 -150.503s33 -92.167 33 -133.5c0 -75.333 -31.167 -136.833 -93.5 -184.5s-142.5 -71.5 -240.5 -71.5c-85.333 0 -155.166 20.833 -209.499 62.5s-81.5 93.834 -81.5 156.501c0 35.333 11.5 64.666 34.5 87.999s52.5 35 88.5 35
c27.333 0 50.5 -9.66699 69.5 -29s28.5 -43.333 28.5 -72c0 -21.333 -11.833 -46.333 -35.5 -75s-35.5 -46.667 -35.5 -54c0 -18 12.5 -33 37.5 -45s57.5 -18 97.5 -18c50 0 92.5 16 127.5 48s52.5 71.333 52.5 118c0 54 -47.333 140.333 -142 259
c-10 12.667 -17.333 21.667 -22 27l-102 130c-53.333 66.667 -90 121.667 -110 165s-30 85.666 -30 126.999c0 70 26.667 129.5 80 178.5s116.333 73.5 189 73.5c12 0 21.833 -0.166992 29.5 -0.5s14.5 -0.5 20.5 -0.5c-42.667 48 -74.667 94.167 -96 138.5
s-32 87.5 -32 129.5c0 74.667 30.833 136.667 92.5 186s140.834 74 237.501 74c79.333 0 144.5 -19.167 195.5 -57.5s76.5 -86.166 76.5 -143.499c0 -35.333 -11 -64.666 -33 -87.999s-49.333 -35 -82 -35c-28.667 0 -52.834 9 -72.501 27s-29.5 39.667 -29.5 65
c0 22.667 10.5 46.334 31.5 71.001s31.5 41.334 31.5 50.001c0 16 -10.833 29.833 -32.5 41.5s-48.167 17.5 -79.5 17.5c-56.667 0 -102 -14.167 -136 -42.5s-51 -65.166 -51 -110.499c0 -53.333 52.667 -144.333 158 -273l8 -10l103 -127c52 -64 88.5 -118.667 109.5 -164
s31.5 -90.333 31.5 -135c0 -72.667 -25.167 -132.834 -75.5 -180.501s-112.5 -71.5 -186.5 -71.5c-6 0 -19 1 -39 3c-6.66699 0.666992 -11.334 1 -14.001 1zM289 804.998c0 -28 8.83203 -61.333 26.499 -100s43.5 -81 77.5 -127
c54.667 -73.333 96.334 -119.666 125.001 -138.999s60.667 -29 96 -29c40 0 73 12.167 99 36.5s39 55.166 39 92.499c0 28.667 -8 61 -24 97s-42.333 79.333 -79 130c-42.667 59.333 -80.667 102.833 -114 130.5s-65 41.5 -95 41.5c-40 0 -75.167 -13.333 -105.5 -40
s-45.5 -57.667 -45.5 -93z" />
    <glyph glyph-name="copyright" unicode="&#xa9;" horiz-adv-x="1683" 
d="M1122 1098l36.9971 0.000976562l2 -316h-43c-21.333 90 -55.666 158 -102.999 204s-106.333 69 -177 69c-79.333 0 -139.166 -31.167 -179.499 -93.5s-60.5 -154.833 -60.5 -277.5c0 -124.667 22.167 -219.334 66.5 -284.001s108.833 -97 193.5 -97
c56 0 107.167 14.667 153.5 44s88.833 73.333 127.5 132l39 -26c-40.667 -70 -90 -122.667 -148 -158s-124.333 -53 -199 -53c-115.333 0 -212.666 41.333 -291.999 124s-119 184 -119 304c0 122 39.5 224.5 118.5 307.5s175.833 124.5 290.5 124.5
c50 0 99.833 -11 149.5 -33s76.5 -33 80.5 -33c18 0 32 4.83301 42 14.5s17 25.5 21 47.5zM843.997 1305c-82 0 -161.333 -16.332 -238 -48.999s-144.334 -78.667 -203.001 -138c-58.667 -60 -103.334 -127.5 -134.001 -202.5s-46 -154.167 -46 -237.5
c0 -84.667 15.5 -164.334 46.5 -239.001s76.5 -141.667 136.5 -201c60.667 -60 127.834 -105.5 201.501 -136.5s151.834 -46.5 234.501 -46.5c84 0 163 15.5 237 46.5s140.333 76.5 199 136.5c59.333 60 104.833 128 136.5 204s47.5 154.667 47.5 236
c0 82 -16 162.333 -48 241s-76.667 146.334 -134 203.001c-57.333 57.333 -124.333 102.166 -201 134.499s-155 48.5 -235 48.5zM843.997 1391c92 0 181.666 -18.1689 268.999 -54.502s164 -87.166 230 -152.499c66.667 -66 118.167 -143.333 154.5 -232
s54.5 -180 54.5 -274c0 -93.333 -17.833 -183.166 -53.5 -269.499s-87.5 -163.833 -155.5 -232.5c-66 -67.333 -142 -119 -228 -155s-177 -54 -273 -54c-94.667 0 -184.667 17.833 -270 53.5s-162.666 87.5 -231.999 155.5c-68.667 68 -120.667 144.333 -156 229
s-53 175.667 -53 273c0 94 17.833 184 53.5 270s87.5 163.333 155.5 232c66.667 67.333 143.5 119.333 230.5 156s178.167 55 273.5 55z" />
    <glyph glyph-name="guillemotleft" unicode="&#xab;" horiz-adv-x="999" 
d="M461 483c86.667 59.333 172.332 124.331 256.999 194.998s131.334 106 140.001 106c4.66699 0 8.5 -2 11.5 -6s4.5 -9.33301 4.5 -16c0 -17.333 -20.5 -49 -61.5 -95s-107.167 -110.667 -198.5 -194c49.333 -83.333 85 -146.166 107 -188.499s33 -68.166 33 -77.499
s-2.16699 -16.5 -6.5 -21.5s-10.5 -7.5 -18.5 -7.5c-14.667 0 -50 36.833 -106 110.5s-110 138.5 -162 194.5zM108.998 482.998c86.667 59.333 172.331 124.331 256.998 194.998s131.334 106 140.001 106c4.66699 0 8.83398 -2.16699 12.501 -6.5s5.5 -9.5 5.5 -15.5
c0 -17.333 -20.167 -48.333 -60.5 -93s-107.5 -110 -201.5 -196c48.667 -83.333 84 -146.166 106 -188.499s33 -68.166 33 -77.499c0 -10 -1.66699 -17.167 -5 -21.5s-9 -6.83301 -17 -7.5c-14.667 0 -50.5 37 -107.5 111s-111.167 138.667 -162.5 194z" />
    <glyph glyph-name="logicalnot" unicode="&#xac;" horiz-adv-x="1706" 
d="M254 860h1198v-502h-137v363h-1061v139z" />
    <glyph glyph-name="sfthyphen" unicode="&#xad;" horiz-adv-x="674" 
d="M14 403l39 152h492l-39 -152h-492z" />
    <glyph glyph-name="registered" unicode="&#xae;" horiz-adv-x="1124" 
d="M487 1006c4.66699 0 10.667 -0.331055 18 -0.998047s13 -1 17 -1c51.333 0 91.5 10 120.5 30s43.5 47.333 43.5 82c0 31.333 -11.333 56.666 -34 75.999s-53 29 -91 29c-24.667 0 -43.167 -3.83301 -55.5 -11.5s-18.5 -18.834 -18.5 -33.501v-170zM311 1249
l263.997 -0.000976562c67.333 0 120.5 -12.167 159.5 -36.5s58.5 -57.166 58.5 -98.499c0 -36.667 -16.667 -66.334 -50 -89.001s-83 -38 -149 -46c41.333 -6.66699 73.166 -21 95.499 -43s38.833 -55.333 49.5 -100c2.66699 -10 5.33398 -22.667 8.00098 -38
c9.33301 -46 24 -69 44 -69c14.667 0 25.834 5.83301 33.501 17.5s11.5 29.167 11.5 52.5v16h28v-20c0 -38 -8.5 -65.333 -25.5 -82s-44.5 -25 -82.5 -25c-51.333 0 -86 41.667 -104 125c-3.33301 16.667 -6.33301 29.667 -9 39c-9.33301 35.333 -26.666 62.333 -51.999 81
s-57.666 28 -96.999 28h-7v-170c0 -19.333 6.16699 -33.833 18.5 -43.5s31.5 -15.167 57.5 -16.5v-31h-252v31c28 0 48.333 5.33301 61 16s19 27.334 19 50.001v358c0 21.333 -6.5 37 -19.5 47s-33.167 15 -60.5 15v32zM560.997 1391
c-114 0 -212.167 -41.668 -294.5 -125.001s-123.5 -183 -123.5 -299c0 -115.333 40.833 -214.166 122.5 -296.499s180.167 -123.5 295.5 -123.5c116 0 214.667 41.333 296 124s122 182 122 298s-40.833 215.333 -122.5 298s-180.167 124 -295.5 124zM562.997 1466
c137.333 0 254.331 -48.499 350.998 -145.499s145 -214.167 145 -351.5c0 -136.667 -48.667 -253.834 -146 -351.501s-214.666 -146.5 -351.999 -146.5s-254.666 48.5 -351.999 145.5s-146 214.5 -146 352.5c0 136.667 49.167 253.667 147.5 351s215.833 146 352.5 146z" />
    <glyph glyph-name="degree" unicode="&#xb0;" horiz-adv-x="674" 
d="M338 1362c-54 0 -100 -18.667 -138 -56s-57 -83 -57 -137s19 -100.167 57 -138.5s84 -57.5 138 -57.5s99.5 19.167 136.5 57.5s55.5 84.5 55.5 138.5s-18.5 99.667 -55.5 137s-82.5 56 -136.5 56zM338 1456c78.667 0 146.167 -28.167 202.5 -84.5
s84.5 -124.5 84.5 -204.5c0 -79.333 -28 -146.833 -84 -202.5s-124.333 -83.5 -205 -83.5s-148.667 27.667 -204 83s-83 123 -83 203s28.333 148.167 85 204.5s124.667 84.5 204 84.5z" />
    <glyph glyph-name="plusminus" unicode="&#xb1;" horiz-adv-x="1706" 
d="M254 170h1198v-141h-1198v141zM782 1192h142v-340h528v-139h-528v-340h-142v340h-528v139h528v340z" />
    <glyph glyph-name="mu" unicode="&#xb5;" horiz-adv-x="1169" 
d="M166 195c-22 -95.333 -43.335 -213.663 -64.002 -354.996c-24.667 -173.333 -63.334 -260 -116.001 -260c-28.667 0 -50.5 8.16699 -65.5 24.5s-22.5 39.5 -22.5 69.5c0 29.333 23.333 121.666 70 276.999s83.334 296 110.001 422l108 512h168l-100 -475
c-6 -26.667 -10.5 -51.5 -13.5 -74.5s-4.5 -42.833 -4.5 -59.5c0 -46.667 13.833 -82.834 41.5 -108.501s67.5 -38.5 119.5 -38.5c64.667 0 116 18.167 154 54.5s65.333 93.833 82 172.5l112 529h173l-115 -532c-6 -28.667 -10.667 -53.834 -14 -75.501s-5 -39.167 -5 -52.5
c0 -32 8.83301 -56.667 26.5 -74s43.167 -26 76.5 -26c29.333 0 56.333 8.33301 81 25s44 39.667 58 69c8.66699 18 17.667 42.333 27 73c11.333 37.333 24.333 56 39 56c6 0 11.167 -2.66699 15.5 -8s6.5 -12.333 6.5 -21c0 -22.667 -4.5 -52 -13.5 -88
s-20.833 -69.333 -35.5 -100c-26 -52 -56.833 -91 -92.5 -117s-76.5 -39 -122.5 -39c-54 0 -95.833 18.333 -125.5 55s-44.5 88 -44.5 154v13c-34.667 -76.667 -75.667 -132.834 -123 -168.501s-104.666 -53.5 -171.999 -53.5c-63.333 0 -113.666 18.667 -150.999 56
s-60 92 -68 164z" />
    <glyph glyph-name="paragraph" unicode="&#xb6;" 
d="M958 1479l-0.00195312 -86h-120v-1393h-111v1393h-176v-1393h-113v782c-113.333 5.33301 -203.666 39.5 -270.999 102.5s-101 144.833 -101 245.5c0 104.667 35.833 189 107.5 253s166.834 96 285.501 96h499z" />
    <glyph glyph-name="periodcentered" unicode="&#xb7;" horiz-adv-x="559" 
d="M279 825c32 0 59.999 -12.168 83.999 -36.501s36 -53.166 36 -86.499c0 -32.667 -11.667 -60.834 -35 -84.501s-51.666 -35.5 -84.999 -35.5c-34 0 -62.667 11.833 -86 35.5s-35 51.834 -35 84.501c0 34 11.833 63 35.5 87s52.167 36 85.5 36z" />
    <glyph glyph-name="guillemotright" unicode="&#xbb;" horiz-adv-x="999" 
d="M813 479c-86.667 -58.667 -172.331 -123.497 -256.998 -194.497s-131.334 -106.5 -140.001 -106.5c-4.66699 0 -8.5 2 -11.5 6s-4.83301 9.66699 -5.5 17c0 16.667 20 47.167 60 91.5s106.667 109.166 200 194.499c-46.667 79.333 -81.5 141.166 -104.5 185.499
s-34.5 72.166 -34.5 83.499c0 8.66699 2.16699 15.5 6.5 20.5s9.83301 7.5 16.5 7.5c15.333 0 51.166 -36.833 107.499 -110.5s110.5 -138.5 162.5 -194.5zM463.003 479.003c-87.333 -58.667 -173.335 -123.498 -258.002 -194.498s-131 -106.5 -139 -106.5
c-5.33301 0.666992 -9.5 3 -12.5 7s-4.5 9.33301 -4.5 16c0 16.667 19.5 46.5 58.5 89.5s106.833 108.5 203.5 196.5c-46.667 79.333 -81.5 141.166 -104.5 185.499s-34.5 72.166 -34.5 83.499c0 8.66699 1.83301 15.5 5.5 20.5s8.83398 7.5 15.501 7.5
c14.667 0 50.334 -36.833 107.001 -110.5s111 -138.5 163 -194.5z" />
    <glyph glyph-name="afii10023" unicode="&#x401;" horiz-adv-x="1464" 
d="M1006 1792c0 28.667 10.667 53.999 32 75.999s46 33 74 33c29.333 0 54.833 -10.833 76.5 -32.5s32.5 -46.5 32.5 -74.5c0 -31.333 -10.5 -57.666 -31.5 -78.999s-46.833 -32 -77.5 -32c-28.667 0 -53.5 10.833 -74.5 32.5s-31.5 47.167 -31.5 76.5zM653 1792
c0 28.667 10.833 53.999 32.5 75.999s46.5 33 74.5 33c28.667 0 53.834 -10.833 75.501 -32.5s32.5 -46.5 32.5 -74.5c0 -31.333 -10.333 -57.666 -31 -78.999s-46.334 -32 -77.001 -32c-28.667 0 -53.667 10.833 -75 32.5s-32 47.167 -32 76.5zM-37 89.998l110 10.001
c26.667 2.66699 47 9.66699 61 21s24 28.333 30 51l272 1071l1 4c10.667 45.333 16 72.666 16 81.999c0 21.333 -8.66699 36 -26 44s-55 12.333 -113 13l-83 3l17 90h1184l-82 -500h-84c0 178 -22.667 290.333 -68 337s-152.333 70 -321 70
c-122.667 0 -193 -35.667 -211 -107v-1l-117 -455c5.33301 0 15 -0.333008 29 -1s25.333 -1 34 -1c99.333 0 174.666 19.667 225.999 59s92.333 107 123 203h92l-189 -698h-90c6 28.667 10.333 55 13 79s4 48.333 4 73c0 76.667 -15.333 128.5 -46 155.5
s-90.667 40.5 -180 40.5h-39l-123 -496c-1.33301 -7.33301 -3.66602 -17.333 -6.99902 -30c-6 -24.667 -9 -41 -9 -49c0 -26 12 -43.5 36 -52.5s79 -13.5 165 -13.5c169.333 0 300.833 31.833 394.5 95.5s179.167 177.167 256.5 340.5h80l-160 -528h-1214z" />
    <glyph glyph-name="afii10051" unicode="&#x402;" horiz-adv-x="1688" 
d="M707 705c67.333 76.667 136.668 133.665 208.001 170.998s147.333 56 228 56c113.333 0 203 -33.5 269 -100.5s99 -158.5 99 -274.5c0 -159.333 -51.667 -299.166 -155 -419.499s-225.666 -180.5 -366.999 -180.5c-71.333 0 -126.666 18.833 -165.999 56.5
s-59 90.5 -59 158.5c0 52 15.667 96.667 47 134s69 56 113 56c32.667 0 59.5 -9.33301 80.5 -28s31.5 -42.667 31.5 -72c0 -28 -7.16699 -53 -21.5 -75s-33.166 -36.667 -56.499 -44c-4.66699 -1.33301 -11 -3 -19 -5c-29.333 -8 -44 -22.667 -44 -44
c0 -17.333 7 -31.5 21 -42.5s32.333 -16.5 55 -16.5c37.333 0 73.166 13.5 107.499 40.5s66.166 66.833 95.499 119.5c33.333 59.333 60 123.333 80 192s30 129.334 30 182.001c0 77.333 -19 136.666 -57 177.999s-92 62 -162 62c-88 0 -174.833 -39.167 -260.5 -117.5
s-144.167 -173.5 -175.5 -285.5l-47 -170c-5.33301 -18 -9.5 -34.5 -12.5 -49.5s-4.5 -27.167 -4.5 -36.5c0 -19.333 7.16699 -33.5 21.5 -42.5s36.833 -14.167 67.5 -15.5l48 -2l-22 -90h-584l19 90l145 8c28 2 48.833 8.83301 62.5 20.5s25.5 38.5 35.5 80.5l269 1052
c6 25.333 10.167 43.833 12.5 55.5s3.5 20.5 3.5 26.5c0 20.667 -8.5 36.5 -25.5 47.5s-41.833 16.5 -74.5 16.5c-64 0 -125.667 -26.167 -185 -78.5s-123.333 -137.5 -192 -255.5l-64 22l131 394h1123l-68 -435h-71c-6.66699 126.667 -28.334 215.834 -65.001 267.501
s-95.667 77.5 -177 77.5c-34.667 0 -59.834 -5.5 -75.501 -16.5s-29.5 -39.167 -41.5 -84.5z" />
    <glyph glyph-name="afii10052" unicode="&#x403;" horiz-adv-x="1319" 
d="M262 1479l1094 -0.000976562l-82 -500h-86c-1.33301 175.333 -23.833 287 -67.5 335s-134.5 72 -272.5 72c-102.667 0 -163.334 -35 -182.001 -105v-3l-265 -1040c-6 -28.667 -10.167 -49.167 -12.5 -61.5s-3.5 -21.166 -3.5 -26.499c0 -22 7.83301 -36.833 23.5 -44.5
s54.5 -12.167 116.5 -13.5l63 -2l-19 -90h-624l18 90l110 10c27.333 2.66699 47.833 9.5 61.5 20.5s23.5 28.167 29.5 51.5l272 1071c6.66699 24.667 11.167 43.167 13.5 55.5s3.5 22.5 3.5 30.5c0 21.333 -8 36 -24 44s-54.667 12.333 -116 13l-69 3zM782.001 1630h-88
l293 297c21.333 22 41.5 38.167 60.5 48.5s37.167 15.5 54.5 15.5c22 0 40.5 -7.83301 55.5 -23.5s22.5 -35.167 22.5 -58.5c0 -16.667 -5.5 -31.5 -16.5 -44.5s-30.833 -28.167 -59.5 -45.5z" />
    <glyph glyph-name="afii10053" unicode="&#x404;" horiz-adv-x="1432" 
d="M1249 1343l127.003 135.998h66l-111 -586h-82v68c0 144.667 -32.167 259 -96.5 343s-152.166 126 -263.499 126c-113.333 0 -215.333 -52.5 -306 -157.5s-161.334 -252.833 -212.001 -443.5h553l-25 -100h-549c-7.33301 -28 -12.833 -61 -16.5 -99
s-5.5 -80.667 -5.5 -128c0 -146 31.167 -256 93.5 -330s155.166 -111 278.499 -111c92 0 178.5 22 259.5 66s121.5 83.667 121.5 119c0 10 -4.5 18.167 -13.5 24.5s-23.5 11.833 -43.5 16.5c-20.667 4.66699 -36 14.334 -46 29.001s-15 34.334 -15 59.001
c0 47.333 15.667 87.166 47 119.499s70.666 48.5 117.999 48.5c44.667 0 80.834 -14.167 108.501 -42.5s41.5 -65.5 41.5 -111.5c0 -109.333 -61.667 -207.666 -185 -294.999s-267 -131 -431 -131c-178 0 -318.5 54.667 -421.5 164s-154.5 258 -154.5 446
c0 132 24.5 258.833 73.5 380.5s119.5 231.167 211.5 328.5c73.333 76.667 154 135.167 242 175.5s179.333 60.5 274 60.5c77.333 0 145.166 -14.167 203.499 -42.5s111.166 -72.5 158.499 -132.5z" />
    <glyph glyph-name="afii10054" unicode="&#x405;" horiz-adv-x="1354" 
d="M1116 1356l107.001 109.998h77l-104 -534l-79 16c-2.66699 159.333 -35.167 278.666 -97.5 357.999s-155.166 119 -278.499 119c-88.667 0 -161.334 -25.167 -218.001 -75.5s-85 -115.166 -85 -194.499c0 -62.667 21.833 -114.167 65.5 -154.5
s125.834 -80.166 246.501 -119.499c167.333 -56 280.833 -115.667 340.5 -179s89.5 -148.666 89.5 -255.999c0 -144 -51.167 -261.167 -153.5 -351.5s-234.833 -135.5 -397.5 -135.5c-86 0 -163.333 14 -232 42s-131.334 70.667 -188.001 128l-123 -129h-76l113 582l84 -15
v-20c0 -162 34.5 -284.167 103.5 -366.5s171.5 -123.5 307.5 -123.5c112.667 0 201.667 26.5 267 79.5s98 124.167 98 213.5c0 68 -19.333 122.333 -58 163s-129.334 85.334 -272.001 134.001c-148.667 50 -252 106.833 -310 170.5s-87 147.5 -87 251.5
c0 127.333 45.167 233.666 135.5 318.999s204.166 128 341.499 128c76.667 0 146.334 -13.167 209.001 -39.5s120.667 -66.5 174 -120.5z" />
    <glyph glyph-name="afii10055" unicode="&#x406;" horiz-adv-x="838" 
d="M401 238c-6 -28.667 -10.167 -49.168 -12.5 -61.501s-3.5 -21.166 -3.5 -26.499c0 -22 7.83301 -36.833 23.5 -44.5s54.5 -12.167 116.5 -13.5l63 -2l-19 -90h-624l18 90l110 10c27.333 2.66699 47.833 9.5 61.5 20.5s23.5 28.167 29.5 51.5l272 1071
c6.66699 24.667 11.167 43.167 13.5 55.5s3.5 22.5 3.5 30.5c0 21.333 -8 36 -24 44s-54.667 12.333 -116 13l-69 3l18 90h619l-21 -90l-97 -9c-26 -2 -45.833 -8.5 -59.5 -19.5s-23.5 -28.167 -29.5 -51.5z" />
    <glyph glyph-name="afii10056" unicode="&#x407;" horiz-adv-x="838" 
d="M725 1792c0 28.667 10.833 53.999 32.5 75.999s46.167 33 73.5 33c29.333 0 54.833 -10.833 76.5 -32.5s32.5 -46.5 32.5 -74.5c0 -31.333 -10.333 -57.666 -31 -78.999s-46.667 -32 -78 -32c-28.667 0 -53.5 10.833 -74.5 32.5s-31.5 47.167 -31.5 76.5zM373 1792
c0 28.667 10.833 53.999 32.5 75.999s46.167 33 73.5 33c29.333 0 54.833 -10.833 76.5 -32.5s32.5 -46.5 32.5 -74.5c0 -31.333 -10.333 -57.666 -31 -78.999s-46.667 -32 -78 -32c-28.667 0 -53.5 10.833 -74.5 32.5s-31.5 47.167 -31.5 76.5zM401 237.998
c-6 -28.667 -10.167 -49.168 -12.5 -61.501s-3.5 -21.166 -3.5 -26.499c0 -22 7.83301 -36.833 23.5 -44.5s54.5 -12.167 116.5 -13.5l63 -2l-19 -90h-624l18 90l110 10c27.333 2.66699 47.833 9.5 61.5 20.5s23.5 28.167 29.5 51.5l272 1071
c6.66699 24.667 11.167 43.167 13.5 55.5s3.5 22.5 3.5 30.5c0 21.333 -8 36 -24 44s-54.667 12.333 -116 13l-69 3l18 90h619l-21 -90l-97 -9c-26 -2 -45.833 -8.5 -59.5 -19.5s-23.5 -28.167 -29.5 -51.5z" />
    <glyph glyph-name="afii10057" unicode="&#x408;" horiz-adv-x="1208" 
d="M838 1243c4 16.667 7.00293 32.335 9.00293 47.002s3 28.334 3 41.001c0 21.333 -8.66699 35.833 -26 43.5s-53.666 11.5 -108.999 11.5h-70l17 93h620l-16 -90l-101 -9c-26 -2 -45.833 -8.33301 -59.5 -19s-23.834 -28.334 -30.501 -53.001l-217 -851
c-46 -181.333 -111.167 -309 -195.5 -383s-202.833 -111 -355.5 -111c-113.333 0 -204.166 31.167 -272.499 93.5s-102.5 145.166 -102.5 248.499c0 84.667 24 154.667 72 210s106.667 83 176 83c46 0 83.5 -13.833 112.5 -41.5s43.5 -62.167 43.5 -103.5
c0 -40 -13.833 -74 -41.5 -102s-61.5 -42 -101.5 -42c-20.667 0 -42.834 5.5 -66.501 16.5s-37.834 16.5 -42.501 16.5c-18 0 -31.667 -6.33301 -41 -19s-14 -31 -14 -55c0 -58.667 23.5 -107.834 70.5 -147.501s107.5 -59.5 181.5 -59.5
c93.333 0 166.166 29.5 218.499 88.5s100.166 172.167 143.499 339.5z" />
    <glyph glyph-name="afii10058" unicode="&#x409;" horiz-adv-x="2058" 
d="M1217 731l-121.001 -495.001c-6.66699 -26.667 -11.167 -46.334 -13.5 -59.001s-3.5 -21.667 -3.5 -27c0 -23.333 10.833 -39.166 32.5 -47.499s64.834 -12.5 129.501 -12.5c82 0 148.333 6.5 199 19.5s93.667 33.833 129 62.5c40 32 72.5 76.167 97.5 132.5
s37.5 114.5 37.5 174.5c0 90.667 -25.667 155.334 -77 194.001s-141 58 -269 58h-141zM531.999 1479h1059l-20 -90l-119 -9c-26 -2 -45.5 -8.33301 -58.5 -19s-22.833 -28 -29.5 -52l-125 -488h78c126.667 0 220.167 -4 280.5 -12s110.833 -21.667 151.5 -41
c62 -28.667 109.167 -69 141.5 -121s48.5 -112.667 48.5 -182c0 -140.667 -46.667 -253.334 -140 -338.001s-217.333 -127 -372 -127h-761l18 92l86 10c28.667 4 49 10.833 61 20.5s21 26.167 27 49.5l313 1217h-145c-118 0 -213.333 -110.333 -286 -331l-31 -95l-68 -204
c-171.333 -524 -341.333 -786 -510 -786c-67.333 0 -120.666 22 -159.999 66s-59 102.667 -59 176c0 70 19.333 129.5 58 178.5s85 73.5 139 73.5c38 0 69 -12.5 93 -37.5s36 -57.5 36 -97.5c0 -31.333 -10.167 -59.833 -30.5 -85.5s-44.833 -42.167 -73.5 -49.5
c-5.33301 -1.33301 -13.333 -2.66602 -24 -3.99902c-47.333 -6 -71 -24 -71 -54c0 -18.667 9.16699 -34.834 27.5 -48.501s40.5 -20.5 66.5 -20.5c58.667 0 111.334 30.833 158.001 92.5s98.334 172.834 155.001 333.501c80 223.333 145.167 413 195.5 569
s75.5 244.667 75.5 266c0 20 -8.33301 34 -25 42s-54 12.333 -112 13l-66 3z" />
    <glyph glyph-name="afii10059" unicode="&#x40a;" horiz-adv-x="2101" 
d="M1255 719l-116 -481l-1 -4c-10.667 -46 -16 -73.333 -16 -82c0 -24 11.167 -40 33.5 -48s78.166 -12 167.499 -12c134.667 0 238.334 33.167 311.001 99.5s109 160.833 109 283.5c0 87.333 -26 149.833 -78 187.5s-141.333 56.5 -268 56.5h-142zM303 1479
l551 -0.000976562l-18 -93l-77 -6c-25.333 -2 -44.666 -8.33301 -57.999 -19s-23 -28 -29 -52l-125 -490h516l107 425c4.66699 19.333 8.5 36.666 11.5 51.999s4.5 26.333 4.5 33c0 20.667 -7.83301 35.167 -23.5 43.5s-45.834 12.833 -90.501 13.5l-58 3l18 90h555l-22 -95
l-70 -4c-26 -2 -45.5 -8.33301 -58.5 -19s-22.833 -28 -29.5 -52l-129 -490h76c238 0 401.5 -28.833 490.5 -86.5s133.5 -155.167 133.5 -292.5c0 -130 -47 -235.833 -141 -317.5s-216.333 -122.5 -367 -122.5h-759l18 92l84 8c26 2 45.667 8.33301 59 19
s23 28.334 29 53.001l137 547h-516l-121 -481c-4.66699 -18.667 -8.5 -36 -11.5 -52s-4.5 -28 -4.5 -36c0 -20.667 7.5 -35.167 22.5 -43.5s41.167 -13.166 78.5 -14.499l65 -2l-16 -90h-549l16 94l73 6c27.333 2.66699 47.5 9.33398 60.5 20.001s22.5 28 28.5 52l270 1071
c5.33301 20 9.5 38 12.5 54s4.5 26.667 4.5 32c0 20.667 -8 35.167 -24 43.5s-45.333 13.166 -88 14.499l-54 2z" />
    <glyph glyph-name="afii10060" unicode="&#x40b;" horiz-adv-x="1706" 
d="M233 1479l1123 -0.00292969l-68 -435h-71c-6.66699 126.667 -28.334 215.834 -65.001 267.501s-95.667 77.5 -177 77.5c-34.667 0 -59.834 -5.5 -75.501 -16.5s-29.5 -39.167 -41.5 -84.5l-151 -583c70.667 80 141.334 137.833 212.001 173.5s150.667 53.5 240 53.5
c94 0 168.667 -22.833 224 -68.5s83 -107.5 83 -185.5c0 -19.333 -1.66699 -40.333 -5 -63s-9 -50.334 -17 -83.001l-70 -296c-0.666992 -4.66699 -2.33398 -12 -5.00098 -22c-7.33301 -30 -11 -51.333 -11 -64c0 -20 7.16699 -34 21.5 -42s53.5 -13.333 117.5 -16l59 -2
l-22 -90h-606l22 94l97 4c48 2.66699 79.667 35 95 97l1 4l84 327c5.33301 20.667 9.33301 39.834 12 57.501s4 32.834 4 45.501c0 52 -15.167 92.333 -45.5 121s-73.166 43 -128.499 43c-97.333 0 -187.166 -36.167 -269.499 -108.5s-139.166 -165.166 -170.499 -278.499
l-47 -170c-5.33301 -18 -9.5 -34.5 -12.5 -49.5s-4.5 -27.167 -4.5 -36.5c0 -22 7.83301 -36.833 23.5 -44.5s53.834 -12.167 114.501 -13.5l67 -2l-22 -90h-652l19 90l145 8c28 2 48.833 8.83301 62.5 20.5s25.5 38.5 35.5 80.5l269 1052c6 25.333 10.167 43.833 12.5 55.5
s3.5 20.5 3.5 26.5c0 20.667 -8.5 36.5 -25.5 47.5s-41.833 16.5 -74.5 16.5c-64 0 -125.667 -26.167 -185 -78.5s-123.333 -137.5 -192 -255.5l-64 22z" />
    <glyph glyph-name="afii10061" unicode="&#x40c;" horiz-adv-x="1538" 
d="M770 795c121.333 -14.667 209.665 -52.3301 264.998 -112.997s83 -150.667 83 -270c0 -19.333 -0.666992 -49.333 -2 -90s-2 -72.334 -2 -95.001c0 -44.667 5.33301 -77.334 16 -98.001s28 -31 52 -31c20 0 41.5 16.167 64.5 48.5s47.833 81.833 74.5 148.5l70 -31
c-33.333 -96 -75.166 -169.5 -125.499 -220.5s-106.166 -76.5 -167.499 -76.5c-70 0 -124 22 -162 66s-57 106.667 -57 188c0 43.333 3.66699 99.333 11 168s11 115 11 139c0 71.333 -19.5 121.666 -58.5 150.999s-111.5 44 -217.5 44h-105l-121 -488
c-6 -26 -10.167 -45.333 -12.5 -58s-3.5 -21.667 -3.5 -27c0 -22 7.66699 -36.833 23 -44.5s53.666 -12.167 114.999 -13.5l63 -2l-19 -90h-622l16 90l110 8c27.333 2.66699 47.833 9.5 61.5 20.5s23.5 28.167 29.5 51.5l282 1122c2.66699 8 4.33398 14.833 5.00098 20.5
l2 16.5c0 21.333 -8.33301 36 -25 44s-54 12.333 -112 13l-72 3l18 90h647l-18 -90l-126 -11c-26 -2 -45.833 -8.5 -59.5 -19.5s-23.5 -28.167 -29.5 -51.5l-129 -490h75c102.667 0 219 116 349 348l8 15c74 132.667 138.833 222.167 194.5 268.5s120.5 69.5 194.5 69.5
c72 0 130 -18.167 174 -54.5s66 -83.833 66 -142.5c0 -46 -12.667 -82.833 -38 -110.5s-59.333 -41.5 -102 -41.5s-76.167 10.5 -100.5 31.5s-36.5 49.5 -36.5 85.5c0 25.333 6.5 48.333 19.5 69s19.5 34 19.5 40c0 8 -4.16699 14.333 -12.5 19s-19.833 7 -34.5 7
c-34.667 0 -70.667 -21 -108 -63s-98.333 -138.333 -183 -289c-51.333 -92.667 -95.833 -158.5 -133.5 -197.5s-79.167 -64.5 -124.5 -76.5zM890.999 1630h-88l293 297c21.333 22 41.5 38.167 60.5 48.5s37.167 15.5 54.5 15.5c22 0 40.5 -7.83301 55.5 -23.5
s22.5 -35.167 22.5 -58.5c0 -16.667 -5.5 -31.5 -16.5 -44.5s-30.833 -28.167 -59.5 -45.5z" />
    <glyph glyph-name="afii10062" unicode="&#x40e;" horiz-adv-x="1419" 
d="M819 305c-74 -127.333 -146.666 -216.5 -217.999 -267.5s-155 -76.5 -251 -76.5c-90 0 -161.667 25.833 -215 77.5s-80 120.834 -80 207.501c0 70.667 20.167 130.667 60.5 180s89.166 74 146.499 74c39.333 0 72.666 -13.833 99.999 -41.5s41 -61.167 41 -100.5
c0 -46 -15.333 -82 -46 -108s-74 -39 -130 -39c-8 0 -15 -3.16699 -21 -9.5s-9 -14.833 -9 -25.5c0 -33.333 15 -60.833 45 -82.5s68 -32.5 114 -32.5c66.667 0 127.334 20.833 182.001 62.5s106 105.5 154 191.5l-381 949c-22 54.667 -45 88.667 -69 102
s-64.333 21 -121 23v90h602v-90l-109 -7c-36.667 -2 -62.167 -8 -76.5 -18s-21.5 -26.333 -21.5 -49c0 -6.66699 1.66699 -15.5 5 -26.5s8 -23.5 14 -37.5l292 -708l406 680c8 14 14 28 18 42s6 27.333 6 40c0 30 -12 51.167 -36 63.5s-76.667 19.166 -158 20.499l12 90h516
l-10 -90c-55.333 -11.333 -101 -31.5 -137 -60.5s-77.667 -84.833 -125 -167.5zM748.001 1775c12 -16 32.0029 -28.334 60.0029 -37.001s62.333 -13 103 -13c41.333 0 81.166 4.83301 119.499 14.5s72.833 23.834 103.5 42.501c-17.333 3.33301 -30.5 10.666 -39.5 21.999
s-13.5 26.333 -13.5 45c0 27.333 9.16699 51 27.5 71s39.833 30 64.5 30c27.333 0 49.166 -8 65.499 -24s24.5 -37.333 24.5 -64c0 -53.333 -35.333 -100.166 -106 -140.499s-155.334 -60.5 -254.001 -60.5c-78 0 -139.833 16.333 -185.5 49s-68.5 75.667 -68.5 129
c0 30.667 9.66699 56.5 29 77.5s42.333 31.5 69 31.5s47.667 -8.16699 63 -24.5s23 -38.166 23 -65.499c0 -24.667 -7.66699 -44.334 -23 -59.001s-36 -22.667 -62 -24z" />
    <glyph glyph-name="afii10145" unicode="&#x40f;" horiz-adv-x="1683" 
d="M256 1479l642.998 -0.000976562l-20 -90l-120 -9c-25.333 -2 -44.666 -8.33301 -57.999 -19s-23 -28 -29 -52l-271 -1071c-4.66699 -18.667 -8.5 -36 -11.5 -52s-4.5 -28 -4.5 -36c0 -23.333 9.33301 -39.166 28 -47.499s54.334 -12.5 107.001 -12.5h383
c33.333 0 57.666 5.66699 72.999 17s27.333 33 36 65l268 1071c5.33301 20 9.33301 37.667 12 53s4 26.333 4 33c0 21.333 -8.16699 36 -24.5 44s-52.833 12.333 -109.5 13l-77 3l19 90h641l-19 -90l-121 -9c-25.333 -2 -44.666 -8.33301 -57.999 -19s-23 -28 -29 -52
l-269 -1071c-4.66699 -18.667 -8.5 -36 -11.5 -52s-4.5 -28 -4.5 -36c0 -22 8.16699 -36.833 24.5 -44.5s54.166 -12.167 113.499 -13.5l75 -2l-14 -90h-705l-68 -410h-196l135 410h-659l16 90l120 10c25.333 2 44.833 8.5 58.5 19.5s23.834 28.5 30.501 52.5l270 1071
c5.33301 20 9.5 38 12.5 54s4.5 26.667 4.5 32c0 21.333 -8.16699 35.833 -24.5 43.5s-53.833 12.167 -112.5 13.5l-74 3z" />
    <glyph glyph-name="afii10017" unicode="&#x410;" horiz-adv-x="1434" 
d="M780 1182l-336 -590h449zM856 1516l77.999 -0.000976562l256 -1301c8.66699 -46.667 23.5 -78 44.5 -94s69.5 -26.333 145.5 -31v-90h-602v90l107 6c36.667 2.66699 60.5 8.5 71.5 17.5s16.5 23.833 16.5 44.5c0 12.667 -0.666992 25.334 -2 38.001
s-2.66602 23 -3.99902 31l-54 265h-530l-127 -236c-6 -12 -10.833 -24.667 -14.5 -38s-5.5 -25.333 -5.5 -36c0 -32.667 12.833 -56.167 38.5 -70.5s69.5 -21.5 131.5 -21.5h16l-10 -90h-555l25 90c52.667 3.33301 102.167 23.5 148.5 60.5s91.5 93.167 135.5 168.5z" />
    <glyph glyph-name="afii10018" unicode="&#x411;" horiz-adv-x="1464" 
d="M522 731l-121 -496.001c-6 -26 -10.167 -45.333 -12.5 -58s-3.5 -21.667 -3.5 -27c0 -24 11.333 -40 34 -48s79 -12 169 -12c89.333 0 160.166 6.33301 212.499 19s96.833 33.667 133.5 63c40.667 33.333 73.334 77.833 98.001 133.5s37 113.5 37 173.5
c0 90.667 -25.667 155.334 -77 194.001s-141 58 -269 58h-201zM1401 1479l-123 -500h-76c0 176.667 -22.333 288.667 -67 336s-138.334 71 -281.001 71c-110.667 0 -175 -34 -193 -102l-2 -7l-114 -456h135c127.333 0 221.333 -4 282 -12s111.334 -21.667 152.001 -41
c62 -28.667 109.333 -69 142 -121s49 -112.667 49 -182c0 -140 -47 -252.5 -141 -337.5s-218.333 -127.5 -373 -127.5h-852l16 90l120 8c28 2 48.667 9 62 21s25 38.667 35 80l262 1042c5.33301 20 9.5 38 12.5 54s4.5 27.333 4.5 34c0 21.333 -8.16699 35.833 -24.5 43.5
s-53.833 12.167 -112.5 13.5l-74 3l16 90h1145z" />
    <glyph glyph-name="afii10019" unicode="&#x412;" horiz-adv-x="1464" 
d="M518 713l-117.001 -477.998c-6 -26 -10.167 -45.333 -12.5 -58s-3.5 -21.667 -3.5 -27c0 -24 11.333 -40 34 -48s79 -12 169 -12c92 0 163.833 6.33301 215.5 19s95.167 33.667 130.5 63c39.333 31.333 71 73.666 95 126.999s36 109.333 36 168
c0 87.333 -26.167 150.166 -78.5 188.499s-142.166 57.5 -269.499 57.5h-199zM675.999 801.002c162 0 278.667 28.833 350 86.5s107 150.167 107 277.5c0 82.667 -22.167 140.667 -66.5 174s-125.5 50 -243.5 50c-58 0 -97.333 -6.5 -118 -19.5s-35 -36.167 -43 -69.5
l-123 -499h137zM255.999 1479l675.999 0.000976562c138.667 0 246.334 -29 323.001 -87s115 -139 115 -243c0 -111.333 -36.5 -201.5 -109.5 -270.5s-173.833 -107.833 -302.5 -116.5c114 -21.333 199.167 -59.833 255.5 -115.5s84.5 -129.167 84.5 -220.5
c0 -122.667 -47.5 -224.334 -142.5 -305.001s-216.5 -121 -364.5 -121h-852l16 90l120 8c28 2 48.667 9 62 21s25 38.667 35 80l262 1042c5.33301 20 9.5 38 12.5 54s4.5 27.333 4.5 34c0 21.333 -8.16699 35.833 -24.5 43.5s-53.833 12.167 -112.5 13.5l-74 3z" />
    <glyph glyph-name="afii10020" unicode="&#x413;" horiz-adv-x="1319" 
d="M262 1479l1094 -0.000976562l-82 -500h-86c-1.33301 175.333 -23.833 287 -67.5 335s-134.5 72 -272.5 72c-102.667 0 -163.334 -35 -182.001 -105v-3l-265 -1040c-6 -28.667 -10.167 -49.167 -12.5 -61.5s-3.5 -21.166 -3.5 -26.499c0 -22 7.83301 -36.833 23.5 -44.5
s54.5 -12.167 116.5 -13.5l63 -2l-19 -90h-624l18 90l110 10c27.333 2.66699 47.833 9.5 61.5 20.5s23.5 28.167 29.5 51.5l272 1071c6.66699 24.667 11.167 43.167 13.5 55.5s3.5 22.5 3.5 30.5c0 21.333 -8 36 -24 44s-54.667 12.333 -116 13l-69 3z" />
    <glyph glyph-name="afii10021" unicode="&#x414;" horiz-adv-x="1569" 
d="M770 1389c-128.667 -424 -230.667 -725.833 -306 -905.5s-150 -310.167 -224 -391.5h544l330 1297h-344zM-80 92l185.998 0.000976562c47.333 38 97.5 100.833 150.5 188.5s101.833 190.167 146.5 307.5c63.333 164 115.5 312.667 156.5 446s61.5 216 61.5 248
c0 33.333 -9.16699 58.166 -27.5 74.499s-46.833 25.5 -85.5 27.5l-76 5l19 90h1083l-18 -90l-122 -9c-25.333 -2 -44.666 -8.33301 -57.999 -19s-23 -28 -29 -52l-306 -1217h232l-125 -508h-70c0 182.667 -23.5 297.667 -70.5 345s-153.167 71 -318.5 71h-301
c-116.667 0 -208.167 -27.5 -274.5 -82.5s-135.166 -166.167 -206.499 -333.5h-72z" />
    <glyph glyph-name="afii10022" unicode="&#x415;" horiz-adv-x="1464" 
d="M-37 90l110 10.001c26.667 2.66699 47 9.66699 61 21s24 28.333 30 51l272 1071l1 4c10.667 45.333 16 72.666 16 81.999c0 21.333 -8.66699 36 -26 44s-55 12.333 -113 13l-83 3l17 90h1184l-82 -500h-84c0 178 -22.667 290.333 -68 337s-152.333 70 -321 70
c-122.667 0 -193 -35.667 -211 -107v-1l-117 -455c5.33301 0 15 -0.333008 29 -1s25.333 -1 34 -1c99.333 0 174.666 19.667 225.999 59s92.333 107 123 203h92l-189 -698h-90c6 28.667 10.333 55 13 79s4 48.333 4 73c0 76.667 -15.333 128.5 -46 155.5
s-90.667 40.5 -180 40.5h-39l-123 -496c-1.33301 -7.33301 -3.66602 -17.333 -6.99902 -30c-6 -24.667 -9 -41 -9 -49c0 -26 12 -43.5 36 -52.5s79 -13.5 165 -13.5c169.333 0 300.833 31.833 394.5 95.5s179.167 177.167 256.5 340.5h80l-160 -528h-1214z" />
    <glyph glyph-name="afii10024" unicode="&#x416;" horiz-adv-x="2083" 
d="M1315 795c112.667 -22.667 194.007 -63.8291 244.007 -123.496s75 -146.167 75 -259.5c0 -19.333 -0.666992 -49.333 -2 -90s-2 -72.334 -2 -95.001c0 -44.667 5.5 -77.334 16.5 -98.001s28.167 -31 51.5 -31c19.333 0 39.5 14 60.5 42s40.5 66.667 58.5 116l69 -31
c-26.667 -82 -63.834 -145.5 -111.501 -190.5s-101.167 -67.5 -160.5 -67.5c-70 0 -124 22 -162 66s-57 106.667 -57 188c0 43.333 3.66699 99.333 11 168s11 115 11 139c0 69.333 -19.333 119.5 -58 150.5s-101.334 46.5 -188.001 46.5c-4 0 -11 -0.333008 -21 -1
s-18 -1 -24 -1l-120 -487c-6.66699 -26.667 -11.167 -46.334 -13.5 -59.001s-3.5 -21.667 -3.5 -27c0 -20.667 6.66699 -34.834 20 -42.501s46.333 -12.834 99 -15.501l43 -2l-16 -90h-531l19 90l71 8c29.333 4 50.166 11.167 62.499 21.5s21.5 26.833 27.5 49.5l144 554
h-31c-99.333 0 -176.833 -19.667 -232.5 -59s-104.5 -111 -146.5 -215l-4 -10c-126 -317.333 -264 -476 -414 -476c-59.333 0 -104.5 15.167 -135.5 45.5s-46.5 74.5 -46.5 132.5c0 18.667 1.83301 37.667 5.5 57s9.5 39.333 17.5 60l73 6
c-3.33301 -18 -5.83301 -35.333 -7.5 -52s-2.5 -30.667 -2.5 -42c0 -23.333 5.16699 -41.5 15.5 -54.5s24.166 -19.5 41.499 -19.5c48.667 0 105.667 74.667 171 224c21.333 49.333 38.333 87.333 51 114c54.667 115.333 122.667 201.333 204 258s186.666 91 315.999 103
c-36 10.667 -63 35.5 -81 74.5s-32.667 114.167 -44 225.5l-2 14c-22 205.333 -67 308 -135 308c-17.333 0 -32 -4.66699 -44 -14s-18 -20.333 -18 -33c0 -11.333 2.16699 -25.333 6.5 -42s6.5 -28 6.5 -34c0 -33.333 -13.5 -62.5 -40.5 -87.5s-60.167 -37.5 -99.5 -37.5
c-38 0 -67.667 10.333 -89 31s-32 49.334 -32 86.001c0 64.667 27.5 118.667 82.5 162s125.167 65 210.5 65c78 0 135.167 -23 171.5 -69s60.5 -132.333 72.5 -259c0.666992 -7.33301 1.66699 -19 3 -35c19.333 -212.667 79 -323.667 179 -333l117 476
c2 6.66699 3.5 13.167 4.5 19.5s1.5 11.833 1.5 16.5c0 20 -6.5 34 -19.5 42s-45.5 13 -97.5 15l-53 3l19 90h553l-21 -95l-88 -6c-26 -2 -45.667 -8.33301 -59 -19s-23 -28 -29 -52l-129 -490c122 4 239 107.333 351 310l50 90c66 114.667 126.167 193.5 180.5 236.5
s117.166 64.5 188.499 64.5c72 0 129.667 -18.167 173 -54.5s65 -83.833 65 -142.5c0 -46 -12.5 -82.833 -37.5 -110.5s-58.5 -41.5 -100.5 -41.5c-42.667 0 -76.5 10.5 -101.5 31.5s-37.5 49.5 -37.5 85.5c0 25.333 6.5 48.333 19.5 69s19.5 34 19.5 40
c0 8 -4 14.333 -12 19s-19 7 -33 7c-35.333 0 -72.333 -21.667 -111 -65s-99.334 -139 -182.001 -287c-56 -100 -103 -168.667 -141 -206s-79.667 -60 -125 -68z" />
    <glyph glyph-name="afii10025" unicode="&#x417;" horiz-adv-x="1278" 
d="M780 793c102.667 -25.333 178.503 -64.834 227.503 -118.501s73.5 -123.5 73.5 -209.5c0 -150.667 -56.333 -272.667 -169 -366s-262.334 -140 -449.001 -140c-143.333 0 -257.333 33 -342 99s-127 154 -127 264c0 62.667 16.333 114.5 49 155.5s73.667 61.5 123 61.5
c43.333 0 78.666 -13.5 105.999 -40.5s41 -61.5 41 -103.5c0 -26 -6 -49 -18 -69s-30.333 -38 -55 -54c-8 -5.33301 -19 -11.333 -33 -18c-24.667 -11.333 -37 -27 -37 -47c0 -39.333 28.667 -75.5 86 -108.5s124.333 -49.5 201 -49.5c111.333 0 203.666 42 276.999 126
s110 188.667 110 314c0 86 -21.333 149.5 -64 190.5s-108.667 61.5 -198 61.5h-203l22 99h168c124.667 0 220.667 31.333 288 94s101 151.334 101 266.001c0 68 -19.333 120.833 -58 158.5s-93 56.5 -163 56.5c-86.667 0 -165.834 -29.667 -237.501 -89
s-141.167 -153.333 -208.5 -282h-86l135 435h82l31 -76c50 37.333 101.333 65 154 83s107 27 163 27c116.667 0 212.334 -32.667 287.001 -98s112 -148.666 112 -249.999c0 -86.667 -33.167 -161.834 -99.5 -225.501s-162.833 -112.5 -289.5 -146.5z" />
    <glyph glyph-name="afii10026" unicode="&#x418;" horiz-adv-x="1706" 
d="M256 1479l642.999 -0.000976562l-20 -90l-120 -9c-25.333 -2 -44.666 -8.33301 -57.999 -19s-23 -28 -29 -52l-221 -854l849 759c2 8.66699 4.33301 19.667 7 33c8 42.667 12 70 12 82c0 21.333 -8.16699 36 -24.5 44s-53.5 12.667 -111.5 14l-75 2l18 90h641l-18 -90
l-119 -9c-26 -2 -45.833 -8.33301 -59.5 -19s-23.834 -28 -30.501 -52l-268 -1071c-4.66699 -17.333 -8.33398 -33.833 -11.001 -49.5s-4 -28.5 -4 -38.5c0 -22 8.16699 -36.833 24.5 -44.5s53.5 -12.167 111.5 -13.5l75 -2l-18 -90h-641l18 90l119 10
c26.667 2.66699 46.834 9.33398 60.501 20.001s23.5 28 29.5 52l217 858l-845 -751l-6 -26c-11.333 -52 -17 -86.333 -17 -103c0 -22 8.16699 -36.833 24.5 -44.5s53.5 -12.167 111.5 -13.5l75 -2l-18 -90h-639l16 90l120 10c25.333 2 44.833 8.5 58.5 19.5
s23.834 28.5 30.501 52.5l270 1071c5.33301 20 9.5 38 12.5 54s4.5 26.667 4.5 32c0 21.333 -8.16699 35.833 -24.5 43.5s-53.833 12.167 -112.5 13.5l-74 3z" />
    <glyph glyph-name="afii10027" unicode="&#x419;" horiz-adv-x="1706" 
d="M256 1479l642.999 -0.000976562l-20 -90l-120 -9c-25.333 -2 -44.666 -8.33301 -57.999 -19s-23 -28 -29 -52l-221 -854l849 759c2 8.66699 4.33301 19.667 7 33c8 42.667 12 70 12 82c0 21.333 -8.16699 36 -24.5 44s-53.5 12.667 -111.5 14l-75 2l18 90h641l-18 -90
l-119 -9c-26 -2 -45.833 -8.33301 -59.5 -19s-23.834 -28 -30.501 -52l-268 -1071c-4.66699 -17.333 -8.33398 -33.833 -11.001 -49.5s-4 -28.5 -4 -38.5c0 -22 8.16699 -36.833 24.5 -44.5s53.5 -12.167 111.5 -13.5l75 -2l-18 -90h-641l18 90l119 10
c26.667 2.66699 46.834 9.33398 60.501 20.001s23.5 28 29.5 52l217 858l-845 -751l-6 -26c-11.333 -52 -17 -86.333 -17 -103c0 -22 8.16699 -36.833 24.5 -44.5s53.5 -12.167 111.5 -13.5l75 -2l-18 -90h-639l16 90l120 10c25.333 2 44.833 8.5 58.5 19.5
s23.834 28.5 30.501 52.5l270 1071c5.33301 20 9.5 38 12.5 54s4.5 26.667 4.5 32c0 21.333 -8.16699 35.833 -24.5 43.5s-53.833 12.167 -112.5 13.5l-74 3zM884.999 1775c12.667 -16.667 33.332 -29.667 61.999 -39s63.334 -14 104.001 -14
c39.333 0 78.333 5.16699 117 15.5s73.667 25.166 105 44.499c-16 2.66699 -28.667 9.83398 -38 21.501s-14 26.834 -14 45.501c0 27.333 9 50.666 27 69.999s39.667 29 65 29c27.333 0 48.833 -8 64.5 -24s23.5 -37.333 23.5 -64c0 -52.667 -35.333 -99 -106 -139
s-155.667 -60 -255 -60c-77.333 0 -138.666 16.167 -183.999 48.5s-68 75.5 -68 129.5c0 30.667 9.66699 56.5 29 77.5s42.666 31.5 69.999 31.5c26 0 46.833 -8.16699 62.5 -24.5s23.5 -38.166 23.5 -65.499c0 -24.667 -8 -44.334 -24 -59.001s-37.333 -22.667 -64 -24z
" />
    <glyph glyph-name="afii10028" unicode="&#x41a;" horiz-adv-x="1538" 
d="M770 795c121.333 -14.667 209.665 -52.3301 264.998 -112.997s83 -150.667 83 -270c0 -19.333 -0.666992 -49.333 -2 -90s-2 -72.334 -2 -95.001c0 -44.667 5.33301 -77.334 16 -98.001s28 -31 52 -31c20 0 41.5 16.167 64.5 48.5s47.833 81.833 74.5 148.5l70 -31
c-33.333 -96 -75.166 -169.5 -125.499 -220.5s-106.166 -76.5 -167.499 -76.5c-70 0 -124 22 -162 66s-57 106.667 -57 188c0 43.333 3.66699 99.333 11 168s11 115 11 139c0 71.333 -19.5 121.666 -58.5 150.999s-111.5 44 -217.5 44h-105l-121 -488
c-6 -26 -10.167 -45.333 -12.5 -58s-3.5 -21.667 -3.5 -27c0 -22 7.66699 -36.833 23 -44.5s53.666 -12.167 114.999 -13.5l63 -2l-19 -90h-622l16 90l110 8c27.333 2.66699 47.833 9.5 61.5 20.5s23.5 28.167 29.5 51.5l282 1122c2.66699 8 4.33398 14.833 5.00098 20.5
l2 16.5c0 21.333 -8.33301 36 -25 44s-54 12.333 -112 13l-72 3l18 90h647l-18 -90l-126 -11c-26 -2 -45.833 -8.5 -59.5 -19.5s-23.5 -28.167 -29.5 -51.5l-129 -490h75c102.667 0 219 116 349 348l8 15c74 132.667 138.833 222.167 194.5 268.5s120.5 69.5 194.5 69.5
c72 0 130 -18.167 174 -54.5s66 -83.833 66 -142.5c0 -46 -12.667 -82.833 -38 -110.5s-59.333 -41.5 -102 -41.5s-76.167 10.5 -100.5 31.5s-36.5 49.5 -36.5 85.5c0 25.333 6.5 48.333 19.5 69s19.5 34 19.5 40c0 8 -4.16699 14.333 -12.5 19s-19.833 7 -34.5 7
c-34.667 0 -70.667 -21 -108 -63s-98.333 -138.333 -183 -289c-51.333 -92.667 -95.833 -158.5 -133.5 -197.5s-79.167 -64.5 -124.5 -76.5z" />
    <glyph glyph-name="afii10029" unicode="&#x41b;" horiz-adv-x="1610" 
d="M553 1479h1120l-20 -90l-120 -9c-25.333 -2 -44.666 -8.33301 -57.999 -19s-23 -28 -29 -52l-268 -1071c-5.33301 -19.333 -9.5 -36.666 -12.5 -51.999s-4.5 -26.666 -4.5 -33.999c0 -21.333 8.33301 -36 25 -44s54.334 -12.667 113.001 -14l73 -2l-16 -92h-641l18 92
l118 10c27.333 2.66699 47.5 9.16699 60.5 19.5s22.5 27.166 28.5 50.499l313 1217h-196c-116.667 0 -210 -105 -280 -315l-38 -111l-70 -212c-98 -294 -168.667 -479.333 -212 -556c-42.667 -75.333 -91.167 -132.166 -145.5 -170.499s-113.166 -57.5 -176.499 -57.5
c-72.667 0 -130.334 23 -173.001 69s-64 107.667 -64 185c0 74.667 19.833 136.334 59.5 185.001s89.167 73 148.5 73c36.667 0 68.834 -14 96.501 -42s41.5 -61.667 41.5 -101c0 -30 -8.5 -57.333 -25.5 -82s-39.167 -42.334 -66.5 -53.001c-6 -2 -17.333 -4.33301 -34 -7
c-48.667 -6 -73 -24.333 -73 -55c0 -18.667 9.66699 -34.834 29 -48.501s43 -20.5 71 -20.5c64 0 121.167 31.833 171.5 95.5s103.166 173.167 158.499 328.5c81.333 227.333 146.666 418.166 195.999 572.499s74 242.5 74 264.5c0 20 -8 34 -24 42s-53 12.333 -111 13
l-75 3z" />
    <glyph glyph-name="afii10030" unicode="&#x41c;" horiz-adv-x="1901" 
d="M201 1479h501l142 -1104l647 1104h451l-17 -90l-107 -11c-26.667 -2 -46.5 -8.5 -59.5 -19.5s-25.167 -37.833 -36.5 -80.5l-256 -1042v-4c-10.667 -46 -16 -73.333 -16 -82c0 -22 8.16699 -36.833 24.5 -44.5s53.5 -12.167 111.5 -13.5l75 -2l-19 -90h-641l19 90l121 8
c46.667 4 77.667 36 93 96l1 5l272 1099l-764 -1298h-61l-164 1257l-225 -898c-0.666992 -4 -2 -10 -4 -18c-11.333 -47.333 -17 -81 -17 -101c0 -48.667 16.5 -85 49.5 -109s85.5 -37.667 157.5 -41l-10 -90h-561l16 90c76 10 132 31.333 168 64s64.667 90.667 86 174
l250 985c-10 23.333 -24 40.5 -42 51.5s-43.333 17.5 -76 19.5l-122 9z" />
    <glyph glyph-name="afii10031" unicode="&#x41d;" horiz-adv-x="1706" 
d="M256 1479l642.999 -0.000976562l-20 -90l-120 -9c-25.333 -2 -44.666 -8.33301 -57.999 -19s-23 -28 -29 -52l-125 -490h651l107 425c4 16.667 7.33301 33 10 49s4 28 4 36c0 21.333 -8.16699 36 -24.5 44s-53.5 12.667 -111.5 14l-75 2l18 90h641l-18 -90l-119 -9
c-26 -2 -45.833 -8.33301 -59.5 -19s-23.834 -28 -30.501 -52l-268 -1071c-4.66699 -17.333 -8.33398 -33.833 -11.001 -49.5s-4 -28.5 -4 -38.5c0 -22 8.16699 -36.833 24.5 -44.5s53.5 -12.167 111.5 -13.5l75 -2l-18 -90h-641l18 90l119 10
c26.667 2.66699 46.834 9.33398 60.501 20.001s23.5 28 29.5 52l138 547h-652l-121 -481c-4.66699 -18.667 -8.5 -36 -11.5 -52s-4.5 -28 -4.5 -36c0 -22 8.16699 -36.833 24.5 -44.5s53.5 -12.167 111.5 -13.5l75 -2l-18 -90h-639l16 90l120 10
c25.333 2 44.833 8.5 58.5 19.5s23.834 28.5 30.501 52.5l270 1071c5.33301 20 9.5 38 12.5 54s4.5 26.667 4.5 32c0 21.333 -8.16699 35.833 -24.5 43.5s-53.833 12.167 -112.5 13.5l-74 3z" />
    <glyph glyph-name="afii10032" unicode="&#x41e;" horiz-adv-x="1593" 
d="M1266 1047c0 123.333 -28.502 216.835 -85.502 280.502s-140.5 95.5 -250.5 95.5c-88 0 -167.5 -26.333 -238.5 -79s-133.5 -131.334 -187.5 -236.001c-55.333 -107.333 -99.166 -222.833 -131.499 -346.5s-48.5 -234.834 -48.5 -333.501
c0 -122 27.833 -214.333 83.5 -277s137.5 -94 245.5 -94c94.667 0 178.834 28.333 252.501 85s139.167 143 196.5 259c50 103.333 89.833 213.5 119.5 330.5s44.5 222.167 44.5 315.5zM937.998 1520c168 0 304.832 -55.499 410.499 -166.499s158.5 -254.833 158.5 -431.5
c0 -122.667 -25.667 -246.334 -77 -371.001s-121.666 -234.667 -210.999 -330c-80.667 -84 -169 -148 -265 -192s-195.667 -66 -299 -66c-172.667 0 -310.334 54 -413.001 162s-154 253.333 -154 436c0 128 25.167 253.167 75.5 375.5s121.5 231.5 213.5 327.5
c78.667 82 166.334 145.167 263.001 189.5s196 66.5 298 66.5z" />
    <glyph glyph-name="afii10033" unicode="&#x41f;" horiz-adv-x="1706" 
d="M256 1479l1511 -0.00195312l-18 -90l-119 -9c-26 -2 -45.833 -8.33301 -59.5 -19s-23.834 -28 -30.501 -52l-268 -1071c-4.66699 -17.333 -8.33398 -33.833 -11.001 -49.5s-4 -28.5 -4 -38.5c0 -22 8.16699 -36.833 24.5 -44.5s53.5 -12.167 111.5 -13.5l75 -2l-18 -90
h-641l18 90l119 10c26.667 2.66699 46.834 9.33398 60.501 20.001s23.5 28 29.5 52l269 1072c4 16.667 7.33301 33 10 49s4 28 4 36c0 22.667 -9 37.834 -27 45.501s-54 11.5 -108 11.5h-424c-23.333 0 -42.333 -6.33301 -57 -19s-25 -32 -31 -58l-271 -1071
c-4.66699 -18.667 -8.5 -36 -11.5 -52s-4.5 -28 -4.5 -36c0 -22 8.16699 -36.833 24.5 -44.5s53.5 -12.167 111.5 -13.5l75 -2l-18 -90h-639l16 90l120 10c25.333 2 44.833 8.5 58.5 19.5s23.834 28.5 30.501 52.5l270 1071c5.33301 20 9.5 38 12.5 54s4.5 26.667 4.5 32
c0 21.333 -8.16699 35.833 -24.5 43.5s-53.833 12.167 -112.5 13.5l-74 3z" />
    <glyph glyph-name="afii10034" unicode="&#x420;" horiz-adv-x="1370" 
d="M672 745c166 0 285.667 32.332 359 96.999s110 168.334 110 311.001c0 87.333 -22.5 148.5 -67.5 183.5s-125.833 52.5 -242.5 52.5c-60.667 0 -101 -8.5 -121 -25.5s-36 -49.5 -48 -97.5l-134 -521h144zM256 1479l519.999 -0.000976562
c92.667 0 162.334 -2.5 209.001 -7.5s87.667 -12.833 123 -23.5c83.333 -26 147.833 -68.833 193.5 -128.5s68.5 -130.834 68.5 -213.501c0 -73.333 -16.667 -140.333 -50 -201s-81.333 -111.667 -144 -153c-54 -35.333 -113.5 -60.666 -178.5 -75.999
s-159.833 -23 -284.5 -23h-82h-125l-105 -417c-4.66699 -19.333 -8.5 -36.666 -11.5 -51.999s-4.5 -26.666 -4.5 -33.999c0 -22 8 -36.833 24 -44.5s53.333 -12.167 112 -13.5l93 -2l-16 -90h-659l16 90l121 8c47.333 4 79.333 37 96 99v2l262 1042
c5.33301 19.333 9.5 37.166 12.5 53.499s4.5 27.833 4.5 34.5c0 21.333 -8.16699 35.833 -24.5 43.5s-53.833 12.167 -112.5 13.5l-74 3z" />
    <glyph glyph-name="afii10035" unicode="&#x421;" horiz-adv-x="1432" 
d="M1194 455l84.0039 -39c-70.667 -157.333 -155.5 -272.166 -254.5 -344.499s-220.5 -108.5 -364.5 -108.5c-176.667 0 -316.334 54.667 -419.001 164s-154 258 -154 446c0 132 24.5 258.833 73.5 380.5s119.5 231.167 211.5 328.5c73.333 76.667 154 135.167 242 175.5
s179.333 60.5 274 60.5c77.333 0 145.166 -14.167 203.499 -42.5s111.166 -72.5 158.499 -132.5l127 136h66l-111 -586h-82v68c0 144.667 -32.167 259 -96.5 343s-152.166 126 -263.499 126c-72.667 0 -140.334 -21.333 -203.001 -64s-119.334 -105.334 -170.001 -188.001
c-58.667 -96.667 -105 -206.5 -139 -329.5s-51 -243.5 -51 -361.5c0 -134.667 32 -239.667 96 -315s153.333 -113 268 -113c108.667 0 205 33 289 99s155.667 165 215 297z" />
    <glyph glyph-name="afii10036" unicode="&#x422;" horiz-adv-x="1446" 
d="M274 1479h1207l-82 -566l-84 1c2 38.667 3.5 71 4.5 97s1.5 46.667 1.5 62c0 110.667 -20.833 191 -62.5 241s-108.167 75 -199.5 75c-34 0 -58.667 -5.33301 -74 -16s-29 -39 -41 -85l-270 -1052c-6 -24 -10 -42.167 -12 -54.5s-3 -22.833 -3 -31.5
c0 -21.333 8.33301 -36 25 -44s54.334 -12.667 113.001 -14l86 -2l-6 -90h-697l21 90l145 8c48.667 2.66699 80.667 35.667 96 99v2l269 1052c6 25.333 10.167 44 12.5 56s3.5 20.667 3.5 26c0 20.667 -6.83301 35.5 -20.5 44.5s-36.167 13.5 -67.5 13.5
c-94 0 -173 -30.167 -237 -90.5s-140.667 -184.5 -230 -372.5l-74 26z" />
    <glyph glyph-name="afii10037" unicode="&#x423;" horiz-adv-x="1419" 
d="M819 305c-74 -127.333 -146.666 -216.5 -217.999 -267.5s-155 -76.5 -251 -76.5c-90 0 -161.667 25.833 -215 77.5s-80 120.834 -80 207.501c0 70.667 20.167 130.667 60.5 180s89.166 74 146.499 74c39.333 0 72.666 -13.833 99.999 -41.5s41 -61.167 41 -100.5
c0 -46 -15.333 -82 -46 -108s-74 -39 -130 -39c-8 0 -15 -3.16699 -21 -9.5s-9 -14.833 -9 -25.5c0 -33.333 15 -60.833 45 -82.5s68 -32.5 114 -32.5c66.667 0 127.334 20.833 182.001 62.5s106 105.5 154 191.5l-381 949c-22 54.667 -45 88.667 -69 102
s-64.333 21 -121 23v90h602v-90l-109 -7c-36.667 -2 -62.167 -8 -76.5 -18s-21.5 -26.333 -21.5 -49c0 -6.66699 1.66699 -15.5 5 -26.5s8 -23.5 14 -37.5l292 -708l406 680c8 14 14 28 18 42s6 27.333 6 40c0 30 -12 51.167 -36 63.5s-76.667 19.166 -158 20.499l12 90h516
l-10 -90c-55.333 -11.333 -101 -31.5 -137 -60.5s-77.667 -84.833 -125 -167.5z" />
    <glyph glyph-name="afii10038" unicode="&#x424;" horiz-adv-x="1729" 
d="M864 346h19c159.333 0 288.5 48 387.5 144s148.5 219.333 148.5 370c0 90.667 -29.5 161.5 -88.5 212.5s-145.5 80.5 -259.5 88.5zM657 344l206.999 814.999h-14c-160.667 0 -291 -47.333 -391 -142s-150 -216 -150 -364c0 -95.333 28.833 -168.666 86.5 -219.999
s144.834 -81 261.501 -89zM636.999 263.999c-181.333 10 -321.168 51.499 -419.501 124.499s-147.5 170.833 -147.5 293.5c0 165.333 73.833 300.5 221.5 405.5s341.167 157.5 580.5 157.5h19l4 25l5.5 37.5c1.66699 11.667 2.5 18.834 2.5 21.501
c0 21.333 -8.33301 36 -25 44s-54.334 12.667 -113.001 14l-81 2l18 90h619l-18 -90l-107 -9c-26.667 -2 -47 -8.5 -61 -19.5s-23.667 -28.167 -29 -51.5l-14 -68c180.667 -10 320 -51.333 418 -124s147 -170.667 147 -294c0 -164.667 -73.667 -299.667 -221 -405
s-340.666 -158 -579.999 -158h-18l-4 -22c-2 -8 -5.33301 -22.167 -10 -42.5s-7 -35.5 -7 -45.5c0 -22 8.16699 -36.833 24.5 -44.5s54.166 -12.167 113.499 -13.5l73 -2l-16 -90h-625l16 90l121 10c26.667 2.66699 46.834 9.5 60.501 20.5s23.834 28.5 30.501 52.5z" />
    <glyph glyph-name="afii10039" unicode="&#x425;" horiz-adv-x="1434" 
d="M221 1479h592.003v-90l-70 -3h-4c-36.667 0 -62.5 -4 -77.5 -12s-22.5 -21.667 -22.5 -41c0 -8 1.66699 -17.5 5 -28.5s9.33301 -25.167 18 -42.5l151 -357l307 318c17.333 16.667 29.166 31.834 35.499 45.501s9.5 29.167 9.5 46.5c0 25.333 -12.5 44 -37.5 56
s-65.5 18 -121.5 18l20 90h543l-21 -90c-48 -6.66699 -93.5 -21.834 -136.5 -45.501s-86.167 -57.834 -129.5 -102.501l-426 -434l256 -590c18.667 -44 38.167 -74.5 58.5 -91.5s56.166 -26.833 107.499 -29.5l74 -6v-90h-654v90l99 4c45.333 1.33301 74 5.33301 86 12
s18 17.667 18 33c0 14 -4.66699 31.667 -14 53c-1.33301 2.66699 -2 4.33398 -2 5.00098l-191 446l-297 -307c-37.333 -38 -63.333 -68.667 -78 -92s-22 -45.333 -22 -66c0 -30 12.667 -52.167 38 -66.5s65.333 -21.5 120 -21.5h12v-90h-590l14 90
c53.333 8 104.666 27.333 153.999 58s113 85.667 191 165l417 428l-235 545c-15.333 36 -30 59.333 -44 70s-44.333 18.667 -91 24l-62 9v90z" />
    <glyph glyph-name="afii10040" unicode="&#x426;" horiz-adv-x="1712" 
d="M256 1479l642.998 -0.00292969l-20 -90l-120 -9c-25.333 -2 -44.666 -8.33301 -57.999 -19s-23 -28 -29 -52l-271 -1071c-4.66699 -18.667 -8.5 -36 -11.5 -52s-4.5 -28 -4.5 -36c0 -23.333 9.33301 -39.166 28 -47.499s54.334 -12.5 107.001 -12.5h406
c33.333 0 58 5.83301 74 17.5s28 33.167 36 64.5l269 1072c4 16.667 7.33301 32.834 10 48.501s4 27.834 4 36.501c0 21.333 -8.16699 36 -24.5 44s-53.5 12.667 -111.5 14l-75 2l18 90h641l-18 -90l-119 -9c-26 -2 -45.833 -8.33301 -59.5 -19s-23.834 -28 -30.501 -52
l-268 -1071c-5.33301 -18.667 -9.5 -36 -12.5 -52s-4.5 -28 -4.5 -36c0 -22 8.16699 -36.833 24.5 -44.5s53.5 -12.167 111.5 -13.5l75 -2l-123 -506h-69c0 182.667 -23.667 297.667 -71 345s-153.333 71 -318 71h-946l16 90l120 10c25.333 2 44.833 8.5 58.5 19.5
s23.834 28.5 30.501 52.5l270 1071c5.33301 20 9.5 38 12.5 54s4.5 26.667 4.5 32c0 21.333 -8.16699 35.833 -24.5 43.5s-53.833 12.167 -112.5 13.5l-74 3z" />
    <glyph glyph-name="afii10041" unicode="&#x427;" horiz-adv-x="1460" 
d="M127 1479h605.999l-22 -95l-97 -4c-26.667 -1.33301 -47 -7.83301 -61 -19.5s-26.333 -38.5 -37 -80.5l-88 -348c-5.33301 -20 -9.33301 -39.167 -12 -57.5s-4 -34.166 -4 -47.499c0 -55.333 15.667 -96 47 -122s81 -39 149 -39c35.333 0 77.666 4.5 126.999 13.5
s114.333 24.833 195 47.5l131 516c6 24 10.167 42.167 12.5 54.5s3.5 22.833 3.5 31.5c0 21.333 -7.66699 35.833 -23 43.5s-53 12.167 -113 13.5l-73 3l19 90h616l-20 -90l-97 -9c-26 -2 -45.833 -8.33301 -59.5 -19s-23.834 -28.334 -30.501 -53.001l-272 -1070
c-6.66699 -29.333 -11 -49.833 -13 -61.5s-3 -20.5 -3 -26.5c0 -22 7.66699 -36.833 23 -44.5s53.333 -12.167 114 -13.5l65 -2l-18 -90h-623l19 90l110 10c26.667 2.66699 46.834 9.5 60.501 20.5s23.834 28.5 30.501 52.5l112 452
c-81.333 -24 -152.666 -41.667 -213.999 -53s-116.333 -17 -165 -17c-102.667 0 -182.5 22.333 -239.5 67s-85.5 107 -85.5 187c0 27.333 5.66699 68 17 122c2 10 3.66699 17.667 5 23l66 290l2 7c9.33301 38 14 64.667 14 80c0 32.667 -42.667 51 -128 55h-9l-62 3z" />
    <glyph glyph-name="afii10042" unicode="&#x428;" horiz-adv-x="2136" 
d="M297 1479l559.004 0.00488281l-22 -88l-91 -15c-20.667 -2.66699 -36.834 -9.83398 -48.501 -21.501s-20.5 -29.834 -26.5 -54.501l-271 -1062c-4.66699 -18.667 -8.5 -36 -11.5 -52s-4.5 -28 -4.5 -36c0 -22.667 10.167 -38.334 30.5 -47.001s55.833 -13 106.5 -13h174
c38.667 0 66.5 5.83301 83.5 17.5s29.5 33.167 37.5 64.5l275 1084c3.33301 12 5.83301 24.5 7.5 37.5s2.5 26.833 2.5 41.5c0 16.667 -5.83301 28.5 -17.5 35.5s-40.167 11.5 -85.5 13.5l-61 5l18 90h551l-20 -88l-90 -15c-21.333 -2.66699 -37.833 -9.83398 -49.5 -21.501
s-20.5 -29.834 -26.5 -54.501l-268 -1062c-4.66699 -16.667 -8.33398 -33 -11.001 -49s-4 -29 -4 -39c0 -22.667 10 -38.334 30 -47.001s55 -13 105 -13h181c33.333 0 58.333 6 75 18s29 33.333 37 64l279 1084c3.33301 12 5.83301 24.5 7.5 37.5s2.5 26.833 2.5 41.5
c0 16.667 -5.83301 28.5 -17.5 35.5s-39.834 11.5 -84.501 13.5l-64 5l17 90h559l-21 -88l-92 -15c-20.667 -2.66699 -36.5 -9.5 -47.5 -20.5s-19.833 -29.5 -26.5 -55.5l-276 -1062c-4 -16.667 -7.5 -33.667 -10.5 -51s-4.5 -29.666 -4.5 -36.999c0 -22 7 -36.833 21 -44.5
s49 -12.167 105 -13.5l67 -2l-14 -90h-1905l18 90l108 10c24 2 42.333 8.66699 55 20s22 29.333 28 54l268 1081c3.33301 12 5.83301 24.5 7.5 37.5s2.5 27.167 2.5 42.5c0 16.667 -5.83301 28.5 -17.5 35.5s-39.834 11.5 -84.501 13.5l-61 5z" />
    <glyph glyph-name="afii10043" unicode="&#x429;" horiz-adv-x="2136" 
d="M297 1479l559.003 0.00585938l-22 -88l-91 -15c-20.667 -2.66699 -36.834 -9.83398 -48.501 -21.501s-20.5 -29.834 -26.5 -54.501l-271 -1062c-4.66699 -18.667 -8.5 -36 -11.5 -52s-4.5 -28 -4.5 -36c0 -22.667 10.167 -38.334 30.5 -47.001s55.833 -13 106.5 -13h174
c38.667 0 66.5 5.83301 83.5 17.5s29.5 33.167 37.5 64.5l275 1084c3.33301 12 5.83301 24.5 7.5 37.5s2.5 26.833 2.5 41.5c0 16.667 -5.83301 28.5 -17.5 35.5s-40.167 11.5 -85.5 13.5l-61 5l18 90h551l-20 -88l-90 -15c-21.333 -2.66699 -37.833 -9.83398 -49.5 -21.501
s-20.5 -29.834 -26.5 -54.501l-268 -1062c-4.66699 -16.667 -8.33398 -33 -11.001 -49s-4 -29 -4 -39c0 -22.667 10 -38.334 30 -47.001s55 -13 105 -13h181c33.333 0 58.333 6 75 18s29 33.333 37 64l279 1084c3.33301 12 5.83301 24.5 7.5 37.5s2.5 26.833 2.5 41.5
c0 16.667 -5.83301 28.5 -17.5 35.5s-39.834 11.5 -84.501 13.5l-64 5l17 90h559l-21 -88l-92 -15c-20.667 -2.66699 -36.5 -9.5 -47.5 -20.5s-19.833 -29.5 -26.5 -55.5l-278 -1062c-5.33301 -20 -9.5 -38 -12.5 -54s-4.5 -27.333 -4.5 -34c0 -22 8.33301 -36.833 25 -44.5
s54.334 -12.167 113.001 -13.5l75 -2l-125 -506h-69c0 182.667 -23.667 297.667 -71 345s-153.333 71 -318 71h-1352l18 90l108 10c24 2 42.333 8.66699 55 20s22 29.333 28 54l268 1081c3.33301 12 5.83301 24.5 7.5 37.5s2.5 27.167 2.5 42.5
c0 16.667 -5.83301 28.5 -17.5 35.5s-39.834 11.5 -84.501 13.5l-61 5z" />
    <glyph glyph-name="afii10044" unicode="&#x42a;" horiz-adv-x="1716" 
d="M793 731l-121.001 -495c-6.66699 -26.667 -11.167 -46.334 -13.5 -59.001s-3.5 -21.667 -3.5 -27c0 -24 11.5 -40 34.5 -48s79.167 -12 168.5 -12s160.333 6.33301 213 19s97 33.667 133 63c40.667 33.333 73.334 77.833 98.001 133.5s37 113.5 37 173.5
c0 90.667 -25.5 155.334 -76.5 194.001s-140.833 58 -269.5 58h-200zM224.999 1479l944.001 -0.00195312l-20 -90l-119 -9c-26 -2 -45.833 -8.33301 -59.5 -19s-23.834 -28 -30.501 -52l-125 -488h135c126.667 0 220.334 -4 281.001 -12s111 -21.667 151 -41
c62.667 -29.333 110.5 -70 143.5 -122s49.5 -112.333 49.5 -181c0 -140 -47 -252.5 -141 -337.5s-218.333 -127.5 -373 -127.5h-852l16 90l121 8c27.333 2 47.666 9 60.999 21s25 38.667 35 80l263 1043c4 16.667 7.33301 33 10 49s4 28.667 4 38
c0 20.667 -8 35.834 -24 45.501s-41.667 14.5 -77 14.5c-98 0 -184.667 -32.667 -260 -98s-135.333 -159.666 -180 -282.999h-76z" />
    <glyph glyph-name="afii10045" unicode="&#x42b;" horiz-adv-x="2195" 
d="M522 731l-121.001 -496.001c-6 -26 -10.167 -45.333 -12.5 -58s-3.5 -21.667 -3.5 -27c0 -24 11.667 -40 35 -48s80 -12 170 -12c88.667 0 159 6.33301 211 19s96.333 33.667 133 63c40.667 33.333 73.334 77.833 98.001 133.5s37 113.5 37 173.5
c0 90.667 -25.667 155.334 -77 194.001s-141 58 -269 58h-201zM1618 1479h618.001l-18 -90l-97 -9c-26 -2 -45.833 -8.5 -59.5 -19.5s-23.5 -28.167 -29.5 -51.5l-273 -1071c-6.66699 -29.333 -11 -49.833 -13 -61.5s-3 -20.5 -3 -26.5c0 -22 7.66699 -36.833 23 -44.5
s53.666 -12.167 114.999 -13.5l63 -2l-17 -90h-624l16 90l110 10c27.333 2.66699 47.833 9.5 61.5 20.5s23.5 28.167 29.5 51.5l272 1071c6.66699 24.667 11 43 13 55s3 22.333 3 31c0 21.333 -7.83301 36 -23.5 44s-53.167 12.333 -112.5 13l-73 3zM256 1479
l642.999 0.000976562l-20 -90l-120 -9c-25.333 -2 -44.666 -8.33301 -57.999 -19s-23 -28 -29 -52l-127 -488h137c126.667 0 220.167 -4 280.5 -12s110.833 -21.667 151.5 -41c62 -28.667 109.333 -69 142 -121s49 -112.667 49 -182
c0 -140.667 -46.833 -253.334 -140.5 -338.001s-217.5 -127 -371.5 -127h-854l16 90l120 8c28 2 48.667 9 62 21s25 38.667 35 80l262 1042c5.33301 20 9.5 38 12.5 54s4.5 27.333 4.5 34c0 21.333 -8.16699 35.833 -24.5 43.5s-53.833 12.167 -112.5 13.5l-74 3z" />
    <glyph glyph-name="afii10046" unicode="&#x42c;" horiz-adv-x="1446" 
d="M522 731l-123 -496.001c-4.66699 -19.333 -8.16699 -36.5 -10.5 -51.5s-3.5 -26.167 -3.5 -33.5c0 -24 11.333 -40 34 -48s79 -12 169 -12c89.333 0 160.166 6.33301 212.499 19s96.833 33.667 133.5 63c40.667 33.333 73.334 77.833 98.001 133.5s37 113.5 37 173.5
c0 90.667 -25.667 155.334 -77 194.001s-141 58 -269 58h-201zM256 1479l640.998 0.000976562l-18 -90l-120 -9c-26 -2 -45.667 -8.33301 -59 -19s-23.333 -28 -30 -52l-125 -488h135c126.667 0 220.167 -4 280.5 -12s110.833 -21.667 151.5 -41
c62 -28.667 109.333 -69 142 -121s49 -112.667 49 -182c0 -140.667 -46.833 -253.334 -140.5 -338.001s-217.5 -127 -371.5 -127h-852l16 90l118 8c28.667 2 49.834 9.16699 63.501 21.5s25.5 38.833 35.5 79.5l262 1042c4.66699 18 8.16699 34.667 10.5 50
s3.83301 28 4.5 38c0 21.333 -8.16699 36 -24.5 44s-53.166 12.333 -110.499 13l-76 3z" />
    <glyph glyph-name="afii10047" unicode="&#x42d;" horiz-adv-x="1432" 
d="M1059 729h-550.999l24 100h553c10.667 53.333 18.5 100.333 23.5 141s7.5 75 7.5 103c0 105.333 -26.5 189 -79.5 251s-124.167 93 -213.5 93c-104.667 0 -208.5 -46.167 -311.5 -138.5s-193.5 -220.833 -271.5 -385.5h-80l180 586h66l59 -136
c78 61.333 149.667 105 215 131s133.666 39 204.999 39c141.333 0 253.5 -48.333 336.5 -145s124.5 -227.667 124.5 -393c0 -134.667 -27.167 -269.667 -81.5 -405s-128.5 -252.333 -222.5 -351c-82 -86 -173.167 -150.167 -273.5 -192.5s-211.833 -63.5 -334.5 -63.5
c-134 0 -241.833 33 -323.5 99s-122.5 152.667 -122.5 260c0 62.667 16.333 114.5 49 155.5s73.667 61.5 123 61.5c42.667 0 77.5 -13.5 104.5 -40.5s40.5 -61.5 40.5 -103.5c0 -26.667 -5.83301 -50 -17.5 -70s-29.834 -37.667 -54.501 -53
c-8 -5.33301 -19 -11.333 -33 -18c-25.333 -12 -38 -27.667 -38 -47c0 -38 26.833 -73.167 80.5 -105.5s116.834 -48.5 189.501 -48.5c152.667 0 283 58.167 391 174.5s186.667 283.5 236 501.5z" />
    <glyph glyph-name="afii10048" unicode="&#x42e;" horiz-adv-x="2173" 
d="M737 718l-215.001 0.999023l-121 -481c-4.66699 -18.667 -8.5 -36 -11.5 -52s-4.5 -28 -4.5 -36c0 -22 8.16699 -36.833 24.5 -44.5s53.5 -12.167 111.5 -13.5l75 -2l-18 -90h-639l16 90l120 10c25.333 2 44.833 8.5 58.5 19.5s23.834 28.5 30.501 52.5l270 1071
c5.33301 20 9.5 38 12.5 54s4.5 26.667 4.5 32c0 21.333 -8.16699 35.833 -24.5 43.5s-53.833 12.167 -112.5 13.5l-74 3l16 90h643l-20 -90l-120 -9c-25.333 -2 -44.666 -8.33301 -57.999 -19s-23 -28 -29 -52l-125 -490h215c66 212 171.333 381.167 316 507.5
s303.334 189.5 476.001 189.5c155.333 0 282.333 -54.167 381 -162.5s148 -247.5 148 -417.5c0 -123.333 -25.333 -248.833 -76 -376.5s-119.667 -239.167 -207 -334.5c-76.667 -84.667 -162.334 -149.5 -257.001 -194.5s-192 -67.5 -292 -67.5
c-160.667 0 -288.834 52 -384.501 156s-143.5 244 -143.5 420c0 29.333 1.16699 58.833 3.5 88.5s5.83301 59.834 10.5 90.501zM1839 1063c0 116 -25.001 204.667 -75.001 266s-122.667 92 -218 92c-82.667 0 -158.667 -27.333 -228 -82s-129.666 -135 -180.999 -241
c-54.667 -112 -98.167 -231 -130.5 -357s-48.5 -237.667 -48.5 -335c0 -112.667 24.667 -198.334 74 -257.001s121 -88 215 -88c89.333 0 169.5 28.833 240.5 86.5s134.167 145.167 189.5 262.5c50 105.333 89.5 216.833 118.5 334.5s43.5 223.834 43.5 318.501z" />
    <glyph glyph-name="afii10049" unicode="&#x42f;" horiz-adv-x="1546" 
d="M1194 1280c2.66699 10 4.66797 19.166 6.00098 27.499s2 15.5 2 21.5c0 22.667 -7.66699 38.334 -23 47.001s-49.333 13 -102 13c-88.667 0 -157.834 -6 -207.501 -18s-93.167 -31.333 -130.5 -58c-45.333 -33.333 -82.833 -79 -112.5 -137s-44.5 -114 -44.5 -168
c0 -70 26.167 -119.333 78.5 -148s150.833 -43 295.5 -43h121zM1100 1479l561.001 0.000976562l-14 -90l-53 -2c-76.667 -3.33301 -124.167 -12.833 -142.5 -28.5s-35.166 -54.834 -50.499 -117.501l-256 -1042c-3.33301 -12 -5.83301 -22.667 -7.5 -32
s-2.5 -17.333 -2.5 -24c0 -14 4.5 -24.667 13.5 -32s22.833 -11.666 41.5 -12.999l119 -8l-17 -90h-594l15 90l52 2c59.333 2 98.5 11 117.5 27s36.167 55 51.5 117l121 487h-160c-81.333 0 -145.333 -17.167 -192 -51.5s-92.667 -107.166 -138 -218.499
c-85.333 -213.333 -155.833 -348.333 -211.5 -405s-126.5 -85 -212.5 -85c-55.333 0 -96.833 18.167 -124.5 54.5s-41.5 91.166 -41.5 164.499c0 19.333 4 52.666 12 99.999l1 7l75 12c-1.33301 -12 -2.33301 -21.333 -3 -28s-1 -13 -1 -19c0 -65.333 4.5 -108 13.5 -128
s25.167 -30 48.5 -30c41.333 0 88.666 62.333 141.999 187c33.333 79.333 62.333 142.666 87 189.999c41.333 80.667 90.166 142.334 146.499 185.001s130.833 74.667 223.5 96c-128.667 3.33301 -223.167 25.333 -283.5 66s-90.5 102.667 -90.5 186
c0 138.667 65.667 252.167 197 340.5s307.333 132.5 528 132.5h29z" />
    <glyph glyph-name="afii10065" unicode="&#x430;" horiz-adv-x="1135" 
d="M186 281c0 -64 15.333 -113.832 46 -149.499s72.667 -53.5 126 -53.5c48 0 92.667 16.333 134 49s77.333 79.667 108 141c28.667 56.667 52.834 124.167 72.501 202.5s29.5 144.166 29.5 197.499c0 61.333 -14.833 109.333 -44.5 144s-70.5 52 -122.5 52
c-46 0 -89.833 -16.333 -131.5 -49s-79.167 -79.667 -112.5 -141c-30.667 -57.333 -55.834 -123 -75.501 -197s-29.5 -139.333 -29.5 -196zM608 139.001c-44 -55.333 -93.168 -97.835 -147.501 -127.502s-110.166 -44.5 -167.499 -44.5c-85.333 0 -155.5 32 -210.5 96
s-82.5 146 -82.5 246c-0 81.333 14.333 162.166 43 242.499s69 153.833 121 220.5c49.333 63.333 104 111.666 164 144.999s122.667 50 188 50c61.333 0 113 -16.667 155 -50s72.333 -81.666 91 -144.999l61 162h164l-47 -127
c-54 -149.333 -98.167 -288.666 -132.5 -417.999s-51.5 -210.666 -51.5 -243.999c0 -21.333 3.5 -37.5 10.5 -48.5s17.833 -16.5 32.5 -16.5c22 0 51.333 22 88 66s78.334 107.333 125.001 190l59 -35c-60.667 -113.333 -117.334 -195.666 -170.001 -246.999
s-106.667 -77 -162 -77c-42.667 0 -75.167 12 -97.5 36s-33.5 58.667 -33.5 104v22z" />
    <glyph glyph-name="afii10066" unicode="&#x431;" horiz-adv-x="1022" 
d="M539 893c-46.667 0 -91 -15.001 -133 -45.001s-79 -73 -111 -129c-34 -59.333 -62 -131.666 -84 -216.999s-33 -166 -33 -242c0 -68.667 16.167 -122 48.5 -160s77.5 -57 135.5 -57c49.333 0 94.833 14.5 136.5 43.5s78.167 71.167 109.5 126.5
c35.333 63.333 64 137 86 221s33 161.333 33 232c0 72.667 -16.333 128.667 -49 168s-79 59 -139 59zM160 755.999c64.667 74.667 127.168 128.831 187.501 162.498s124.833 50.5 193.5 50.5c109.333 0 198 -35.667 266 -107s102 -164.666 102 -279.999
c0 -74 -13.167 -147.5 -39.5 -220.5s-62.833 -136.833 -109.5 -191.5c-57.333 -68 -118.666 -119.167 -183.999 -153.5s-134.333 -51.5 -207 -51.5c-116 0 -207.5 35.833 -274.5 107.5s-100.5 169.167 -100.5 292.5c0 88 16.167 188.5 48.5 301.5
s76.833 221.833 133.5 326.5c48 89.333 99.667 163 155 221s113.666 100.333 174.999 127c60 27.333 138.167 43.833 234.5 49.5s154.166 11.834 173.499 18.501c18.667 7.33301 34 18 46 32s24.333 38 37 72h72c-13.333 -63.333 -29.166 -114.333 -47.499 -153
s-40.833 -68.667 -67.5 -90c-41.333 -34.667 -132 -56 -272 -64l-84 -6c-98 -8 -181.333 -46.5 -250 -115.5s-131.334 -178.5 -188.001 -328.5z" />
    <glyph glyph-name="afii10067" unicode="&#x432;" horiz-adv-x="999" 
d="M219 432c164.667 56 282.333 110.334 353 163.001s106 111.667 106 177c0 34 -10.667 61.333 -32 82s-49.666 31 -84.999 31c-78 0 -146.833 -39.333 -206.5 -118s-104.834 -190.334 -135.501 -335.001zM210.999 356.001c-2 -18 -3.5 -34.999 -4.5 -50.999
s-1.5 -31 -1.5 -45c0 -70.667 16.167 -124.834 48.5 -162.501s78.833 -56.5 139.5 -56.5c74 0 134.5 22 181.5 66s70.5 99 70.5 165c0 53.333 -12.333 94.333 -37 123s-60 43 -106 43c-32.667 0 -71 -6 -115 -18s-102.667 -33.333 -176 -64zM573.999 510.002
c80.667 -1.33301 142.667 -19.0029 186 -53.0029s65 -82 65 -144c0 -98.667 -42.667 -181.667 -128 -249s-192.666 -101 -321.999 -101c-102.667 0 -186 34.833 -250 104.5s-96 159.834 -96 270.501c0 84.667 20.5 169.834 61.5 255.501s98.167 161.5 171.5 227.5
c50.667 45.333 105.167 80.333 163.5 105s116.5 37 174.5 37c72.667 0 131.5 -18.333 176.5 -55s67.5 -84 67.5 -142c0 -54.667 -22.333 -103.167 -67 -145.5s-112.334 -79.166 -203.001 -110.499z" />
    <glyph glyph-name="afii10068" unicode="&#x433;" horiz-adv-x="924" 
d="M621 246l52.998 -43.0039c-64 -83.333 -127.5 -144.166 -190.5 -182.499s-130.5 -57.5 -202.5 -57.5s-128 17.833 -168 53.5s-60 85.5 -60 149.5c0 47.333 13.667 89.5 41 126.5s87.333 86.167 180 147.5c122.667 81.333 199.834 140.833 231.501 178.5
s47.5 77.834 47.5 120.501c0 30.667 -12.167 57.5 -36.5 80.5s-53.166 34.5 -86.499 34.5c-42.667 0 -85 -12.833 -127 -38.5s-86.333 -66.167 -133 -121.5l-47 39c50.667 76 109.334 134.667 176.001 176s137 62 211 62c62 0 112.667 -17.667 152 -53s59 -80 59 -134
c0 -84 -88.333 -190.333 -265 -319c-18.667 -13.333 -32.667 -23.666 -42 -30.999c-62.667 -45.333 -108.834 -88 -138.501 -128s-44.5 -79.333 -44.5 -118c0 -33.333 10.667 -60.666 32 -81.999s49 -32 83 -32c42 0 87 15 135 45s94.667 72.333 140 127z" />
    <glyph glyph-name="afii10069" unicode="&#x434;" horiz-adv-x="1063" 
d="M188 264c0 -70 16.165 -124.332 48.498 -162.999s77.833 -58 136.5 -58c48 0 92.833 14.5 134.5 43.5s77.834 71.167 108.501 126.5c35.333 62 64 135.167 86 219.5s33 162.166 33 233.499c0 72.667 -16.333 128.667 -49 168s-79 59 -139 59
c-46 0 -89.833 -15 -131.5 -45s-78.5 -73 -110.5 -129c-33.333 -60 -61.166 -132.833 -83.499 -218.5s-33.5 -164.5 -33.5 -236.5zM783.998 873.001c2 22.667 3.66699 45.5 5 68.5s2 45.167 2 66.5c0 142.667 -18.333 247.5 -55 314.5s-93.667 100.5 -171 100.5
c-49.333 0 -98.666 -12.333 -147.999 -37s-107.666 -67.667 -174.999 -129l-43 46c62 71.333 125.667 123.833 191 157.5s135.333 50.5 210 50.5c119.333 0 210.666 -49.167 273.999 -147.5s95 -240.833 95 -427.5c0 -294.667 -54.333 -530.167 -163 -706.5
s-251.667 -264.5 -429 -264.5c-112.667 0 -203 35.333 -271 106s-102 164.334 -102 281.001c0 75.333 14.5 151 43.5 227s69.167 143.667 120.5 203s110 105.333 176 138s133.667 49 203 49c43.333 0 84.166 -7.83301 122.499 -23.5s76.5 -39.834 114.5 -72.501z" />
    <glyph glyph-name="afii10070" unicode="&#x435;" horiz-adv-x="891" 
d="M195 432c151.333 34.667 262.833 79.6689 334.5 135.002s107.5 123.666 107.5 204.999c0 33.333 -10 60.166 -30 80.499s-46.333 30.5 -79 30.5c-74 0 -140.5 -39.667 -199.5 -119s-103.5 -190 -133.5 -332zM745 186.002
c-48 -71.333 -107.001 -126.337 -177.001 -165.004s-146 -58 -228 -58c-102.667 0 -185.667 34.667 -249 104s-95 159.666 -95 270.999c0 85.333 20.333 170.5 61 255.5s97.334 160.833 170.001 227.5c50.667 45.333 105.5 80.333 164.5 105s117.5 37 175.5 37
c74.667 0 134.334 -19.167 179.001 -57.5s67 -88.833 67 -151.5c0 -87.333 -52.333 -164.166 -157 -230.499s-261.334 -122.166 -470.001 -167.499c-2 -15.333 -3.5 -29.666 -4.5 -42.999s-1.5 -25.666 -1.5 -36.999c0 -67.333 16.333 -119.666 49 -156.999
s78.667 -56 138 -56c56.667 0 112.667 14.333 168 43s109 71 161 127z" />
    <glyph glyph-name="afii10072" unicode="&#x436;" horiz-adv-x="2077" 
d="M1358 672c-122.667 -116 -224.832 -231.001 -306.499 -345.001s-139.834 -223 -174.501 -327h-150l80 251c43.333 134.667 79.333 251.667 108 351c-149.333 -208 -289 -367.167 -419 -477.5s-242 -165.5 -336 -165.5c-62.667 0 -114.5 20.5 -155.5 61.5
s-61.5 92.167 -61.5 153.5c0 45.333 11.333 82 34 110s52.334 42 89.001 42c28 0 51 -9.66699 69 -29s27 -44.666 27 -75.999c0 -37.333 -16 -66.5 -48 -87.5s-48 -35.5 -48 -43.5c0 -16.667 9.66699 -31 29 -43s43 -18 71 -18c82.667 0 154.5 58.5 215.5 175.5
s91.5 254.167 91.5 411.5c0 76 -12.333 134.667 -37 176s-59.334 62 -104.001 62c-40 0 -78.167 -14 -114.5 -42s-82.166 -81.667 -137.499 -161l-51 43c53.333 92.667 107.833 160.334 163.5 203.001s117.167 64 184.5 64c84 0 149.333 -30.167 196 -90.5
s70 -145.166 70 -254.499c0 -68 -10.167 -133.167 -30.5 -195.5s-50.5 -121.166 -90.5 -176.499c120 110 222 224.167 306 342.5s145.333 234.166 184 347.499h162c-42.667 -112 -81 -218.833 -115 -320.5s-64 -198.834 -90 -291.501
c148.667 205.333 288.667 363.5 420 474.5s244.666 166.5 339.999 166.5c59.333 0 109.666 -21 150.999 -63s62 -93.667 62 -155c0 -44.667 -11.333 -80.667 -34 -108s-52.334 -41 -89.001 -41c-28 0 -51.167 9.33301 -69.5 28s-27.5 42.667 -27.5 72
c0 39.333 16.167 70 48.5 92s48.5 37.333 48.5 46c0 15.333 -9.83301 29 -29.5 41s-43.5 18 -71.5 18c-82 0 -153.667 -58.667 -215 -176s-92 -255.333 -92 -414c0 -75.333 12.333 -133.333 37 -174s59.334 -61 104.001 -61c42 0 84 16.833 126 50.5s84 84.167 126 151.5
l51 -43c-55.333 -93.333 -110.666 -161.333 -165.999 -204s-115.333 -64 -180 -64c-82 0 -147.167 30.333 -195.5 91s-72.5 143 -72.5 247c0 73.333 10 142.166 30 206.499s49 120.5 87 168.5z" />
    <glyph glyph-name="afii10073" unicode="&#x437;" horiz-adv-x="889" 
d="M483 506c69.333 -16.667 120.834 -42.667 154.501 -78s50.5 -81 50.5 -137c0 -95.333 -38.5 -173.5 -115.5 -234.5s-177.167 -91.5 -300.5 -91.5c-98 0 -176 21.5 -234 64.5s-87 100.833 -87 173.5c0 42 11.167 76.333 33.5 103s50.166 40 83.499 40
c28.667 0 52.5 -8.83301 71.5 -26.5s28.5 -39.5 28.5 -65.5c0 -34 -16.333 -60 -49 -78s-49 -32.333 -49 -43c0 -23.333 19 -44.833 57 -64.5s81.667 -29.5 131 -29.5c73.333 0 133.333 26 180 78s70 117.333 70 196c0 54.667 -16.167 94.667 -48.5 120
s-83.833 38 -154.5 38h-10l14 63c87.333 1.33301 154.333 19.833 201 55.5s70 86.167 70 151.5c0 38 -12 67.333 -36 88s-58 31 -102 31c-38 0 -82.167 -9.83301 -132.5 -29.5s-109.166 -50.167 -176.499 -91.5l-24 45c71.333 62.667 139.166 109.167 203.499 139.5
s126.833 45.5 187.5 45.5c73.333 0 133 -20 179 -60s69 -91.667 69 -155c0 -60.667 -22 -111.5 -66 -152.5s-110.333 -72.833 -199 -95.5z" />
    <glyph glyph-name="afii10074" unicode="&#x438;" horiz-adv-x="1241" 
d="M647 231c-62.667 -86 -126.831 -151.835 -192.498 -197.502s-129.834 -68.5 -192.501 -68.5s-110.667 15.667 -144 47s-50 76.333 -50 135c0 16 3.16699 39 9.5 69s14.5 61 24.5 93l127 381c8 22.667 14.167 43.834 18.5 63.501s6.5 34.167 6.5 43.5
c0 24.667 -9.16699 41.334 -27.5 50.001s-66.5 13 -144.5 13l18 74l387 22l-219 -675c-10 -30 -16.833 -54.167 -20.5 -72.5s-5.5 -36.5 -5.5 -54.5c0 -22.667 8.66699 -41 26 -55s40.666 -21 69.999 -21c82 0 163 58.5 243 175.5s154.667 286.5 224 508.5l55 172h184
c-82 -212.667 -145.167 -389.667 -189.5 -531s-66.5 -236.666 -66.5 -285.999c0 -20 3.5 -34.333 10.5 -43s17.833 -13 32.5 -13c24 0 54.5 19.333 91.5 58s85.167 102 144.5 190l55 -39c-60.667 -101.333 -119.167 -177.5 -175.5 -228.5s-110.5 -76.5 -162.5 -76.5
c-44 0 -80.167 14.667 -108.5 44s-42.5 67.333 -42.5 114c0 12 1 25.667 3 41s5.66699 37.666 11 66.999z" />
    <glyph glyph-name="afii10075" unicode="&#x439;" horiz-adv-x="1241" 
d="M539 1227c12 -16.667 30.333 -29.332 55 -37.999s53.334 -13 86.001 -13c59.333 0 111.166 15.667 155.499 47s82.5 79.666 114.5 144.999l56 -18c-30 -79.333 -73 -138.833 -129 -178.5s-124.333 -59.5 -205 -59.5c-69.333 0 -125.333 16.333 -168 49
s-64 74.334 -64 125.001c0 32 9.5 58.5 28.5 79.5s41.833 31.5 68.5 31.5c26 0 47.167 -8.33301 63.5 -25s24.5 -38.334 24.5 -65.001c0 -23.333 -7.66699 -42 -23 -56s-36.333 -22 -63 -24zM647 231.002c-62.667 -86 -126.831 -151.835 -192.498 -197.502
s-129.834 -68.5 -192.501 -68.5s-110.667 15.667 -144 47s-50 76.333 -50 135c0 16 3.16699 39 9.5 69s14.5 61 24.5 93l127 381c8 22.667 14.167 43.834 18.5 63.501s6.5 34.167 6.5 43.5c0 24.667 -9.16699 41.334 -27.5 50.001s-66.5 13 -144.5 13l18 74l387 22
l-219 -675c-10 -30 -16.833 -54.167 -20.5 -72.5s-5.5 -36.5 -5.5 -54.5c0 -22.667 8.66699 -41 26 -55s40.666 -21 69.999 -21c82 0 163 58.5 243 175.5s154.667 286.5 224 508.5l55 172h184c-82 -212.667 -145.167 -389.667 -189.5 -531s-66.5 -236.666 -66.5 -285.999
c0 -20 3.5 -34.333 10.5 -43s17.833 -13 32.5 -13c24 0 54.5 19.333 91.5 58s85.167 102 144.5 190l55 -39c-60.667 -101.333 -119.167 -177.5 -175.5 -228.5s-110.5 -76.5 -162.5 -76.5c-44 0 -80.167 14.667 -108.5 44s-42.5 67.333 -42.5 114c0 12 1 25.667 3 41
s5.66699 37.666 11 66.999z" />
    <glyph glyph-name="afii10076" unicode="&#x43a;" horiz-adv-x="1210" 
d="M43 0l210.997 690c8 26 14.167 47.833 18.5 65.5s6.5 31.5 6.5 41.5c0 24.667 -8.83301 41.334 -26.5 50.001s-68.5 13 -152.5 13l19 74l389 22l-131 -436h53c66 0 141.333 70.333 226 211l8 13c50.667 84.667 95 141.167 133 169.5s83 42.5 135 42.5
c55.333 0 100.166 -14 134.499 -42s51.5 -63.667 51.5 -107c0 -34 -10.167 -61.667 -30.5 -83s-46.833 -32 -79.5 -32c-33.333 0 -59.833 8 -79.5 24s-29.5 37.333 -29.5 64c0 18 5.16699 35 15.5 51s15.5 25.667 15.5 29c0 7.33301 -3.16699 12.666 -9.5 15.999
s-16.166 5 -29.499 5c-41.333 0 -96.666 -59.333 -165.999 -178l-12 -21c-39.333 -64 -71.166 -107.667 -95.499 -131s-51.166 -39 -80.499 -47c81.333 -8 141.166 -32 179.499 -72s57.5 -98 57.5 -174c0 -7.33301 -0.333008 -24.333 -1 -51s-1 -50 -1 -70
c0 -26.667 3 -45.167 9 -55.5s16 -15.5 30 -15.5c16.667 0 35.167 10.167 55.5 30.5s51.833 62.5 94.5 126.5l55 -30c-41.333 -80 -83 -137.667 -125 -173s-89.667 -53 -143 -53c-48.667 0 -86.167 14.5 -112.5 43.5s-39.5 70.5 -39.5 124.5c0 29.333 2.33301 65.333 7 108
s7 71 7 85c0 46 -13.167 78.667 -39.5 98s-75.166 29 -146.499 29h-66l-139 -455h-176z" />
    <glyph glyph-name="afii10077" unicode="&#x43b;" horiz-adv-x="1180" 
d="M979 958l-160.003 -525.998c-28 -89.333 -47.333 -155.833 -58 -199.5s-16 -77.5 -16 -101.5c0 -20.667 3.33301 -35.334 10 -44.001s17.667 -13 33 -13c24 0 54.5 19.333 91.5 58s85.167 102 144.5 190l55 -39c-66 -109.333 -126.167 -187.666 -180.5 -234.999
s-110.166 -71 -167.499 -71c-45.333 0 -82.166 14.833 -110.499 44.5s-42.5 68.167 -42.5 115.5c0 24 2.83301 50.333 8.5 79s14.834 63 27.501 103l113 371c8.66699 26 15 47.833 19 65.5s6 31.5 6 41.5c0 21.333 -7 37.166 -21 47.499s-35 15.5 -63 15.5
c-74 0 -132.833 -21.5 -176.5 -64.5s-88.167 -137.5 -133.5 -283.5l-65 -211c-36 -116.667 -76.5 -199.334 -121.5 -248.001s-102.167 -73 -171.5 -73c-39.333 0 -71.333 10.333 -96 31s-37 46.334 -37 77.001c0 34 9.16699 61.667 27.5 83s41.833 32 70.5 32
c36 0 65.333 -16.167 88 -48.5s36.334 -48.5 41.001 -48.5c16.667 0 35.167 16.333 55.5 49s38.166 75.334 53.499 128.001l76 260c33.333 117.333 65 199.166 95 245.499s68.333 82.5 115 108.5c62.667 35.333 184 54.666 364 57.999z" />
    <glyph glyph-name="afii10078" unicode="&#x43c;" horiz-adv-x="1540" 
d="M285 301c-34 -111.333 -73.334 -192.669 -118.001 -244.002s-98.334 -77 -161.001 -77c-41.333 0 -74.833 10.167 -100.5 30.5s-38.5 46.166 -38.5 77.499c0 34 9.16699 61.667 27.5 83s41.833 32 70.5 32c36 0 65.333 -16.167 88 -48.5s36.334 -48.5 41.001 -48.5
c16.667 0 35 15.833 55 47.5s38 74.834 54 129.501l125 407c8 24.667 14 46.167 18 64.5s6 32.5 6 42.5c0 24.667 -8.83301 41.334 -26.5 50.001s-68.167 13 -151.5 13l21 74l368 22l96 -718l457 696h217l-155 -502c-26 -82 -44.5 -146.333 -55.5 -193
s-16.5 -82.667 -16.5 -108c0 -20.667 3.33301 -35.334 10 -44.001s17.667 -13 33 -13c24 0 54.333 19.333 91 58s84.667 102 144 190l56 -39c-66 -109.333 -126.167 -187.666 -180.5 -234.999s-110.166 -71 -167.499 -71c-46 0 -83.167 14.833 -111.5 44.5
s-42.5 68.167 -42.5 115.5c0 20.667 2.5 43.834 7.5 69.501s14.833 63.167 29.5 112.5l153 506l-542 -825h-43l-111 795z" />
    <glyph glyph-name="afii10079" unicode="&#x43d;" horiz-adv-x="1251" 
d="M43 0l211.002 689.999c8 26 14.167 47.833 18.5 65.5s6.5 31.5 6.5 41.5c0 24.667 -8.83301 41.334 -26.5 50.001s-68.5 13 -152.5 13l19 74l389 22l-127 -417h369l122 395h172l-155 -502c-29.333 -95.333 -49 -163.5 -59 -204.5s-15 -73.167 -15 -96.5
c0 -20.667 3.33301 -35.334 10 -44.001s17.667 -13 33 -13c24 0 54.5 19.333 91.5 58s85.167 102 144.5 190l55 -39c-66.667 -110 -126.834 -188.5 -180.501 -235.5s-108.834 -70.5 -165.501 -70.5c-46 0 -83.5 14.833 -112.5 44.5s-43.5 68.167 -43.5 115.5
c0 22.667 2.83301 48.334 8.5 77.001s15.167 63.667 28.5 105l43 140h-371l-137 -459h-176z" />
    <glyph glyph-name="afii10080" unicode="&#x43e;" 
d="M178 264c0 -70 16.167 -124.332 48.5 -162.999s77.5 -58 135.5 -58c48.667 0 94.167 14.667 136.5 44s78.833 71.333 109.5 126c35.333 62 64 135.167 86 219.5s33 162.166 33 233.499c0 72.667 -16.333 128.667 -49 168s-79 59 -139 59c-46.667 0 -91 -15 -133 -45
s-79 -73 -111 -129c-34 -60 -62 -132.833 -84 -218.5s-33 -164.5 -33 -236.5zM-6 352.001c0 74.667 14.667 149.998 44 225.998s70 144 122 204c52.667 61.333 111.167 107.833 175.5 139.5s132.166 47.5 203.499 47.5c110.667 0 200 -35.667 268 -107
s102 -164.666 102 -279.999c0 -74 -13.167 -147.5 -39.5 -220.5s-62.833 -136.833 -109.5 -191.5c-57.333 -68 -118.666 -119.167 -183.999 -153.5s-134.333 -51.5 -207 -51.5c-114 0 -205 35.333 -273 106s-102 164.334 -102 281.001z" />
    <glyph glyph-name="afii10081" unicode="&#x43f;" horiz-adv-x="1241" 
d="M18 0l217.999 689.994c6.66699 23.333 12 44.5 16 63.5s6 33.5 6 43.5c0 24.667 -8.66699 41.334 -26 50.001s-67.333 13 -150 13l18 74l361 22l-62 -266c61.333 86 125.333 152.167 192 198.5s130.334 69.5 191.001 69.5c57.333 0 104.5 -16.667 141.5 -50
s55.5 -75.333 55.5 -126c0 -18.667 -3 -43.167 -9 -73.5s-14.667 -62.5 -26 -96.5l-139 -419c-4.66699 -13.333 -8.16699 -26.333 -10.5 -39s-3.5 -23.667 -3.5 -33c0 -15.333 3.5 -26.666 10.5 -33.999s17.833 -11 32.5 -11c26 0 59.167 20 99.5 60
s90.166 103.333 149.499 190l58 -39c-60.667 -100.667 -121 -177 -181 -229s-118 -78 -174 -78c-46 0 -84.333 14.5 -115 43.5s-46 64.833 -46 107.5c0 18.667 3 40.834 9 66.501s16 58.834 30 99.501l120 356c8 22.667 14.167 44.334 18.5 65.001s6.5 38 6.5 52
c0 25.333 -7.83301 45.333 -23.5 60s-37.167 22 -64.5 22c-38 0 -78.667 -15.167 -122 -45.5s-88.666 -75.166 -135.999 -134.499c-81.333 -101.333 -151 -262.333 -209 -483l-2 -7l-49 -182h-185z" />
    <glyph glyph-name="afii10082" unicode="&#x440;" horiz-adv-x="1124" 
d="M639 848c-48.667 0 -94.1699 -15.501 -136.503 -46.501s-80.166 -76.167 -113.499 -135.5s-61.166 -128.5 -83.499 -207.5s-33.5 -146.5 -33.5 -202.5c0 -62.667 15.5 -111.167 46.5 -145.5s75.167 -51.5 132.5 -51.5c48 0 92.833 15.5 134.5 46.5
s79.167 77.167 112.5 138.5c34.667 62.667 62.5 131.334 83.5 206.001s31.5 139.667 31.5 195c0 64.667 -15.167 114.667 -45.5 150s-73.166 53 -128.499 53zM419.997 957.999l-39.001 -185.996c53.333 63.333 106.833 110.666 160.5 141.999s109.5 47 167.5 47
c87.333 0 157.166 -29.833 209.499 -89.5s78.5 -139.834 78.5 -240.501c0 -83.333 -14.167 -165.833 -42.5 -247.5s-67.833 -153.5 -118.5 -215.5c-53.333 -64 -111.666 -113.5 -174.999 -148.5s-126.666 -52.5 -189.999 -52.5c-56.667 0 -107 13.167 -151 39.5
s-79.667 64.5 -107 114.5l-100 -348c-4 -14.667 -7.16699 -28.5 -9.5 -41.5s-3.5 -23.833 -3.5 -32.5c0 -19.333 7.66699 -32.333 23 -39s43.333 -10 84 -10h43l-12 -76h-488l21 76l88 6c18 1.33301 32 6.66602 42 15.999s20.333 32.666 31 69.999l285 991
c4 12.667 7 25 9 37s3 22.333 3 31c0 24 -9.83301 40.167 -29.5 48.5s-70.5 12.5 -152.5 12.5l21 74z" />
    <glyph glyph-name="afii10083" unicode="&#x441;" horiz-adv-x="891" 
d="M750 227c-64 -90 -129.17 -156.501 -195.503 -199.501s-137.833 -64.5 -214.5 -64.5c-102.667 0 -185.667 35.667 -249 107s-95 166 -95 284c0 81.333 15.833 159.333 47.5 234s77.834 143.667 138.501 207c53.333 56 110.833 99 172.5 129s123.834 45 186.501 45
c78 0 142.5 -21 193.5 -63s76.5 -94.667 76.5 -158c0 -45.333 -12.167 -82 -36.5 -110s-55.833 -42 -94.5 -42c-32.667 0 -58.667 9.33301 -78 28s-29 43.334 -29 74.001c0 37.333 17.5 66.833 52.5 88.5s52.5 37.5 52.5 47.5c0 15.333 -13 29.333 -39 42s-56.667 19 -92 19
c-54.667 0 -103 -15.833 -145 -47.5s-80.333 -81.5 -115 -149.5c-33.333 -65.333 -58.166 -129 -74.499 -191s-24.5 -123.667 -24.5 -185c0 -82.667 17.333 -146.5 52 -191.5s83.667 -67.5 147 -67.5c54 0 104 16 150 48s97 86.333 153 163z" />
    <glyph glyph-name="afii10084" unicode="&#x442;" horiz-adv-x="1802" 
d="M18 0l217.999 689.997c6.66699 23.333 12 44.5 16 63.5s6 33.5 6 43.5c0 24.667 -8.66699 41.334 -26 50.001s-67.333 13 -150 13l18 74l353 22l-54 -266c59.333 85.333 121.333 151.333 186 198s126.334 70 185.001 70c61.333 0 109.5 -19.5 144.5 -58.5
s52.5 -93.167 52.5 -162.5c0 -3.33301 -0.333008 -8.5 -1 -15.5s-1 -12.5 -1 -16.5c62.667 81.333 126.334 143.833 191.001 187.5s125.667 65.5 183 65.5s104.5 -16.667 141.5 -50s55.5 -75.333 55.5 -126c0 -18.667 -3 -43.167 -9 -73.5s-14.667 -62.5 -26 -96.5
l-137 -420c-4.66699 -13.333 -8.5 -26.666 -11.5 -39.999s-4.5 -23.666 -4.5 -30.999c0 -14.667 3.66699 -25.834 11 -33.501s18.666 -11.5 33.999 -11.5c26 0 58.5 19.667 97.5 59s88.833 103 149.5 191l60 -39c-70.667 -110.667 -133.667 -189.5 -189 -236.5
s-111.333 -70.5 -168 -70.5c-46.667 0 -85.167 14.5 -115.5 43.5s-45.5 65.5 -45.5 109.5c0 18 2.5 38.5 7.5 61.5s15.5 57.167 31.5 102.5l120 356c8 22.667 14.167 44.334 18.5 65.001s6.5 38 6.5 52c0 25.333 -7.83301 45.333 -23.5 60s-37.167 22 -64.5 22
c-37.333 0 -77.833 -15.167 -121.5 -45.5s-89.167 -75.166 -136.5 -134.499c-81.333 -101.333 -151 -262.333 -209 -483l-2 -7l-49 -182h-174c14 42 33.333 104.667 58 188l24 80l114 383c6 18.667 10.333 36.667 13 54s4 34.333 4 51c0 31.333 -7.5 55.166 -22.5 71.499
s-36.833 24.5 -65.5 24.5c-84.667 0 -168.5 -59.667 -251.5 -179s-152.167 -283 -207.5 -491l-49 -182h-185z" />
    <glyph glyph-name="afii10085" unicode="&#x443;" horiz-adv-x="977" 
d="M385 -6c-31.333 242 -66.499 437.665 -105.499 586.998s-72.833 224 -101.5 224c-16.667 0 -35 -14.5 -55 -43.5s-46.667 -80.167 -80 -153.5l-66 27c46 108 91.5 189.333 136.5 244s89.167 82 132.5 82c78.667 0 163 -205.667 253 -617l25 -114l34 59
c115.333 204.667 173 346.667 173 426c0 24 -1 50.833 -3 80.5s-3 47.167 -3 52.5c0 33.333 9 60 27 80s41.667 30 71 30c27.333 0 49.166 -9.16699 65.499 -27.5s24.5 -42.5 24.5 -72.5c0 -66.667 -86.667 -255 -260 -565l-32 -57c-160 -284 -281 -466.333 -363 -547
s-168 -121 -258 -121c-56.667 0 -102.5 14.333 -137.5 43s-52.5 65.334 -52.5 110.001c0 34.667 9.5 62.834 28.5 84.501s43.5 32.5 73.5 32.5c30.667 0 55.667 -9.16699 75 -27.5s29 -41.833 29 -70.5c0 -11.333 -0.666992 -22.666 -2 -33.999l-2 -17
c0 -10.667 3.33301 -18.834 10 -24.501s15.667 -8.5 27 -8.5c43.333 0 97.333 31.667 162 95s122.667 144.333 174 243z" />
    <glyph glyph-name="afii10086" unicode="&#x444;" horiz-adv-x="1565" 
d="M1116 844c-42 0 -82.9971 -15.499 -122.997 -46.499s-76 -74.833 -108 -131.5c-33.333 -60 -61.166 -129.667 -83.499 -209s-33.5 -146.333 -33.5 -201c0 -58 13.667 -105 41 -141s62.666 -54 105.999 -54c53.333 0 101.666 18 144.999 54s82.666 90.667 117.999 164
c29.333 62 52.666 126.167 69.999 192.5s26 124.166 26 173.499c0 62 -14 110.667 -42 146s-66.667 53 -116 53zM520.003 862.001c-50 0 -96.5 -18.165 -139.5 -54.498s-81.833 -89.833 -116.5 -160.5c-30 -63.333 -53.833 -128.333 -71.5 -195
s-26.5 -125.334 -26.5 -176.001c0 -60.667 14.333 -108.5 43 -143.5s67.667 -52.5 117 -52.5c42 0 83 15.5 123 46.5s76 74.833 108 131.5c34 60 62 129.667 84 209s33 147 33 203c0 59.333 -14 106.166 -42 140.499s-65.333 51.5 -112 51.5zM858.003 1237
c10 33.333 16.665 57.1709 19.998 71.5039s5 25.833 5 34.5c0 26 -9.5 43.5 -28.5 52.5s-68.833 13.5 -149.5 13.5l20 72l379 22l-197 -692c40.667 48.667 84.167 85.334 130.5 110.001s94.5 37 144.5 37c79.333 0 144.5 -30.333 195.5 -91s76.5 -139.334 76.5 -236.001
c0 -84 -14.333 -167.333 -43 -250s-68.334 -154.334 -119.001 -215.001c-52.667 -63.333 -110.167 -112.333 -172.5 -147s-124.833 -52 -187.5 -52c-53.333 0 -99.666 14.167 -138.999 42.5s-67.333 68.166 -84 119.499l-101 -356c-4 -14.667 -7 -28.5 -9 -41.5
s-3 -23.833 -3 -32.5c0 -19.333 7.5 -32.333 22.5 -39s42.833 -10 83.5 -10h43l-12 -76h-487l20 76l89 6c19.333 2 33.833 8 43.5 18s19.5 32.667 29.5 68l109 373c-44.667 -50 -90 -87.167 -136 -111.5s-93.667 -36.5 -143 -36.5c-80 0 -145 30.167 -195 90.5
s-75 139.5 -75 237.5c0 83.333 14.333 166.166 43 248.499s68.334 153.833 119.001 214.5c52 63.333 109.333 112.166 172 146.499s125.334 51.5 188.001 51.5c54 0 99.167 -13.167 135.5 -39.5s64.833 -66.833 85.5 -121.5z" />
    <glyph glyph-name="afii10087" unicode="&#x445;" horiz-adv-x="1012" 
d="M397 319c-70.667 -128.667 -132.165 -219.833 -184.498 -273.5s-104.833 -80.5 -157.5 -80.5c-41.333 0 -75.5 13.167 -102.5 39.5s-40.5 58.833 -40.5 97.5c0 36 9.66699 64.833 29 86.5s43.666 32.5 72.999 32.5c42 0 69.5 -20.167 82.5 -60.5s24.5 -60.5 34.5 -60.5
c18 0 40.333 16.667 67 50s60.334 86.333 101.001 159l76 135l-41 189c-14.667 67.333 -29.5 116.833 -44.5 148.5s-30.833 47.5 -47.5 47.5c-15.333 0 -34.5 -12.667 -57.5 -38s-58.5 -74 -106.5 -146l-58 35c60 100.667 112.833 173 158.5 217s90.5 66 134.5 66
c41.333 0 74.833 -16.833 100.5 -50.5s46.167 -87.834 61.5 -162.501l25 -117c66 119.333 124.167 204.833 174.5 256.5s99.833 77.5 148.5 77.5c36 0 64.833 -10.833 86.5 -32.5s32.5 -50.5 32.5 -86.5c0 -33.333 -8.66699 -59.833 -26 -79.5s-40.666 -29.5 -69.999 -29.5
c-30.667 0 -54 14 -70 42s-29.667 42 -41 42c-14.667 0 -42 -28.5 -82 -85.5s-83 -130.167 -129 -219.5l39 -192c18 -93.333 33.667 -155.333 47 -186s30.666 -46 51.999 -46c22 0 47.5 15.333 76.5 46s66.833 83 113.5 157l57 -39
c-53.333 -96.667 -106.333 -169.667 -159 -219s-103.334 -74 -152.001 -74s-87.334 23.833 -116.001 71.5s-57 141.834 -85 282.501z" />
    <glyph glyph-name="afii10088" unicode="&#x446;" horiz-adv-x="1241" 
d="M586 -418c38.667 32 63.6689 56.3311 75.002 72.998s17 34 17 52c0 14 -6.83301 35.5 -20.5 64.5s-20.5 51.833 -20.5 68.5c0 22 7.33301 42 22 60s44.334 41 89.001 69c-35.333 7.33301 -63.333 24.833 -84 52.5s-31 61.5 -31 101.5c0 12.667 1 27 3 43
s5.66699 37.667 11 65c-62.667 -86 -126.834 -151.833 -192.501 -197.5s-129.834 -68.5 -192.501 -68.5s-110.667 15.667 -144 47s-50 76.333 -50 135c0 16 3.16699 39 9.5 69s14.5 61 24.5 93l127 381c8 22.667 14.167 43.834 18.5 63.501s6.5 34.167 6.5 43.5
c0 24.667 -9.16699 41.334 -27.5 50.001s-66.5 13 -144.5 13l18 74l387 22l-219 -675c-10 -30 -16.833 -54.167 -20.5 -72.5s-5.5 -36.5 -5.5 -54.5c0 -22.667 8.66699 -41 26 -55s40.666 -21 69.999 -21c82 0 163 58.5 243 175.5s154.667 286.5 224 508.5l55 172h184
c-82 -212.667 -145.167 -389.667 -189.5 -531s-66.5 -236.666 -66.5 -285.999c0 -20 3.5 -34.333 10.5 -43s17.833 -13 32.5 -13c24 0 54.5 19.333 91.5 58s85.167 102 144.5 190l55 -39c-59.333 -100 -115.833 -174.833 -169.5 -224.5s-106.834 -76.5 -159.501 -80.5
c-11.333 -8.66699 -19.666 -17.167 -24.999 -25.5s-8 -16.833 -8 -25.5c0 -12 8.5 -35.333 25.5 -70s25.5 -65.334 25.5 -92.001c0 -36.667 -19.5 -74 -58.5 -112s-89.167 -67.667 -150.5 -89z" />
    <glyph glyph-name="afii10089" unicode="&#x447;" horiz-adv-x="1133" 
d="M598 432c-53.333 -18.667 -105.833 -32.501 -157.5 -41.501s-102.834 -13.5 -153.501 -13.5c-61.333 0 -108.166 12.333 -140.499 37s-48.5 60 -48.5 106c0 10.667 0.833008 22.167 2.5 34.5s4.16699 25.166 7.5 38.499l23 79c8.66699 29.333 15.334 54.5 20.001 75.5
s7 37.5 7 49.5c0 24.667 -8.66699 41.334 -26 50.001s-67.333 13 -150 13l18 72l389 24l-82 -282c-10 -36 -16.5 -62.5 -19.5 -79.5s-4.5 -32.167 -4.5 -45.5c0 -26 10.167 -45.5 30.5 -58.5s50.166 -19.5 89.499 -19.5c28 0 61 3.83301 99 11.5s80.333 18.834 127 33.501
l125 418h172l-156 -502c-29.333 -95.333 -49 -163.5 -59 -204.5s-15 -73.167 -15 -96.5c0 -20.667 3.33301 -35.334 10 -44.001s17.667 -13 33 -13c24 0 54.5 19.333 91.5 58s85.167 102 144.5 190l55 -39c-66 -109.333 -126.167 -187.666 -180.5 -234.999
s-110.166 -71 -167.499 -71c-46 0 -83.167 14.833 -111.5 44.5s-42.5 68.167 -42.5 115.5c0 33.333 10 85.333 30 156c3.33301 12 5.66602 20.667 6.99902 26z" />
    <glyph glyph-name="afii10090" unicode="&#x448;" horiz-adv-x="1792" 
d="M229 690c8 22.667 14.168 43.833 18.501 63.5s6.5 34.167 6.5 43.5c0 24.667 -9.16699 41.334 -27.5 50.001s-66.5 13 -144.5 13l18 74l387 22l-219 -675c-10 -30 -16.833 -54.167 -20.5 -72.5s-5.5 -36.5 -5.5 -54.5c0 -22.667 8.5 -41 25.5 -55s39.833 -21 68.5 -21
c82 0 163.333 58.667 244 176s155.667 286.666 225 507.999l53 172h170l-209 -653c-0.666992 -2.66699 -1.66699 -6 -3 -10c-15.333 -49.333 -23 -88.333 -23 -117c0 -22.667 8.66699 -41 26 -55s40.666 -21 69.999 -21c82 0 163 58.5 243 175.5s154.667 286.5 224 508.5
l55 172h184c-82 -212.667 -145.167 -389.667 -189.5 -531s-66.5 -236.666 -66.5 -285.999c0 -20 3.5 -34.333 10.5 -43s17.833 -13 32.5 -13c24 0 54.5 19.333 91.5 58s85.167 102 144.5 190l55 -39c-60.667 -101.333 -119.167 -177.5 -175.5 -228.5
s-110.5 -76.5 -162.5 -76.5c-44 0 -80.167 14.667 -108.5 44s-42.5 67.333 -42.5 114c0 12 1 25.667 3 41s5.66699 37.666 11 66.999c-60 -84 -123.667 -149.333 -191 -196s-131.333 -70 -192 -70c-58 0 -102.833 16.167 -134.5 48.5s-47.5 78.5 -47.5 138.5
c0 9.33301 1.33301 20.833 4 34.5s6.66699 30.167 12 49.5c-62.667 -87.333 -127.167 -154.333 -193.5 -201s-130.833 -70 -193.5 -70s-110.667 15.667 -144 47s-50 76.333 -50 135c0 16 3.16699 39 9.5 69s14.5 61 24.5 93z" />
    <glyph glyph-name="afii10091" unicode="&#x449;" horiz-adv-x="1792" 
d="M229 690c8 22.667 14.1689 43.833 18.502 63.5s6.5 34.167 6.5 43.5c0 24.667 -9.16699 41.334 -27.5 50.001s-66.5 13 -144.5 13l18 74l387 22l-219 -675c-10 -30 -16.833 -54.167 -20.5 -72.5s-5.5 -36.5 -5.5 -54.5c0 -22.667 8.5 -41 25.5 -55s39.833 -21 68.5 -21
c82 0 163.333 58.667 244 176s155.667 286.666 225 507.999l53 172h170l-209 -653c-0.666992 -2.66699 -1.66699 -6 -3 -10c-15.333 -49.333 -23 -88.333 -23 -117c0 -22.667 8.66699 -41 26 -55s40.666 -21 69.999 -21c82 0 163 58.5 243 175.5s154.667 286.5 224 508.5
l55 172h184c-82 -212.667 -145.167 -389.667 -189.5 -531s-66.5 -236.666 -66.5 -285.999c0 -20 3.5 -34.333 10.5 -43s17.833 -13 32.5 -13c24 0 54.5 19.333 91.5 58s85.167 102 144.5 190l55 -39c-59.333 -100 -115.833 -174.833 -169.5 -224.5
s-106.834 -76.5 -159.501 -80.5c-11.333 -8.66699 -19.666 -17.167 -24.999 -25.5s-8 -16.833 -8 -25.5c0 -12 8.5 -35.333 25.5 -70s25.5 -65.334 25.5 -92.001c0 -36.667 -19.5 -74 -58.5 -112s-89.167 -67.667 -150.5 -89l-16 31c38.667 32 63.667 56.333 75 73
s17 34 17 52c0 14 -6.83301 35.5 -20.5 64.5s-20.5 51.833 -20.5 68.5c0 22 7.33301 42 22 60s44 41 88 69c-34.667 7.33301 -62.334 24.833 -83.001 52.5s-31 61.5 -31 101.5c0 12.667 1 27 3 43s5.66699 37.667 11 65c-60 -84 -123.667 -149.333 -191 -196
s-131.333 -70 -192 -70c-58 0 -102.833 16.167 -134.5 48.5s-47.5 78.5 -47.5 138.5c0 9.33301 1.33301 20.833 4 34.5s6.66699 30.167 12 49.5c-62.667 -87.333 -127.167 -154.333 -193.5 -201s-130.833 -70 -193.5 -70s-110.667 15.667 -144 47s-50 76.333 -50 135
c0 16 3.16699 39 9.5 69s14.5 61 24.5 93z" />
    <glyph glyph-name="afii10092" unicode="&#x44a;" horiz-adv-x="1128" 
d="M397 457l-31.998 -117.001c-7.33301 -23.333 -12.666 -45.666 -15.999 -66.999s-5 -41.333 -5 -60c0 -51.333 15 -91.833 45 -121.5s71 -44.5 123 -44.5c80 0 146 31.5 198 94.5s78 141.5 78 235.5c0 50 -12.833 87.667 -38.5 113s-63.834 38 -114.501 38
c-32.667 0 -67.834 -5.66699 -105.501 -17s-81.834 -29.333 -132.501 -54zM332.002 759.999c-24.667 1.33301 -56.498 10.168 -95.498 26.501s-67.833 24.5 -86.5 24.5c-20 0 -38.333 -10.167 -55 -30.5s-39.334 -63.5 -68.001 -129.5l-58 29
c36.667 99.333 73.5 171.333 110.5 216s78.167 67 123.5 67c32 0 73 -13 123 -39s84 -39 102 -39c16 0 29.5 7.5 40.5 22.5s20.833 39.5 29.5 73.5l61 -12l-137 -430c62 29.333 116.167 50.333 162.5 63s92.5 19 138.5 19c75.333 0 134.5 -20.5 177.5 -61.5
s64.5 -97.167 64.5 -168.5c0 -118.667 -45.333 -219.334 -136 -302.001s-205.334 -124 -344.001 -124c-96 0 -171.167 21.833 -225.5 65.5s-81.5 103.834 -81.5 180.501c0 24.667 2.5 52.167 7.5 82.5s12.167 60.166 21.5 89.499z" />
    <glyph glyph-name="afii10093" unicode="&#x44b;" horiz-adv-x="1616" 
d="M1501 285c-68 -107.333 -130.168 -185 -186.501 -233s-112.833 -72 -169.5 -72c-46.667 0 -85.667 14.167 -117 42.5s-47 63.833 -47 106.5c0 28 12 79 36 153l5 15l127 393c7.33301 21.333 12.833 41.5 16.5 60.5s5.5 34.5 5.5 46.5c0 24.667 -8.5 41.334 -25.5 50.001
s-67.167 13 -150.5 13l19 74l393 22l-244 -764c-4.66699 -13.333 -8.16699 -26 -10.5 -38s-3.5 -23 -3.5 -33c0 -15.333 3.83301 -27 11.5 -35s18.834 -12 33.501 -12c24.667 0 58 21.167 100 63.5s91.333 105.166 148 188.499zM333.999 457l-32.998 -117.001
c-6.66699 -23.333 -11.667 -45.666 -15 -66.999s-5 -41.333 -5 -60c0 -51.333 15 -91.833 45 -121.5s71 -44.5 123 -44.5c79.333 0 145.166 31.5 197.499 94.5s78.5 141.5 78.5 235.5c0 50 -12.667 87.667 -38 113s-63.333 38 -114 38
c-32.667 0 -68.334 -5.66699 -107.001 -17s-82.667 -29.333 -132 -54zM360.001 538.999c62.667 30 117 51.166 163 63.499s91.333 18.5 136 18.5c76 0 135.667 -20.5 179 -61.5s65 -97.167 65 -168.5c0 -118 -45.5 -218.5 -136.5 -301.5s-205.833 -124.5 -344.5 -124.5
c-96 0 -171.167 21.833 -225.5 65.5s-81.5 103.834 -81.5 180.501c0 26.667 2.5 55.167 7.5 85.5s11.833 59.166 20.5 86.499l99 307c8 26 14 48.167 18 66.5s6 31.833 6 40.5c0 24.667 -8.83301 41.334 -26.5 50.001s-68.167 13 -151.5 13l21 74l389 22z" />
    <glyph glyph-name="afii10094" unicode="&#x44c;" horiz-adv-x="1057" 
d="M305 457l-34.998 -117.001c-6.66699 -23.333 -11.667 -45.666 -15 -66.999s-5 -41.333 -5 -60c0 -51.333 15 -91.833 45 -121.5s71 -44.5 123 -44.5c80 0 146 31.5 198 94.5s78 141.5 78 235.5c0 50 -12.667 87.667 -38 113s-63 38 -113 38
c-32.667 0 -67.834 -5.66699 -105.501 -17s-81.834 -29.333 -132.501 -54zM330.002 538.999c61.333 29.333 115.332 50.332 161.999 62.999s93 19 139 19c75.333 0 134.333 -20.5 177 -61.5s64 -97.167 64 -168.5c0 -118 -45.167 -218.5 -135.5 -301.5
s-204.833 -124.5 -343.5 -124.5c-96 0 -171.5 21.833 -226.5 65.5s-82.5 103.834 -82.5 180.501c0 24.667 2.66699 52.167 8 82.5s13 60.166 23 89.499l98 307c7.33301 24.667 13 46.167 17 64.5s6 32.5 6 42.5c0 24.667 -8.66699 41.334 -26 50.001s-67.666 13 -150.999 13
l19 74l389 22z" />
    <glyph glyph-name="afii10095" unicode="&#x44d;" horiz-adv-x="950" 
d="M608 459l-361.998 0.00292969l20 80h355c1.33301 22.667 2.33301 41.667 3 57s1 29.666 1 42.999c0 85.333 -16 149.666 -48 192.999s-79 65 -141 65c-58.667 0 -113.834 -26 -165.501 -78s-93.5 -123.667 -125.5 -215l-61 19c36.667 112 88.167 198 154.5 258
s143.166 90 230.499 90c102 0 183.833 -35.667 245.5 -107s92.5 -166 92.5 -284c0 -164.667 -57.333 -308 -172 -430s-248.667 -183 -402 -183c-84.667 0 -152.5 20.5 -203.5 61.5s-76.5 94.167 -76.5 159.5c0 45.333 12.167 81.666 36.5 108.999s56.5 41 96.5 41
c30 0 55.333 -9.16699 76 -27.5s31 -40.5 31 -66.5c0 -38 -17.833 -67.5 -53.5 -88.5s-53.5 -35.833 -53.5 -44.5c0 -18.667 15.167 -35.334 45.5 -50.001s65.833 -22 106.5 -22c90 0 166.667 35.833 230 107.5s110 175.834 140 312.501z" />
    <glyph glyph-name="afii10096" unicode="&#x44e;" horiz-adv-x="1522" 
d="M686 291c0 -80 16.332 -141.001 48.999 -183.001s80 -63 142 -63c49.333 0 95.5 14.667 138.5 44s79.833 71.333 110.5 126c36 62 64.833 134.5 86.5 217.5s32.5 160.833 32.5 233.5s-16.833 128.667 -50.5 168s-81.5 59 -143.5 59c-46 0 -90.667 -15.167 -134 -45.5
s-80.666 -72.5 -111.999 -126.5c-32.667 -56.667 -60.667 -127.167 -84 -211.5s-35 -157.166 -35 -218.499zM42.999 -0.000976562l211 689.999c8 26 14.167 47.833 18.5 65.5s6.5 31.5 6.5 41.5c0 24.667 -8.83301 41.334 -26.5 50.001s-68.5 13 -152.5 13l19 74l381 22
l-129 -417h184c40.667 131.333 107.167 235.833 199.5 313.5s195.833 116.5 310.5 116.5c102 0 184.833 -35 248.5 -105s95.5 -161.333 95.5 -274c0 -73.333 -13 -146.5 -39 -219.5s-62 -137.833 -108 -194.5c-56 -68 -116 -119.167 -180 -153.5s-131.667 -51.5 -203 -51.5
c-108.667 0 -195 34.333 -259 103s-96 160.667 -96 276c0 13.333 0.833008 28.833 2.5 46.5s4.16699 38.5 7.5 62.5h-188l-137 -459h-166z" />
    <glyph glyph-name="afii10097" unicode="&#x44f;" horiz-adv-x="1182" 
d="M616 516l68 0.00292969l84 270c-38 29.333 -72.667 50.666 -104 63.999s-62.333 20 -93 20c-56.667 0 -105.667 -22.333 -147 -67s-62 -97.334 -62 -158.001c0 -46.667 17.333 -79.834 52 -99.501s94.667 -29.5 180 -29.5h22zM666 455.003l-121.002 0.000976562
c-50.667 0 -93.667 -11.833 -129 -35.5s-65.333 -61.167 -90 -112.5c-8.66699 -17.333 -20.667 -43 -36 -77c-74 -165.333 -161 -248 -261 -248c-44.667 0 -79.834 9.5 -105.501 28.5s-38.5 44.833 -38.5 77.5c0 34 9.66699 62 29 84s43.333 33 72 33
c35.333 0 64.333 -16.5 87 -49.5s36.667 -49.5 42 -49.5c24.667 0 57.334 47.667 98.001 143c16.667 38.667 30.334 69 41.001 91c17.333 37.333 40.5 67.166 69.5 89.499s65.167 38.166 108.5 47.499c-77.333 2 -135.833 19.333 -175.5 52s-59.5 80.334 -59.5 143.001
c0 84.667 30.333 155.667 91 213s137.334 86 230.001 86c48 0 93.667 -9.5 137 -28.5s87 -48.5 131 -88.5l25 80h162l-154 -500c-27.333 -89.333 -46.5 -156.333 -57.5 -201s-16.5 -78.667 -16.5 -102c0 -20.667 3.33301 -35.334 10 -44.001s17.667 -13 33 -13
c24 0 54.5 19.333 91.5 58s85.167 102 144.5 190l55 -37c-62.667 -106 -121.5 -183.333 -176.5 -232s-110.167 -73 -165.5 -73c-44 0 -79.833 14.667 -107.5 44s-41.5 67 -41.5 113c0 22.667 2.83301 48.334 8.5 77.001s15.167 63.667 28.5 105z" />
    <glyph glyph-name="afii10071" unicode="&#x451;" horiz-adv-x="891" 
d="M662 1239c0 28.667 10.833 54.333 32.5 77s46.167 34 73.5 34c28.667 0 53.5 -10.667 74.5 -32s31.5 -46.333 31.5 -75c0 -32 -10 -58.333 -30 -79s-45.333 -31 -76 -31c-29.333 0 -54.333 10.333 -75 31s-31 45.667 -31 75zM309 1239c0 28.667 10.833 54.333 32.5 77
s46.5 34 74.5 34c28.667 0 53.834 -10.833 75.501 -32.5s32.5 -46.5 32.5 -74.5c0 -31.333 -10.333 -57.5 -31 -78.5s-46.334 -31.5 -77.001 -31.5c-29.333 0 -54.5 10.333 -75.5 31s-31.5 45.667 -31.5 75zM195 431.998c151.333 34.667 262.833 79.6689 334.5 135.002
s107.5 123.666 107.5 204.999c0 33.333 -10 60.166 -30 80.499s-46.333 30.5 -79 30.5c-74 0 -140.5 -39.667 -199.5 -119s-103.5 -190 -133.5 -332zM745 186c-48 -71.333 -107.001 -126.337 -177.001 -165.004s-146 -58 -228 -58c-102.667 0 -185.667 34.667 -249 104
s-95 159.666 -95 270.999c0 85.333 20.333 170.5 61 255.5s97.334 160.833 170.001 227.5c50.667 45.333 105.5 80.333 164.5 105s117.5 37 175.5 37c74.667 0 134.334 -19.167 179.001 -57.5s67 -88.833 67 -151.5c0 -87.333 -52.333 -164.166 -157 -230.499
s-261.334 -122.166 -470.001 -167.499c-2 -15.333 -3.5 -29.666 -4.5 -42.999s-1.5 -25.666 -1.5 -36.999c0 -67.333 16.333 -119.666 49 -156.999s78.667 -56 138 -56c56.667 0 112.667 14.333 168 43s109 71 161 127z" />
    <glyph glyph-name="afii10099" unicode="&#x452;" horiz-adv-x="1153" 
d="M625 1522l-84.001 -312.001h280l-24 -80h-281l-121 -440c64 88 128.667 154.667 194 200s129 68 191 68c50.667 0 94.167 -17.167 130.5 -51.5s54.5 -75.833 54.5 -124.5c0 -33.333 -11.333 -88.666 -34 -165.999l-1 -3l-137 -492
c-53.333 -188.667 -118.666 -327.334 -195.999 -416.001s-170.666 -133 -279.999 -133c-62.667 0 -113.834 15.667 -153.501 47s-59.5 71.666 -59.5 120.999c0 38.667 10 68.834 30 90.501s47.667 32.5 83 32.5c29.333 0 53 -9.33301 71 -28s27 -43 27 -73
c0 -14.667 -4.66699 -30.5 -14 -47.5s-14 -28.167 -14 -33.5c0 -10.667 4.66699 -18.834 14 -24.501s23 -8.5 41 -8.5c52.667 0 96.5 25.833 131.5 77.5s79.833 171.834 134.5 360.501l168 567c0.666992 2.66699 2 7 4 13c14 48.667 21 83.334 21 104.001
c0 25.333 -7.66699 45.333 -23 60s-36.333 22 -63 22c-84 0 -169.667 -60.667 -257 -182s-157.333 -284 -210 -488l-47 -182h-187l322 1128h-221l26 82h217l13 46l3 10c14 51.333 21 84 21 98c0 24 -9.5 40.167 -28.5 48.5s-68.833 12.5 -149.5 12.5l21 74z" />
    <glyph glyph-name="afii10100" unicode="&#x453;" horiz-adv-x="924" 
d="M621 246l52.998 -43.0039c-64 -83.333 -127.5 -144.166 -190.5 -182.499s-130.5 -57.5 -202.5 -57.5s-128 17.833 -168 53.5s-60 85.5 -60 149.5c0 47.333 13.667 89.5 41 126.5s87.333 86.167 180 147.5c122.667 81.333 199.834 140.833 231.501 178.5
s47.5 77.834 47.5 120.501c0 30.667 -12.167 57.5 -36.5 80.5s-53.166 34.5 -86.499 34.5c-42.667 0 -85 -12.833 -127 -38.5s-86.333 -66.167 -133 -121.5l-47 39c50.667 76 109.334 134.667 176.001 176s137 62 211 62c62 0 112.667 -17.667 152 -53s59 -80 59 -134
c0 -84 -88.333 -190.333 -265 -319c-18.667 -13.333 -32.667 -23.666 -42 -30.999c-62.667 -45.333 -108.834 -88 -138.501 -128s-44.5 -79.333 -44.5 -118c0 -33.333 10.667 -60.666 32 -81.999s49 -32 83 -32c42 0 87 15 135 45s94.667 72.333 140 127zM472.998 1079h-88
l293 297c21.333 22 41.5 38.167 60.5 48.5s37.167 15.5 54.5 15.5c22 0 40.5 -7.83301 55.5 -23.5s22.5 -35.167 22.5 -58.5c0 -16.667 -5.5 -31.5 -16.5 -44.5s-30.833 -28.167 -59.5 -45.5z" />
    <glyph glyph-name="afii10101" unicode="&#x454;" horiz-adv-x="950" 
d="M232 459c-5.33301 -28 -9.16797 -55.335 -11.501 -82.002s-3.5 -52.667 -3.5 -78c0 -88.667 18 -154.167 54 -196.5s91 -63.5 165 -63.5c50.667 0 95.834 9.33301 135.501 28s59.5 38 59.5 58c0 11.333 -15.667 22.833 -47 34.5s-47 37.167 -47 76.5
c0 30.667 10.167 55.667 30.5 75s46.833 29 79.5 29c33.333 0 60.833 -11.167 82.5 -33.5s32.5 -50.833 32.5 -85.5c0 -73.333 -34 -134.666 -102 -183.999s-152.667 -74 -254 -74c-116 0 -206.833 34.5 -272.5 103.5s-98.5 164.833 -98.5 287.5c0 90 19.667 176.667 59 260
s96 158 170 224c48 42.667 101 75.5 159 98.5s116.333 34.5 175 34.5c29.333 0 56.333 -5.66699 81 -17s51.667 -30.333 81 -57l55 55h59l-88 -348h-71c0 6 0.333008 14.667 1 26c2 38.667 3 64.334 3 77.001c0 71.333 -11 121.833 -33 151.5s-59 44.5 -111 44.5
c-74.667 0 -138.667 -30 -192 -90s-97 -151.333 -131 -274h362l-20 -80h-362z" />
    <glyph glyph-name="afii10102" unicode="&#x455;" horiz-adv-x="901" 
d="M322 -35c-96.667 0 -175.501 22.499 -236.501 67.499s-91.5 103.167 -91.5 174.5c0 41.333 11 74.833 33 100.5s50.667 38.5 86 38.5c27.333 0 50.5 -9.66699 69.5 -29s28.5 -43.666 28.5 -72.999c0 -38.667 -18.667 -71.667 -56 -99
c-9.33301 -6.66699 -14 -11.334 -14 -14.001c0 -22.667 15.5 -43 46.5 -61s68.833 -27 113.5 -27c83.333 0 148.166 17.5 194.499 52.5s69.5 83.833 69.5 146.5c0 59.333 -52.333 109 -157 149c-7.33301 2.66699 -12.666 4.66699 -15.999 6
c-108 40 -179.833 79.5 -215.5 118.5s-53.5 89.833 -53.5 152.5c0 86.667 33.333 158.167 100 214.5s152 84.5 256 84.5c92.667 0 167.334 -19.167 224.001 -57.5s85 -88.166 85 -149.499c0 -35.333 -9.83301 -64.333 -29.5 -87s-44.5 -34 -74.5 -34
c-32.667 0 -59.334 8.83301 -80.001 26.5s-31 40.167 -31 67.5c0 23.333 8.66699 45.833 26 67.5s26 35.5 26 41.5c0 14 -13 26.333 -39 37s-59 16 -99 16c-67.333 0 -121.333 -15.667 -162 -47s-61 -72.333 -61 -123c0 -62 64.667 -117 194 -165l62 -23
c70.667 -27.333 120.834 -60.333 150.501 -99s44.5 -90.334 44.5 -155.001c0 -93.333 -36.5 -169.666 -109.5 -228.999s-167.5 -89 -283.5 -89z" />
    <glyph glyph-name="afii10103" unicode="&#x456;" horiz-adv-x="690" 
d="M342 1372c0 30 10.333 55.332 31 75.999s46 31 76 31c29.333 0 54.666 -10.5 75.999 -31.5s32 -46.167 32 -75.5s-10.667 -54.666 -32 -75.999s-46.666 -32 -75.999 -32s-54.5 10.5 -75.5 31.5s-31.5 46.5 -31.5 76.5zM578 284.999
c-68.667 -107.333 -131.166 -185.001 -187.499 -233.001s-112.833 -72 -169.5 -72c-46.667 0 -85.667 14.167 -117 42.5s-47 63.833 -47 106.5c0 17.333 2.5 37.333 7.5 60s15.5 58.667 31.5 108l127 393c8 23.333 14.167 44.5 18.5 63.5s6.5 33.5 6.5 43.5
c0 24.667 -8.83301 41.334 -26.5 50.001s-68.167 13 -151.5 13l20 74l393 22l-243 -763c-4.66699 -13.333 -8.33398 -26.333 -11.001 -39s-4 -23.667 -4 -33c0 -15.333 3.66699 -27 11 -35s18 -12 32 -12c25.333 0 59.333 21.5 102 64.5s92 105.5 148 187.5z" />
    <glyph glyph-name="afii10104" unicode="&#x457;" horiz-adv-x="690" 
d="M506 1239c0 28.667 10.833 54.333 32.5 77s46.167 34 73.5 34c29.333 0 54.833 -10.833 76.5 -32.5s32.5 -46.5 32.5 -74.5c0 -31.333 -10.333 -57.5 -31 -78.5s-46.667 -31.5 -78 -31.5c-28.667 0 -53.5 10.333 -74.5 31s-31.5 45.667 -31.5 75zM154 1239
c0 28.667 10.833 54.333 32.5 77s46.167 34 73.5 34c29.333 0 54.833 -10.833 76.5 -32.5s32.5 -46.5 32.5 -74.5c0 -31.333 -10.5 -57.5 -31.5 -78.5s-46.833 -31.5 -77.5 -31.5c-29.333 0 -54.333 10.333 -75 31s-31 45.667 -31 75zM578 284.998
c-68.667 -107.333 -131.166 -185.001 -187.499 -233.001s-112.833 -72 -169.5 -72c-46.667 0 -85.667 14.167 -117 42.5s-47 63.833 -47 106.5c0 17.333 2.5 37.333 7.5 60s15.5 58.667 31.5 108l127 393c8 23.333 14.167 44.5 18.5 63.5s6.5 33.5 6.5 43.5
c0 24.667 -8.83301 41.334 -26.5 50.001s-68.167 13 -151.5 13l20 74l393 22l-243 -763c-4.66699 -13.333 -8.33398 -26.333 -11.001 -39s-4 -23.667 -4 -33c0 -15.333 3.66699 -27 11 -35s18 -12 32 -12c25.333 0 59.333 21.5 102 64.5s92 105.5 148 187.5z" />
    <glyph glyph-name="afii10105" unicode="&#x458;" horiz-adv-x="678" 
d="M379 1372c0 29.333 10.501 54.5 31.501 75.5s46.5 31.5 76.5 31.5s55.667 -10.5 77 -31.5s32 -46.167 32 -75.5s-10.667 -54.666 -32 -75.999s-47 -32 -77 -32c-28.667 0 -53.834 10.667 -75.501 32s-32.5 46.666 -32.5 75.999zM287.001 690
c10 33.333 16.499 57 19.499 71s4.5 26 4.5 36c0 24.667 -8.83301 41.334 -26.5 50.001s-68.167 13 -151.5 13l21 74l381 22l-236 -835c-56.667 -198.667 -121.667 -339.834 -195 -423.501s-166 -125.5 -278 -125.5c-63.333 0 -114.666 15.5 -153.999 46.5
s-59 71.5 -59 121.5c0 38.667 10 68.834 30 90.501s47.667 32.5 83 32.5c29.333 0 53 -9.33301 71 -28s27 -43 27 -73c0 -14.667 -4.83301 -30.5 -14.5 -47.5s-14.5 -28.167 -14.5 -33.5c0 -10.667 4.83301 -18.834 14.5 -24.501s23.167 -8.5 40.5 -8.5
c89.333 0 174 138.667 254 416l7 22z" />
    <glyph glyph-name="afii10106" unicode="&#x459;" horiz-adv-x="1546" 
d="M834 457l-32.998 -117.001c-6.66699 -23.333 -11.834 -45.666 -15.501 -66.999s-5.5 -41.333 -5.5 -60c0 -51.333 15 -91.833 45 -121.5s71 -44.5 123 -44.5c80 0 146.167 31.5 198.5 94.5s78.5 141.5 78.5 235.5c0 50 -12.833 87.667 -38.5 113s-63.5 38 -113.5 38
c-32.667 0 -68.334 -5.66699 -107.001 -17s-82.667 -29.333 -132 -54zM287.002 542.999c34 120 65.668 202.5 95.001 247.5s67.333 80.5 114 106.5c62 35.333 184 54.666 366 57.999l127 3l-129 -419c62 29.333 116.333 50.333 163 63s92.667 19 138 19
c75.333 0 134.5 -20.5 177.5 -61.5s64.5 -97.167 64.5 -168.5c0 -118 -45.333 -218.5 -136 -301.5s-205 -124.5 -343 -124.5c-96.667 0 -172.5 21.833 -227.5 65.5s-82.5 103.834 -82.5 180.501c0 25.333 2.5 52.666 7.5 81.999s12.167 59.333 21.5 90l92 307l3 11
c14.667 51.333 22 83.333 22 96c0 22 -6.83301 37.667 -20.5 47s-36.834 14 -69.501 14c-72 0 -129.833 -21.833 -173.5 -65.5s-87.5 -137.167 -131.5 -280.5l-64 -211c-36 -116.667 -76.5 -199.334 -121.5 -248.001s-102.167 -73 -171.5 -73
c-39.333 0 -71.333 10.333 -96 31s-37 46.334 -37 77.001c0 34 9.16699 61.667 27.5 83s41.833 32 70.5 32c36 0 65.333 -16.167 88 -48.5s36.334 -48.5 41.001 -48.5c16.667 0 35.167 16.333 55.5 49s38.166 75.334 53.499 128.001z" />
    <glyph glyph-name="afii10107" unicode="&#x45a;" horiz-adv-x="1645" 
d="M899 457l-32.999 -117.002c-6.66699 -23.333 -11.667 -45.666 -15 -66.999s-5 -41.333 -5 -60c0 -51.333 15 -91.833 45 -121.5s71 -44.5 123 -44.5c79.333 0 145.166 31.833 197.499 95.5s78.5 141.834 78.5 234.501c0 50 -12.667 87.667 -38 113s-63 38 -113 38
c-33.333 0 -69.333 -5.66699 -108 -17s-82.667 -29.333 -132 -54zM197.001 -0.00195312l-172 -0.00390625l213 691c7.33301 22.667 12.833 43 16.5 61s5.5 33 5.5 45c0 24.667 -8.66699 41.334 -26 50.001s-67.333 13 -150 13l18 74l385 22l-129 -417h404l47 151
c7.33301 22.667 12.833 43.334 16.5 62.001s5.5 33.667 5.5 45c0 24.667 -8.5 41.334 -25.5 50.001s-67.167 13 -150.5 13l19 74l381 22l-129 -417c62.667 30 116.834 51.167 162.501 63.5s91.167 18.5 136.5 18.5c75.333 0 134.666 -20.5 177.999 -61.5
s65 -97.167 65 -168.5c0 -118 -45.167 -218.5 -135.5 -301.5s-204.833 -124.5 -343.5 -124.5c-90 0 -162.333 22.333 -217 67s-82 104.334 -82 179.001c0 20 1.83301 41.833 5.5 65.5s11.5 59.167 23.5 106.5l20 76h-405z" />
    <glyph glyph-name="afii10108" unicode="&#x45b;" horiz-adv-x="1241" 
d="M336 1128l-221.003 0.00195312l26 82h217l13 46l3 10c14 51.333 21 84 21 98c0 24 -9.5 40.167 -28.5 48.5s-68.833 12.5 -149.5 12.5l21 74l387 23l-84 -312h280l-24 -80h-281l-121 -440c61.333 86 125.333 152.167 192 198.5s130.334 69.5 191.001 69.5
c57.333 0 104.5 -16.667 141.5 -50s55.5 -75.333 55.5 -126c0 -18.667 -3 -42.834 -9 -72.501s-14.667 -62.167 -26 -97.5l-135 -419c-4.66699 -14 -8.16699 -27.333 -10.5 -40s-3.5 -23.334 -3.5 -32.001c0 -15.333 3.5 -26.666 10.5 -33.999s17.833 -11 32.5 -11
c26.667 0 61.334 21.167 104.001 63.5s91 104.5 145 186.5l58 -39c-61.333 -102 -121.666 -178.667 -180.999 -230s-117.333 -77 -174 -77c-48 0 -86.833 14.5 -116.5 43.5s-44.5 67.5 -44.5 115.5c0 16 3 36.167 9 60.5s16 56.833 30 97.5l116 356
c8.66699 26 15 48.667 19 68s6 35.666 6 48.999c0 25.333 -7.83301 45.333 -23.5 60s-37.167 22 -64.5 22c-85.333 0 -171.5 -60.5 -258.5 -181.5s-157.167 -283.833 -210.5 -488.5l-47 -182h-187z" />
    <glyph glyph-name="afii10109" unicode="&#x45c;" horiz-adv-x="1210" 
d="M43 0l210.997 690c8 26 14.167 47.833 18.5 65.5s6.5 31.5 6.5 41.5c0 24.667 -8.83301 41.334 -26.5 50.001s-68.5 13 -152.5 13l19 74l389 22l-131 -436h53c66 0 141.333 70.333 226 211l8 13c50.667 84.667 95 141.167 133 169.5s83 42.5 135 42.5
c55.333 0 100.166 -14 134.499 -42s51.5 -63.667 51.5 -107c0 -34 -10.167 -61.667 -30.5 -83s-46.833 -32 -79.5 -32c-33.333 0 -59.833 8 -79.5 24s-29.5 37.333 -29.5 64c0 18 5.16699 35 15.5 51s15.5 25.667 15.5 29c0 7.33301 -3.16699 12.666 -9.5 15.999
s-16.166 5 -29.499 5c-41.333 0 -96.666 -59.333 -165.999 -178l-12 -21c-39.333 -64 -71.166 -107.667 -95.499 -131s-51.166 -39 -80.499 -47c81.333 -8 141.166 -32 179.499 -72s57.5 -98 57.5 -174c0 -7.33301 -0.333008 -24.333 -1 -51s-1 -50 -1 -70
c0 -26.667 3 -45.167 9 -55.5s16 -15.5 30 -15.5c16.667 0 35.167 10.167 55.5 30.5s51.833 62.5 94.5 126.5l55 -30c-41.333 -80 -83 -137.667 -125 -173s-89.667 -53 -143 -53c-48.667 0 -86.167 14.5 -112.5 43.5s-39.5 70.5 -39.5 124.5c0 29.333 2.33301 65.333 7 108
s7 71 7 85c0 46 -13.167 78.667 -39.5 98s-75.166 29 -146.499 29h-66l-139 -455h-176zM615.997 1079h-88l293 297c21.333 22 41.5 38.167 60.5 48.5s37.167 15.5 54.5 15.5c22 0 40.5 -7.83301 55.5 -23.5s22.5 -35.167 22.5 -58.5c0 -16.667 -5.5 -31.5 -16.5 -44.5
s-30.833 -28.167 -59.5 -45.5z" />
    <glyph glyph-name="afii10110" unicode="&#x45e;" horiz-adv-x="977" 
d="M385 -6c-31.333 242 -66.499 437.665 -105.499 586.998s-72.833 224 -101.5 224c-16.667 0 -35 -14.5 -55 -43.5s-46.667 -80.167 -80 -153.5l-66 27c46 108 91.5 189.333 136.5 244s89.167 82 132.5 82c78.667 0 163 -205.667 253 -617l25 -114l34 59
c115.333 204.667 173 346.667 173 426c0 24 -1 50.833 -3 80.5s-3 47.167 -3 52.5c0 33.333 9 60 27 80s41.667 30 71 30c27.333 0 49.166 -9.16699 65.499 -27.5s24.5 -42.5 24.5 -72.5c0 -66.667 -86.667 -255 -260 -565l-32 -57c-160 -284 -281 -466.333 -363 -547
s-168 -121 -258 -121c-56.667 0 -102.5 14.333 -137.5 43s-52.5 65.334 -52.5 110.001c0 34.667 9.5 62.834 28.5 84.501s43.5 32.5 73.5 32.5c30.667 0 55.667 -9.16699 75 -27.5s29 -41.833 29 -70.5c0 -11.333 -0.666992 -22.666 -2 -33.999l-2 -17
c0 -10.667 3.33301 -18.834 10 -24.501s15.667 -8.5 27 -8.5c43.333 0 97.333 31.667 162 95s122.667 144.333 174 243zM416.001 1224c12 -16 32.0029 -28.334 60.0029 -37.001s62.333 -13 103 -13c41.333 0 81.166 4.83301 119.499 14.5s72.833 23.834 103.5 42.501
c-17.333 3.33301 -30.5 10.666 -39.5 21.999s-13.5 26.333 -13.5 45c0 27.333 9.16699 51 27.5 71s39.833 30 64.5 30c27.333 0 49.166 -8 65.499 -24s24.5 -37.333 24.5 -64c0 -53.333 -35.333 -100.166 -106 -140.499s-155.334 -60.5 -254.001 -60.5
c-78 0 -139.833 16.333 -185.5 49s-68.5 75.667 -68.5 129c0 30.667 9.66699 56.5 29 77.5s42.333 31.5 69 31.5s47.667 -8.16699 63 -24.5s23 -38.166 23 -65.499c0 -24.667 -7.66699 -44.334 -23 -59.001s-36 -22.667 -62 -24z" />
    <glyph glyph-name="afii10193" unicode="&#x45f;" horiz-adv-x="1241" 
d="M647 231c-59.333 -88 -133.167 -158.835 -221.5 -212.502s-132.5 -89.167 -132.5 -106.5c0 -12 8.5 -35.333 25.5 -70s25.5 -64.667 25.5 -90c0 -37.333 -19.167 -74.833 -57.5 -112.5s-88.166 -67.167 -149.499 -88.5l-16 31c37.333 30.667 61.666 54.5 72.999 71.5
s17 34.833 17 53.5c0 14 -6.5 35.167 -19.5 63.5s-19.5 50.833 -19.5 67.5c0 22 7.5 42.333 22.5 61s43.5 42 85.5 70c-8.66699 -2 -16.167 -3.5 -22.5 -4.5s-12.166 -1.5 -17.499 -1.5c-51.333 0 -92.833 16.667 -124.5 50s-47.5 78 -47.5 134c0 16 3.16699 39 9.5 69
s14.5 61 24.5 93l127 381c8 22.667 14.167 43.834 18.5 63.501s6.5 34.167 6.5 43.5c0 24.667 -9.16699 41.334 -27.5 50.001s-66.5 13 -144.5 13l18 74l387 22l-219 -675c-10 -30 -16.833 -54.167 -20.5 -72.5s-5.5 -36.5 -5.5 -54.5c0 -22.667 8.66699 -41 26 -55
s40.666 -21 69.999 -21c82 0 163 58.5 243 175.5s154.667 286.5 224 508.5l55 172h184c-82 -212.667 -145.167 -389.667 -189.5 -531s-66.5 -236.666 -66.5 -285.999c0 -20 3.5 -34.333 10.5 -43s17.833 -13 32.5 -13c24 0 54.5 19.333 91.5 58s85.167 102 144.5 190l55 -39
c-60.667 -101.333 -119.167 -177.5 -175.5 -228.5s-110.5 -76.5 -162.5 -76.5c-44 0 -80.167 14.667 -108.5 44s-42.5 67.333 -42.5 114c0 12 1 25.667 3 41s5.66699 37.666 11 66.999z" />
    <glyph glyph-name="afii10050" unicode="&#x490;" horiz-adv-x="1251" 
d="M1405 1817l78.001 -0.000976562l-105 -431h-497c-78.667 0 -130.834 -5 -156.501 -15s-45.167 -41 -58.5 -93l-265 -1040c-6 -28.667 -10.167 -49.167 -12.5 -61.5s-3.5 -21.166 -3.5 -26.499c0 -22 7.83301 -36.833 23.5 -44.5s54.5 -12.167 116.5 -13.5l63 -2l-19 -90
h-624l18 90l110 10c27.333 2.66699 47.833 9.5 61.5 20.5s23.5 28.167 29.5 51.5l272 1071c6.66699 24.667 11.167 43.167 13.5 55.5s3.5 22.5 3.5 30.5c0 21.333 -8 36 -24 44s-54.667 12.333 -116 13l-69 3l18 90h666c140.667 0 244.5 24.5 311.5 73.5
s122.167 137.167 165.5 264.5z" />
    <glyph glyph-name="afii10098" unicode="&#x491;" horiz-adv-x="872" 
d="M827 1075l81.999 0.000976562c-45.333 -130 -83.333 -212.333 -114 -247s-73.667 -57.334 -129 -68.001c-12.667 -2.66699 -31.334 -5.66699 -56.001 -9c-74 -10 -127 -27.667 -159 -53c-31.333 -24 -62 -85.667 -92 -185l-1 -1l-65 -211
c-36 -116.667 -76.5 -199.334 -121.5 -248.001s-102.167 -73 -171.5 -73c-39.333 0 -71.333 10.333 -96 31s-37 46.334 -37 77.001c0 34 9.16699 61.667 27.5 83s41.833 32 70.5 32c36 0 65.333 -16.167 88 -48.5s36.334 -48.5 41.001 -48.5c16.667 0 34.834 16 54.501 48
s37.834 75 54.501 129l78 258l20 69c59.333 203.333 163.666 311.333 312.999 324c3.33301 0 8.33301 0.333008 15 1c100 8 166 54.667 198 140z" />
    <glyph glyph-name="endash" unicode="&#x2013;" 
d="M-61 424l34 125h994l-35 -125h-993z" />
    <glyph glyph-name="emdash" unicode="&#x2014;" horiz-adv-x="2048" 
d="M264 424l35 125h1364l-33 -125h-1366z" />
    <glyph glyph-name="quoteleft" unicode="&#x2018;" horiz-adv-x="606" 
d="M383 1190l5.99902 0.000976562c46.667 0 81.834 -9.66699 105.501 -29s35.5 -48 35.5 -86c0 -34.667 -12 -64.167 -36 -88.5s-53.333 -36.5 -88 -36.5c-42 0 -76.833 16.167 -104.5 48.5s-41.5 73.5 -41.5 123.5c0 82 31 157.5 93 226.5s147 122.5 255 160.5l31 -65
c-80 -34.667 -142 -73.834 -186 -117.501s-67.333 -89.167 -70 -136.5z" />
    <glyph glyph-name="quoteright" unicode="&#x2019;" horiz-adv-x="606" 
d="M483 1276l-12.002 -0.000976562c-43.333 0 -76.666 10 -99.999 30s-35 49 -35 87c0 34 11.833 63.333 35.5 88s52.834 37 87.501 37c40.667 0 75 -16 103 -48s42 -72 42 -120c0 -86 -30.333 -163.5 -91 -232.5s-145.667 -122.833 -255 -161.5l-33 66
c82 35.333 145 74.833 189 118.5s67 88.834 69 135.501z" />
    <glyph glyph-name="quotesinglbase" unicode="&#x201a;" horiz-adv-x="606" 
d="M270 -2h-5.99902c-46 0 -81 10 -105 30s-36 49 -36 87c0 34.667 12 63.834 36 87.501s53.667 35.5 89 35.5c40.667 0 75 -16 103 -48s42 -72 42 -120c0 -84.667 -30.333 -161.334 -91 -230.001s-146.334 -122.667 -257.001 -162l-31 66c82 35.333 144.667 74.5 188 117.5
s66 88.5 68 136.5z" />
    <glyph glyph-name="quotedblleft" unicode="&#x201c;" horiz-adv-x="1036" 
d="M781 1194h4.99902c46.667 0 82 -9.66699 106 -29s36 -48 36 -86c0 -34.667 -12.167 -64.167 -36.5 -88.5s-53.833 -36.5 -88.5 -36.5c-41.333 0 -76 16 -104 48s-42 72 -42 120c0 85.333 30.667 162.5 92 231.5s147 123.167 257 162.5l30 -68
c-82 -36 -144.667 -75.667 -188 -119s-65.666 -88.333 -66.999 -135zM368.999 1194h6c46 0 81 -9.66699 105 -29s36 -48 36 -86c0 -34.667 -12.167 -64.167 -36.5 -88.5s-53.833 -36.5 -88.5 -36.5c-40.667 0 -75 16 -103 48s-42 72 -42 120c0 85.333 30.5 162.5 91.5 231.5
s146.5 123.167 256.5 162.5l31 -68c-82 -35.333 -144.667 -74.5 -188 -117.5s-66 -88.5 -68 -136.5z" />
    <glyph glyph-name="quotedblright" unicode="&#x201d;" horiz-adv-x="1036" 
d="M888 1276h-4.99902c-46 0 -81.167 10 -105.5 30s-36.5 49 -36.5 87c0 34.667 12.167 64.167 36.5 88.5s53.833 36.5 88.5 36.5c41.333 0 76 -16 104 -48s42 -72 42 -120c0 -85.333 -30.5 -162.5 -91.5 -231.5s-146.5 -123.167 -256.5 -162.5l-31 66
c82 36 144.667 75.667 188 119s65.666 88.333 66.999 135zM479.001 1276h-6c-46 0 -81 10 -105 30s-36 49 -36 87c0 34.667 12 64.167 36 88.5s53.667 36.5 89 36.5c40.667 0 75 -16 103 -48s42 -72 42 -120c0 -85.333 -30.167 -162.5 -90.5 -231.5
s-145.5 -123.167 -255.5 -162.5l-33 66c82 35.333 144.667 74.5 188 117.5s66 88.5 68 136.5z" />
    <glyph glyph-name="quotedblbase" unicode="&#x201e;" horiz-adv-x="1036" 
d="M694 -2l-6 -0.000976562c-46 0 -81 10 -105 30s-36 49 -36 87c0 34.667 11.667 63.834 35 87.501s52.666 35.5 87.999 35.5c40.667 0 75 -16 103 -48s42 -72 42 -120c0 -85.333 -30.167 -162.166 -90.5 -230.499s-145.5 -122.166 -255.5 -161.499l-33 66
c82.667 35.333 145.834 74.666 189.501 117.999s66.5 88.666 68.5 135.999zM282 -2.00098l-6.00098 -0.00292969c-46 0 -81 10 -105 30s-36 49 -36 87c0 34.667 11.833 63.834 35.5 87.501s52.834 35.5 87.501 35.5c41.333 0 75.833 -16 103.5 -48s41.5 -72 41.5 -120
c0 -85.333 -30.167 -162.166 -90.5 -230.499s-145.5 -122.166 -255.5 -161.499l-32 66c82 35.333 144.833 74.5 188.5 117.5s66.5 88.5 68.5 136.5z" />
    <glyph glyph-name="dagger" unicode="&#x2020;" 
d="M274 -199c36.667 163.333 63.3311 309.5 79.998 438.5s25 249.833 25 362.5v66c36.667 38.667 68.834 87.334 96.501 146.001s52.834 131.334 75.501 218.001h-4c-40.667 0 -89.834 -13 -147.501 -39s-100.167 -39 -127.5 -39c-30 0 -54.5 9.66699 -73.5 29
s-28.5 44.666 -28.5 75.999c0 28.667 8.5 50.834 25.5 66.501s41.167 23.5 72.5 23.5c22.667 0 65.667 -12.333 129 -37l4 -2c34.667 -14 63.5 -23.5 86.5 -28.5s46.167 -7.83301 69.5 -8.5c6 28.667 10.5 55.834 13.5 81.501s4.5 50.5 4.5 74.5c0 29.333 -3 65.5 -9 108.5
s-9 70.833 -9 83.5c0 33.333 8.33301 58.166 25 74.499s41.667 24.5 75 24.5c28.667 0 52.334 -8.33301 71.001 -25s28 -37.667 28 -63c0 -20 -22.5 -66.833 -67.5 -140.5s-73.833 -146.5 -86.5 -218.5c56.667 0 114.667 12.667 174 38s97 38 113 38
c30 0 54.167 -9.16699 72.5 -27.5s27.5 -42.5 27.5 -72.5c0 -26.667 -8.16699 -48.834 -24.5 -66.501s-37.5 -26.5 -63.5 -26.5c-16.667 0 -57.667 12.667 -123 38s-127.333 38 -186 38c-5.33301 -28.667 -9 -54.167 -11 -76.5s-3 -43.833 -3 -64.5
c0 -42.667 3.16699 -81.834 9.5 -117.501s15.833 -69.5 28.5 -101.5c-54.667 -104 -105.167 -226.5 -151.5 -367.5s-90.5 -308.833 -132.5 -503.5h-58z" />
    <glyph glyph-name="doubledagger" unicode="&#x2021;" 
d="M401 668c36.667 38 68.498 85.834 95.498 143.501s51.833 131.167 74.5 220.5h-4c-40 0 -88.833 -13 -146.5 -39s-100.167 -39 -127.5 -39c-30.667 0 -55.5 9.5 -74.5 28.5s-28.5 43.833 -28.5 74.5c0 29.333 8.66699 52 26 68s41.666 24 72.999 24
c21.333 0 63.666 -12.5 126.999 -37.5s117 -37.833 161 -38.5c6.66699 29.333 11.5 56.833 14.5 82.5s4.5 50.167 4.5 73.5c0 29.333 -3 65.5 -9 108.5s-9 70.833 -9 83.5c0 32.667 8.5 57.334 25.5 74.001s42.5 25 76.5 25c28.667 0 52.167 -8.66699 70.5 -26
s27.5 -38.666 27.5 -63.999c0 -20 -22.667 -66.5 -68 -139.5s-74.333 -145.5 -87 -217.5c56.667 0 115 12.667 175 38s97.667 38 113 38c30.667 0 55.167 -9.16699 73.5 -27.5s27.5 -42.5 27.5 -72.5c0 -26.667 -8.5 -48.834 -25.5 -66.501s-38.5 -26.5 -64.5 -26.5
c-17.333 0 -58.166 12.333 -122.499 37s-126.166 37 -185.499 37c-4.66699 -36.667 -8.16699 -66.834 -10.5 -90.501s-3.5 -44.5 -3.5 -62.5c0 -36.667 3.16699 -71.667 9.5 -105s16.166 -66.666 29.499 -99.999c-40.667 -52 -74.5 -107 -101.5 -165s-50.5 -128 -70.5 -210
h4c40 0 88.667 13.333 146 40s100 40 128 40c30.667 0 55.5 -9.66699 74.5 -29s28.5 -44.666 28.5 -75.999c0 -28.667 -8.66699 -51.167 -26 -67.5s-41.333 -24.5 -72 -24.5c-23.333 0 -66.333 12.333 -129 37s-116 37.667 -160 39c-6 -28.667 -10.667 -56 -14 -82
s-5 -50.667 -5 -74c0 -29.333 3.16699 -65 9.5 -107s9.5 -69 9.5 -81c0 -34.667 -8.33301 -60.334 -25 -77.001s-42.667 -25 -78 -25c-28 0 -51.333 8.5 -70 25.5s-28 38.5 -28 64.5c0 20 22.667 66.5 68 139.5s74.666 145.167 87.999 216.5
c-56.667 -0.666992 -115.167 -13.167 -175.5 -37.5s-98.166 -36.5 -113.499 -36.5c-30 0 -54.167 8.66699 -72.5 26s-27.5 40 -27.5 68c0 29.333 8.33301 53.166 25 71.499s38.334 27.5 65.001 27.5c16.667 0 57.334 -12.667 122.001 -38s126.334 -38 185.001 -38
c5.33301 33.333 9 61.5 11 84.5s3 43.833 3 62.5c0 35.333 -3 71.166 -9 107.499s-15.333 74.5 -28 114.5z" />
    <glyph glyph-name="bullet" unicode="&#x2022;" horiz-adv-x="1208" 
d="M307 762c0 82 28.999 151.666 86.999 208.999s128 86 210 86c81.333 0 150.833 -28.833 208.5 -86.5s86.5 -127.167 86.5 -208.5s-29.167 -151.166 -87.5 -209.499s-128.166 -87.5 -209.499 -87.5c-82 0 -151.667 29 -209 87s-86 128 -86 210z" />
    <glyph glyph-name="ellipsis" unicode="&#x2026;" horiz-adv-x="2048" 
d="M245 219c35.333 0 65.333 -12.5 90 -37.5s37 -54.833 37 -89.5s-12.167 -64.167 -36.5 -88.5s-54.5 -36.5 -90.5 -36.5c-34 0 -63.333 12.333 -88 37s-37 54 -37 88c0 35.333 12.167 65.333 36.5 90s53.833 37 88.5 37zM927 219c35.333 0 65.333 -12.5 90 -37.5
s37 -54.833 37 -89.5s-12.167 -64.167 -36.5 -88.5s-54.5 -36.5 -90.5 -36.5c-34 0 -63.333 12.333 -88 37s-37 54 -37 88c0 35.333 12.167 65.333 36.5 90s53.833 37 88.5 37zM1611 219c35.333 0 65.333 -12.5 90 -37.5s37 -54.833 37 -89.5s-12.167 -64.167 -36.5 -88.5
s-54.5 -36.5 -90.5 -36.5c-34 0 -63.333 12.333 -88 37s-37 54 -37 88c0 35.333 12.167 65.333 36.5 90s53.833 37 88.5 37z" />
    <glyph glyph-name="perthousand" unicode="&#x2030;" horiz-adv-x="2456" 
d="M2306 512c0 54 -13.334 97.501 -40.001 130.501s-61 49.5 -103 49.5c-34 0 -66.333 -12.5 -97 -37.5s-66 -68.5 -106 -130.5c-47.333 -74 -84.166 -142.667 -110.499 -206s-39.5 -114.666 -39.5 -153.999c0 -40 13.333 -72.167 40 -96.5s62 -36.5 106 -36.5
c41.333 0 81.5 13 120.5 39s76.5 64.667 112.5 116c38 53.333 67 108.166 87 164.499s30 110.166 30 161.499zM2107 756.001c81.333 0 144.334 -21.335 189.001 -64.002s67 -102.667 67 -180c0 -60.667 -12.667 -124.667 -38 -192s-60.333 -129.666 -105 -186.999
c-42.667 -55.333 -89.834 -97.166 -141.501 -125.499s-106.167 -42.5 -163.5 -42.5c-77.333 0 -139.333 24.667 -186 74s-70 115 -70 197c0 56 12 113 36 171s59 114 105 168c50 58.667 101.333 103.5 154 134.5s103.667 46.5 153 46.5zM1536 511.999
c0 54 -13.334 97.501 -40.001 130.501s-61 49.5 -103 49.5c-34 0 -66.333 -12.5 -97 -37.5s-66 -68.5 -106 -130.5c-47.333 -74 -84.166 -142.667 -110.499 -206s-39.5 -114.666 -39.5 -153.999c0 -40 13.333 -72.167 40 -96.5s62 -36.5 106 -36.5
c41.333 0 81.5 13 120.5 39s76.5 64.667 112.5 116c38 53.333 67 108.166 87 164.499s30 110.166 30 161.499zM1337 756c81.333 0 144.333 -21.332 189 -63.999s67 -102.667 67 -180c0 -61.333 -12.333 -125.5 -37 -192.5s-59.334 -129.167 -104.001 -186.5
c-42.667 -54.667 -90.167 -96.334 -142.5 -125.001s-107.166 -43 -164.499 -43c-76.667 0 -138.5 24.833 -185.5 74.5s-70.5 115.167 -70.5 196.5c0 56 12 113 36 171s59 114 105 168c49.333 58.667 100.5 103.5 153.5 134.5s104.167 46.5 153.5 46.5zM714.999 1261
c-28.667 7.33301 -54.167 18.667 -76.5 34s-41.166 34 -56.499 56c-32 -0.666992 -63.333 -13.667 -94 -39s-65.667 -68 -105 -128c-48 -73.333 -85 -141.166 -111 -203.499s-39 -114.833 -39 -157.5c0 -39.333 13.167 -71.333 39.5 -96s60.5 -37 102.5 -37
s83.167 13.167 123.5 39.5s78.166 65.166 113.499 116.499c38 54.667 67.333 111 88 169s31 113 31 165c0 11.333 -1.5 24.333 -4.5 39s-6.83301 28.667 -11.5 42zM368.999 -34.998l745.002 1321c-36.667 -21.333 -73.834 -37.5 -111.501 -48.5s-74.167 -16.5 -109.5 -16.5
c-26 0 -48.5 1.33301 -67.5 4s-35.167 6.66699 -48.5 12c2 -10 3.66699 -20.667 5 -32s2 -24 2 -38c0 -58.667 -12.333 -120.834 -37 -186.501s-59.334 -127.5 -104.001 -185.5c-42.667 -55.333 -89.5 -97.166 -140.5 -125.499s-104.5 -42.5 -160.5 -42.5
c-78.667 0 -141.667 24.833 -189 74.5s-71 115.5 -71 197.5c0 56.667 12 114 36 172s59 114 105 168c50 58.667 101.333 103.334 154 134.001s103.667 46 153 46c51.333 0 94.166 -7.66699 128.499 -23s62.5 -39.666 84.5 -72.999c18.667 -15.333 40.834 -27 66.501 -35
s54.167 -12 85.5 -12c60 0 121 15.667 183 47s109.667 71.666 143 120.999h90l-842 -1479h-100z" />
    <glyph glyph-name="guilsinglleft" unicode="&#x2039;" horiz-adv-x="649" 
d="M109 483c86.667 59.333 172.331 124.331 256.998 194.998s131.334 106 140.001 106c4.66699 0 8.83398 -2.16699 12.501 -6.5s5.5 -9.5 5.5 -15.5c0 -17.333 -20.167 -48.333 -60.5 -93s-107.5 -110 -201.5 -196c48.667 -83.333 84 -146.166 106 -188.499
s33 -68.166 33 -77.499c0 -10 -1.66699 -17.167 -5 -21.5s-9 -6.83301 -17 -7.5c-14.667 0 -50.5 37 -107.5 111s-111.167 138.667 -162.5 194z" />
    <glyph glyph-name="guillsinglright" unicode="&#x203a;" horiz-adv-x="649" 
d="M463 479c-87.333 -58.667 -173.335 -123.498 -258.002 -194.498s-131 -106.5 -139 -106.5c-5.33301 0.666992 -9.5 3 -12.5 7s-4.5 9.33301 -4.5 16c0 16.667 19.5 46.5 58.5 89.5s106.833 108.5 203.5 196.5c-46.667 79.333 -81.5 141.166 -104.5 185.499
s-34.5 72.166 -34.5 83.499c0 8.66699 1.83301 15.5 5.5 20.5s8.83398 7.5 15.501 7.5c14.667 0 50.334 -36.833 107.001 -110.5s111 -138.5 163 -194.5z" />
    <glyph glyph-name="Euro" unicode="&#x20ac;" horiz-adv-x="1118" 
d="M954 455l75.9971 -37c-53.333 -154.667 -118.5 -268.5 -195.5 -341.5s-170.167 -109.5 -279.5 -109.5c-133.333 0 -239 55.333 -317 166s-117 261.667 -117 453v24h-107l35 76h80c2.66699 22.667 8.66699 57.667 18 105l3 12h-150l33 76h133
c54 199.333 133.333 356.333 238 471s220 172 346 172c58.667 0 111.334 -14.5 158.001 -43.5s88 -72.5 124 -130.5l92 135h56l-105 -586h-78v68c0 168 -19.167 288.167 -57.5 360.5s-100.833 108.5 -187.5 108.5c-85.333 0 -159.666 -46.167 -222.999 -138.5
s-116 -231.166 -158 -416.499h430l-33 -76h-412l-13.5 -61.5c-4.33301 -19.667 -7.83301 -37.834 -10.5 -54.501l381 -1l-35 -76h-356c-3.33301 -24.667 -5.66602 -48.667 -6.99902 -72s-2 -46.333 -2 -69c0 -128 23.833 -227.667 71.5 -299s113.5 -107 197.5 -107
c78.667 0 149.167 32.833 211.5 98.5s115.833 163.5 160.5 293.5z" />
    <glyph glyph-name="afii61352" unicode="&#x2116;" horiz-adv-x="1954" 
d="M1188 -27l29 125h479l-29 -125h-479zM1444 528c0 -38 8.16797 -67.834 24.501 -89.501s38.833 -32.5 67.5 -32.5c52 0 97.833 35.333 137.5 106s59.5 149.334 59.5 236.001c0 40 -7.83301 70.667 -23.5 92s-38.167 32 -67.5 32c-52.667 0 -98.834 -35 -138.501 -105
s-59.5 -149.667 -59.5 -239zM1317 572.999c0 96.667 32.668 182.334 98.001 257.001s141 112 227 112c66 0 119.5 -21.5 160.5 -64.5s61.5 -99.167 61.5 -168.5c0 -96.667 -32.833 -182.334 -98.5 -257.001s-140.834 -112 -225.501 -112c-67.333 0 -121.333 21.333 -162 64
s-61 99 -61 169zM1053 417.999l172.001 704.003c35.333 147.333 76.333 250.166 123 308.499s108.667 87.5 186 87.5c62 0 113 -19.833 153 -59.5s60 -90.167 60 -151.5c0 -62 -15 -112 -45 -150s-69 -57 -117 -57c-33.333 0 -60.833 10.5 -82.5 31.5
s-32.5 47.833 -32.5 80.5c0 51.333 22.333 88 67 110s67 38 67 48c0 14.667 -7 26.834 -21 36.501s-31.667 14.5 -53 14.5c-44 0 -81 -21.833 -111 -65.5s-58 -116.5 -84 -218.5l-286 -1164h-74l-412 1170l-192 -785c-36 -144.667 -77.667 -247 -125 -307
s-108.333 -90 -183 -90c-62.667 0 -114.167 19.667 -154.5 59s-60.5 90 -60.5 152c0 61.333 15.167 111.166 45.5 149.499s69.166 57.5 116.499 57.5c34 0 61.667 -10.333 83 -31s32 -47.334 32 -80.001c0 -51.333 -22.167 -87.833 -66.5 -109.5s-66.5 -37.5 -66.5 -47.5
c0 -14.667 6.83301 -27.334 20.5 -38.001s30.5 -16 50.5 -16c44 0 81 21.667 111 65s58 117.333 84 222l246 969c-10 24.667 -24 42.5 -42 53.5s-42.667 17.5 -74 19.5l-124 7l12 86h400z" />
    <glyph glyph-name="trademark" unicode="&#x2122;" horiz-adv-x="1683" 
d="M780 1442l191 0.00195312l137 -391l143 391h181v-25l-30 -2c-14 -1.33301 -24.5 -6.33301 -31.5 -15s-10.5 -21.334 -10.5 -38.001v-375c0 -16.667 3.5 -29.334 10.5 -38.001s17.5 -13.667 31.5 -15l30 -2v-29h-240v29l31 2c14 1.33301 24.667 6.5 32 15.5
s11 21.5 11 37.5v387l-172 -473h-21l-172 475v-389c0 -16 3.66699 -28.5 11 -37.5s18 -14.167 32 -15.5l33 -2v-29h-197v29l34 2c13.333 1.33301 23.666 6.5 30.999 15.5s11 21.5 11 37.5v371c0 16 -3.66699 28.5 -11 37.5s-17.666 14.167 -30.999 15.5l-34 4v27zM250 1442
h444.001l11 -182h-27c-5.33301 52 -18.833 90.167 -40.5 114.5s-53.167 36.5 -94.5 36.5h-17v-424c0 -16 3.5 -28.5 10.5 -37.5s17.167 -14.167 30.5 -15.5l33 -2v-29h-254v29l31 2c14 1.33301 24.667 6.5 32 15.5s11 21.5 11 37.5v424h-17
c-42.667 0 -74.834 -12 -96.501 -36s-35.167 -62.333 -40.5 -115h-26z" />
    <glyph glyph-name="periodcentered" unicode="&#x2219;" horiz-adv-x="559" 
d="M279 825c32 0 59.999 -12.168 83.999 -36.501s36 -53.166 36 -86.499c0 -32.667 -11.667 -60.834 -35 -84.501s-51.666 -35.5 -84.999 -35.5c-34 0 -62.667 11.833 -86 35.5s-35 51.834 -35 84.501c0 34 11.833 63 35.5 87s52.167 36 85.5 36z" />
    <glyph glyph-name=".null" horiz-adv-x="0" 
 />
    <glyph glyph-name="nonmarkingreturn" horiz-adv-x="559" 
 />
    <glyph glyph-name="c6460" 
d="M522 1079h-88l293 297c21.333 22 41.5 38.167 60.5 48.5s37.167 15.5 54.5 15.5c22 0 40.5 -7.83301 55.5 -23.5s22.5 -35.167 22.5 -58.5c0 -16.667 -5.5 -31.5 -16.5 -44.5s-30.833 -28.167 -59.5 -45.5z" />
    <glyph glyph-name="c6462" 
d="M439 1224c12 -16 32.0029 -28.334 60.0029 -37.001s62.333 -13 103 -13c41.333 0 81.166 4.83301 119.499 14.5s72.833 23.834 103.5 42.501c-17.333 3.33301 -30.5 10.666 -39.5 21.999s-13.5 26.333 -13.5 45c0 27.333 9.16699 51 27.5 71s39.833 30 64.5 30
c27.333 0 49.166 -8 65.499 -24s24.5 -37.333 24.5 -64c0 -53.333 -35.333 -100.166 -106 -140.499s-155.334 -60.5 -254.001 -60.5c-78 0 -139.833 16.333 -185.5 49s-68.5 75.667 -68.5 129c0 30.667 9.66699 56.5 29 77.5s42.333 31.5 69 31.5s47.667 -8.16699 63 -24.5
s23 -38.166 23 -65.499c0 -24.667 -7.66699 -44.334 -23 -59.001s-36 -22.667 -62 -24z" />
  </font>
</defs>
</svg>
