<?xml version="1.0" encoding="UTF-8"?>
<!DOCTYPE svg PUBLIC "-//W3C//DTD SVG 1.1//EN" "http://www.w3.org/Graphics/SVG/1.1/DTD/svg11.dtd">
<!-- Creator: CorelDRAW 2020 (64-Bit) -->
<svg xmlns="http://www.w3.org/2000/svg" xml:space="preserve" width="917.91mm" height="245.018mm" version="1.1" style="shape-rendering:geometricPrecision; text-rendering:geometricPrecision; image-rendering:optimizeQuality; fill-rule:evenodd; clip-rule:evenodd"
viewBox="0 0 109374 29195.21"
 xmlns:xlink="http://www.w3.org/1999/xlink"
 xmlns:xodm="http://www.corel.com/coreldraw/odm/2003">
 <defs>
  <style type="text/css">
   <![CDATA[
    .fil1 {fill:#E31E24}
    .fil0 {fill:#2B2A29;fill-rule:nonzero}
    .fil2 {fill:#E31E24;fill-rule:nonzero}
   ]]>
  </style>
 </defs>
 <g id="Слой_x0020_1">
  <metadata id="CorelCorpID_0Corel-Layer"/>
  <path class="fil0" d="M7874.3 29195.21l1839.24 0 7977.85 -17969.01 -2123.73 0 -6760.98 15735.14 -6682.95 -15735.14 -2123.73 0 7874.3 17969.01zm75352.33 -0.86l0 -17969.01 -1796.78 0 0 16367.24 -14004.33 0 9350.75 -14763.77 0 -1602.62 -11293.52 0 0 1602.62 9169.5 0 -9402.66 14763.77 0 1602.63 17604.49 0 0 -0.86 372.55 0zm-63359.03 0.86l10464.67 0 0 -1602.63 -8548.01 0 0 -6653.41 8263.22 0 0 -1602.63 -8263.22 0 0 -6458.96 8548.01 0 0 -1651.38 -10464.67 0 0 17969.01zm15774.73 0l0 -15783.62 11397.34 15783.62 1916.95 0 0 -17969.01 -1916.95 0 0 14885.08 -10723.94 -14885.08 -2590.07 0 0 17969.01 1916.67 0zm17251.73 0l10464.39 0 0 -1602.63 -8547.72 0 0 -6653.41 8262.93 0 0 -1602.63 -8262.93 0 0 -6458.96 8547.72 0 0 -1651.38 -10464.39 0 0 17969.01zm49494.66 -465.75l1502.82 0 0 -17093.71 -1502.82 0 0 4705.77 -806.18 -1447.46c-1416.21,-2543.61 -3854.27,-3667.28 -6688.7,-3717.76 -5095.24,-90.63 -9150.57,4049.87 -9179.25,9123.89 -28.95,5117.05 4052.45,8689.67 9009.18,8823.33 2713.97,120.74 5509.09,-1169.86 6859.05,-3586.98l805.9 -1443.16 0 4636.09zm-15039.66 -8996.27c-0.29,-1720.5 959.62,-3508.96 2135.21,-4726.99 1460.66,-1514.01 3451.04,-2395.62 5569.33,-2293.81 4118.69,197.61 7335.13,3433.26 7335.13,7585.22 0,4117.85 -3617.37,7423.75 -7691.33,7355.79 -4286.19,-71.41 -7601.86,-3649.49 -7348.33,-7920.2z"/>
  <path class="fil1" d="M71740.14 26412.99l1081.6 -2684.82 666.84 0 -1500.24 3604.6 -502.74 0 -1480.84 -3604.6 666.57 0 1068.81 2684.82zm2391.35 919.77l-607.07 0 0 -3604.6 607.07 0 0 3604.6zm1021.72 -1345.6l0 1345.6 -607.09 0 0 -3604.6 1009.99 0c747.69,0 1411.81,207.02 1468.92,1065.61 19.74,224.92 -25.65,448.95 -144.71,642 -240.59,390.08 -699.45,551.39 -1139.61,551.39l-587.5 0zm0 -1687.77l0 1116.52 551.65 0c409.14,0 735.92,-155.87 713.79,-603.39 -5.97,-120.66 -37.88,-236.4 -124.59,-324.32 -163.24,-165.51 -479.05,-188.81 -697.38,-188.81l-443.47 0z"/>
  <path class="fil1" d="M79664.26 26396.22c319.81,-15.86 544.53,-237.01 536.2,-561.51l-0.05 -3.52c0,-265.25 -234.06,-511.09 -502.3,-511.09 -105.38,0 -205.57,24.43 -294.84,81.74 -13.49,8.66 -26.27,18.36 -38.31,28.94 -150.61,132.36 -224.36,463.1 -282.7,651.08 -60.01,193.35 -133.33,389.89 -266.49,545.9 -205.26,240.5 -489.82,308.47 -795.64,289.56 -558.37,-34.52 -938.96,-517.11 -938.96,-1059.42 0,-295.89 115.39,-570.09 329.31,-774.63 172.95,-165.38 415.77,-285.07 658.33,-285.07 14.99,0 29.99,0 44.98,0l137.03 0 0 590.08 -118.6 16.1c-272.99,37.07 -426.4,188.05 -453.46,458.38l-0.19 1.85 -0.24 1.86c-26.74,209.48 168.21,430.83 377.01,444.32 115.9,7.49 239.66,-3.91 325.5,-90.63 70.62,-71.35 111.02,-185.05 139.72,-279.21 43.55,-142.86 74.72,-288.38 122.34,-430.44 135.56,-404.44 368.24,-659.05 790.6,-770.64l7.64 -2.03 7.82 -1.12c77.59,-11.19 152.61,-19.3 231.22,-19.3 269.18,0 540.44,104.26 742.52,281.61 249,218.53 369.02,520.65 371.25,849.14 2.67,395.25 -157.13,769.71 -489.74,995.78 -187.18,127.23 -407.38,190.6 -633.17,190.6l-137.03 0 0 -631.88 130.24 -6.46zm-40.44 -3990.72l0 1359.75 1116.06 481.42 0 658.23 -3604.62 -1548.9 0 -549.71 3604.62 -1548.9 0 657.52 -1116.06 490.59zm543.93 -1797.25l-8.78 -1381.8 580.91 0 0 1988.87 -3604.62 0 0 -607.07 3032.49 0zm-1263.76 -1336.97c-460.94,-6.63 -912.21,-210.27 -1243.59,-526.69 -373.61,-356.73 -579.21,-835.21 -579.21,-1352.19 0,-1058.77 829.01,-1924.55 1898.61,-1910.3 526.01,7.01 999.95,237.16 1342.51,633.85 308.06,356.75 493.04,833.83 480.4,1307.17 -12.5,467.9 -207.47,929.54 -526.98,1270.55 -360.43,384.69 -845.23,585.17 -1371.74,577.61zm679.41 -6363.9l-2448.14 0 0 -607.09 3604.62 0 0 542.78 -2615.64 1770.46 2615.64 0 0 607.06 -3604.62 0 0 -659.81 2448.14 -1653.4zm-1573.34 10174.23l1033.39 440.33 0 -877.42 -1033.39 437.1zm875.86 -4417.38c403.34,-6.2 777.06,-138.64 1035.39,-458.89 177.15,-219.62 288.67,-524.77 279.17,-808.35l-0.06 -2.48c-4.55,-296.65 -104.65,-605.81 -287.45,-840.73 -235.98,-303.26 -572.88,-444.31 -951.22,-464.83 -359.19,-19.48 -691.4,124.92 -933.56,388.52 -223.89,243.71 -357.87,574.57 -357.87,906.14 0,345.43 151.07,670.56 393.99,912.52 213.23,212.37 514.8,372.81 821.61,368.1z"/>
  <path class="fil1" d="M105432.54 11772.59l3882.49 0 0 1116.89c0,804.85 -289.35,1596.31 -1036.52,1987.26 -289.91,151.68 -614.03,220.53 -940.23,217.53 -587.48,-5.43 -1112.69,-253 -1473.19,-719.37 -284.19,-367.65 -432.55,-831.61 -432.55,-1294.96l0 -1307.36zm3276.92 4262.69l-1023.01 0 0 1555.32 -596.02 0 0 -1555.32 -1061.84 0 0 1609.17 -596.05 0 0 -2244.02 3882.49 0 0 2244.02 -605.57 0 0 -1609.17zm-2123.58 2374.57c-239.29,11.86 -444.5,123.91 -541.13,349.51 -36.44,85.05 -53.01,178.16 -50.64,270.54l0.05 3.53c0,293.68 258.7,565.17 555.65,565.17 116.37,0 227.04,-27.08 325.6,-90.36 15.1,-9.7 29.41,-20.55 42.88,-32.4 165.9,-145.79 245.45,-503.74 309.64,-710.6 64.51,-207.85 143.38,-419.73 286.52,-587.44 219.97,-257.73 524.95,-329.97 852.59,-309.71 598.88,37.03 1006.6,554.88 1006.6,1136.4 0,317.45 -123.75,611.55 -353.28,831 -185.23,177.1 -445.53,305.67 -705.35,305.67 -16.25,0 -32.49,0 -48.75,0l-137.03 0 0 -617.89 118.6 -16.1c301.05,-40.88 471.3,-208.65 501.16,-506.82l0.19 -1.85 0.24 -1.85c29.81,-233.54 -186.31,-479.22 -419.08,-494.26 -129.2,-8.35 -265.95,5 -361.53,101.57 -78.07,78.87 -122.44,203.1 -154.19,307.19 -47.15,154.68 -80.89,312.27 -132.45,466.06 -145.64,434.51 -394.8,707.59 -848.64,827.5l-7.64 2.03 -7.82 1.12c-83.53,12.05 -164.24,20.82 -248.87,20.82 -288.88,0 -580.08,-111.95 -796.94,-302.27 -267.31,-234.61 -395.94,-558.86 -398.32,-911.48 -2.86,-424.4 168.43,-826.56 525.61,-1069.32 200.91,-136.55 437.23,-204.52 679.56,-204.52l137.03 0 0 662.29 -130.25 6.46zm-1153.34 2662.45l0 -634.86 3882.49 0 0 634.86 -3882.49 0zm1341.02 3666.68l0 -1956.13 600.81 0 0 2740.56 -154.31 -19.62c-551.61,-70.13 -1053.1,-307.28 -1404.25,-746.52 -300.36,-375.7 -449.31,-853.68 -441.86,-1332.56 16.85,-1081.88 888.71,-2041.36 1996.12,-2031.58 574.56,5.09 1097,222.94 1479.11,656.14 326.06,369.66 515.3,863.11 524.44,1355.62 14.3,770.73 -380.18,1541.69 -1099.79,1868.35l-193.66 87.9 0 -711.29 68.61 -39.54c407.21,-234.68 621.48,-731.53 609.46,-1189.4 -10.43,-396.93 -160.73,-761.53 -455.6,-1030.96 -252.42,-230.63 -591.75,-369.55 -934.56,-371.5 -396.18,-2.26 -740.68,166.29 -997.97,464.21 -219.2,253.8 -370.97,603.82 -385.6,940.6 -11,253.16 83.42,555.61 206.81,773.82 137.53,243.23 331.82,434.98 582.27,541.9zm-136.85 3558.89l2678.32 0 0 634.87 -3882.49 0 0 -570.56 2859.73 -1935.66 -2859.73 0 0 -634.87 3882.49 0 0 697.38 -2678.32 1808.84zm2082.28 -15890.4l-2680.89 0 0 418.65c0,872.79 367.42,1570.29 1310.61,1633.61 341.44,22.93 676.35,-98.89 922.79,-336.51 332.53,-320.6 447.49,-784.77 447.49,-1233.72l0 -482.03z"/>
  <path class="fil2" d="M31691.33 5188.96c0,-63.55 5.29,-172.97 15.88,-328.29 10.59,-155.32 31.77,-312.39 63.55,-471.24 31.77,-158.85 77.65,-300.05 137.66,-423.6 60.01,-123.54 139.44,-185.31 238.26,-185.31 49.43,0 81.19,45.89 95.31,137.66l0 751.87c0,63.53 0,121.78 0,174.73 0,52.95 7.05,98.84 21.17,137.66 14.12,38.83 37.07,68.84 68.84,90.02 31.77,21.17 82.96,31.77 153.56,31.77 70.6,0 125.3,-26.48 164.14,-79.43 38.83,-52.94 75.89,-114.72 111.2,-185.31 35.29,-70.6 75.89,-142.96 121.78,-217.09 45.89,-74.13 114.72,-128.84 206.5,-164.15 28.24,-7.05 70.6,-22.94 127.08,-47.65 56.48,-24.71 102.37,-37.07 137.67,-37.07 98.83,0 162.37,42.36 190.61,127.08 28.24,84.72 44.12,181.8 47.65,291.22 3.53,109.43 3.53,220.62 0,333.58 -3.53,112.96 15.88,194.15 58.24,243.57 42.36,56.48 97.08,98.84 164.14,127.08 67.07,28.24 134.13,54.72 201.21,79.42 67.07,24.71 125.32,52.95 174.73,84.72 49.43,31.77 74.13,72.36 74.13,121.78 0,35.31 -5.29,72.36 -15.88,111.2 -10.59,38.83 -37.06,58.24 -79.42,58.24l-847.18 0c-42.36,0 -84.72,15.88 -127.07,47.65 -42.36,31.78 -74.14,65.31 -95.31,100.6l-158.85 254.16c-35.29,49.41 -97.08,107.66 -185.32,174.73 -88.25,67.06 -160.61,100.6 -217.09,100.6 -183.55,0 -330.04,-51.19 -439.47,-153.56 -109.42,-102.37 -194.14,-227.67 -254.15,-375.94 -60.02,-148.25 -100.6,-305.34 -121.79,-471.24 -21.17,-165.91 -31.77,-312.4 -31.77,-439.47zm-2170.88 275.33c0,112.95 24.71,206.5 74.13,280.62 49.41,74.13 134.13,111.2 254.15,111.2 56.48,0 95.31,-21.19 116.49,-63.55 21.19,-42.36 31.78,-88.25 31.78,-137.66 0,-56.48 -12.36,-102.37 -37.07,-137.67 -24.71,-35.29 -51.18,-74.13 -79.42,-116.49 -28.24,-42.36 -54.72,-90.01 -79.43,-142.96 -24.71,-52.94 -37.06,-125.3 -37.06,-217.09 0,-35.29 19.41,-91.77 58.24,-169.43 38.82,-77.67 65.3,-134.13 79.42,-169.44l-42.36 0c-56.48,0 -105.89,31.77 -148.25,95.31 -42.36,63.53 -77.65,137.66 -105.89,222.38 -28.24,84.72 -49.43,169.44 -63.55,254.15 -14.12,84.72 -21.17,148.27 -21.17,190.62zm-540.07 52.94c0,-141.2 28.24,-292.98 84.72,-455.35 56.47,-162.37 132.37,-314.17 227.67,-455.35 95.31,-141.2 208.27,-261.21 338.88,-360.05 130.61,-98.84 273.56,-158.85 428.88,-180.03 56.48,-14.12 98.84,12.36 127.08,79.43 28.24,67.06 42.36,121.78 42.36,164.14 0,42.36 -8.83,79.43 -26.48,111.2 -17.65,31.77 -33.53,68.84 -47.65,111.18l42.36 0c42.35,0 84.71,-5.29 127.07,-15.88 42.36,-10.58 88.25,-15.88 137.67,-15.88 190.61,0 335.34,79.43 434.18,238.28 98.83,158.85 148.25,322.98 148.25,492.42 0,148.25 -42.36,296.51 -127.08,444.76 -84.72,148.25 -192.38,280.62 -322.98,397.11 -130.61,116.5 -273.57,210.04 -428.89,280.63 -155.31,70.6 -303.57,105.89 -444.76,105.89 -134.15,0 -247.09,-28.24 -338.88,-84.72 -91.77,-56.48 -167.66,-128.84 -227.67,-217.09 -60.01,-88.25 -104.13,-188.85 -132.37,-301.8 -28.24,-112.96 -42.36,-225.92 -42.36,-338.88zm-2848.63 -1006.02c0,134.13 19.41,247.09 58.24,338.87 38.82,91.79 90.01,176.49 153.54,254.16 63.55,77.65 134.15,150.02 211.8,217.09 77.65,67.06 155.32,142.96 232.97,227.67l31.77 -116.49 296.52 -1757.89 0 -31.77c0,-63.53 -21.19,-102.37 -63.55,-116.49 -42.36,-14.12 -88.25,-21.17 -137.66,-21.17 -303.57,0 -510.07,97.06 -619.5,291.22 -109.42,194.14 -164.14,432.42 -164.14,714.8zm571.84 1535.51c-56.48,70.6 -112.96,111.18 -169.44,121.78 -56.47,10.59 -123.54,15.88 -201.19,15.88l-95.31 0c-21.17,0 -42.36,-3.53 -63.53,-10.59 -211.8,-84.71 -381.24,-225.91 -508.31,-423.59 -127.08,-197.67 -224.16,-416.52 -291.22,-656.56 -67.07,-240.03 -109.43,-483.59 -127.08,-730.69 -17.65,-247.09 -22.95,-462.42 -15.88,-645.98 -14.12,-56.48 -35.31,-105.89 -63.55,-148.25 -28.24,-42.36 -74.13,-63.53 -137.66,-63.53 -155.32,0 -312.4,30 -471.25,90.01 -158.83,60.01 -315.92,100.6 -471.24,121.78l-42.36 0c-49.41,-35.29 -82.96,-61.77 -100.6,-79.42 -17.65,-17.65 -26.48,-47.65 -26.48,-90.01 0,-35.31 14.12,-63.55 42.36,-84.72 261.21,-162.37 481.83,-268.28 661.86,-317.69 180.02,-49.41 328.27,-107.66 444.76,-174.73 116.5,-67.07 201.21,-176.49 254.16,-328.29 52.95,-151.78 79.42,-414.76 79.42,-788.93l0 -317.69c-14.12,-28.24 -30,-68.84 -47.65,-121.78 -17.65,-52.95 -40.6,-104.13 -68.84,-153.56 -28.24,-49.41 -61.77,-91.77 -100.59,-127.08 -38.83,-35.29 -82.96,-52.94 -132.38,-52.94 -70.59,0 -134.13,21.17 -190.61,63.53 -56.48,42.36 -111.18,90.01 -164.14,142.96 -52.95,52.95 -102.37,100.6 -148.25,142.96 -45.89,42.36 -90.01,63.53 -132.37,63.53 -70.6,0 -111.2,-7.05 -121.79,-21.17 -10.58,-14.12 -15.88,-42.36 -15.88,-84.72 0,-56.48 7.07,-100.6 21.19,-132.37 14.12,-31.77 38.82,-72.36 74.13,-121.79 84.72,-91.77 180.02,-199.43 285.91,-322.98 105.91,-123.54 220.63,-240.03 344.17,-349.46 123.55,-109.42 252.38,-202.97 386.53,-280.62 134.13,-77.67 275.33,-116.49 423.59,-116.49 77.65,0 130.61,5.29 158.85,15.88 28.24,10.59 81.18,47.65 158.85,111.2 120.01,98.83 217.09,197.67 291.22,296.51 74.13,98.84 139.42,218.85 195.9,360.05 42.36,105.89 75.9,220.62 100.6,344.16 24.71,123.55 58.24,238.28 100.6,344.17 42.36,105.89 104.13,194.14 185.32,264.74 81.18,70.6 199.44,105.91 354.75,105.91 49.43,0 79.43,-17.66 90.02,-52.95 10.58,-35.29 22.94,-74.13 37.06,-116.49l169.44 -815.4c14.12,-70.6 38.82,-153.56 74.13,-248.86 35.29,-95.31 82.96,-188.85 142.96,-280.63 60.01,-91.77 127.07,-169.43 201.21,-232.97 74.13,-63.53 157.07,-95.3 248.86,-95.3 49.41,0 125.3,33.53 227.67,100.6 102.37,67.06 201.21,144.73 296.52,232.97 95.3,88.25 180.02,178.26 254.15,270.03 74.13,91.79 111.2,158.85 111.2,201.21 0,63.55 -38.83,95.31 -116.49,95.31l-52.95 0c-183.55,-225.92 -402.4,-402.41 -656.56,-529.49l-31.77 0c-42.36,0 -86.48,38.83 -132.37,116.49 -45.89,77.67 -75.89,134.15 -90.01,169.44l-74.14 370.63 -127.07 942.48c-14.12,91.79 17.65,165.91 95.3,222.39 77.67,56.48 164.15,112.95 259.45,169.43 95.31,56.48 183.56,121.79 264.74,195.92 81.19,74.13 121.79,178.26 121.79,312.39 0,162.39 -30,268.28 -90.01,317.69 -60.02,49.43 -134.15,79.43 -222.39,90.01 -88.25,10.59 -178.26,21.19 -270.03,31.78 -91.79,10.58 -169.44,58.24 -232.97,142.95 -98.84,120.03 -171.2,259.45 -217.09,418.3 -45.9,158.85 -82.96,315.93 -111.2,471.25 -14.12,70.6 -30,171.19 -47.65,301.8 -17.66,130.61 -35.31,262.99 -52.95,397.12 -17.65,134.13 -33.53,255.91 -47.65,365.34 -14.12,109.42 -21.19,178.26 -21.19,206.5l0 360.05c0,529.48 49.43,1053.67 148.27,1572.57 98.83,518.9 240.03,1021.91 423.59,1509.03 7.05,14.12 17.65,44.12 31.77,90.01 14.12,45.89 31.77,97.08 52.95,153.56 21.17,56.48 38.82,109.42 52.94,158.85 14.12,49.41 24.71,81.18 31.77,95.3 42.36,112.96 84.72,190.61 127.08,232.97 42.36,42.36 84.72,70.6 127.08,84.72 42.36,14.12 82.96,30 121.78,47.66 38.83,17.65 79.43,58.24 121.79,121.78l0 148.25c0,98.84 -21.19,172.97 -63.55,222.38 -42.36,49.43 -116.49,74.14 -222.38,74.14 -141.2,0 -273.57,-77.67 -397.11,-232.98 -123.55,-155.31 -232.97,-335.34 -328.29,-540.07 -95.31,-204.73 -176.49,-412.99 -243.57,-624.79 -67.06,-211.79 -118.25,-370.63 -153.54,-476.54 -91.79,-282.39 -167.68,-566.55 -227.68,-852.46 -60.01,-285.93 -107.66,-577.14 -142.96,-873.65 0,-21.19 -1.76,-56.48 -5.29,-105.91 -3.53,-49.41 -7.07,-104.13 -10.59,-164.14 -3.53,-60.01 -7.05,-118.25 -10.59,-174.73 -3.53,-56.48 -5.29,-98.84 -5.29,-127.08 -7.07,-49.41 -8.83,-111.18 -5.29,-185.31 3.53,-74.14 -22.95,-121.79 -79.43,-142.96zm-7513.06 -1260.18c-63.53,42.36 -114.72,97.08 -153.54,164.14 -38.83,67.07 -75.89,132.37 -111.2,195.92 -35.29,63.53 -70.6,118.25 -105.89,164.14 -35.31,45.89 -81.19,68.84 -137.67,68.84 -56.47,0 -84.71,-24.71 -84.71,-74.13 0,-70.6 22.94,-167.68 68.82,-291.22 45.89,-123.55 105.91,-243.57 180.03,-360.05 74.13,-116.49 155.31,-217.09 243.55,-301.81 88.26,-84.72 174.73,-127.08 259.45,-127.08 127.08,0 218.85,42.36 275.33,127.08 56.48,84.72 100.6,176.49 132.37,275.33 31.78,98.84 61.78,190.61 90.02,275.33 28.24,84.72 74.13,127.08 137.66,127.08 84.72,0 158.85,-26.48 222.38,-79.43 63.55,-52.94 127.08,-111.18 190.61,-174.73 63.55,-63.53 127.08,-121.78 190.62,-174.73 63.53,-52.94 137.66,-79.42 222.38,-79.42 127.08,0 213.56,58.24 259.45,174.73 45.89,116.49 79.42,227.67 100.6,333.58 21.17,14.12 60.01,21.17 116.49,21.17 63.53,0 118.25,-15.88 164.14,-47.65 45.89,-31.77 91.77,-67.07 137.67,-105.89 45.89,-38.83 91.77,-74.14 137.66,-105.91 45.89,-31.77 97.08,-47.65 153.56,-47.65 91.77,0 169.43,31.77 232.97,95.31 63.53,63.53 112.95,134.13 148.25,211.79 14.12,70.6 24.71,150.02 31.77,238.28 7.05,88.25 21.17,171.19 42.36,248.86 21.17,77.65 52.95,142.96 95.3,195.9 42.36,52.95 109.43,79.43 201.21,79.43 275.33,0 522.43,-77.67 741.28,-232.97l10.59 -10.59c0,0 7.07,-7.07 21.19,-21.19l31.77 -31.77 137.66 -74.13c42.36,35.31 63.55,77.65 63.55,127.08 0,98.84 -51.19,190.61 -153.56,275.33 -102.37,84.72 -222.38,158.85 -360.05,222.38 -137.66,63.55 -275.33,112.96 -412.99,148.25 -137.67,35.31 -241.8,52.95 -312.4,52.95 -141.19,0 -247.09,-38.83 -317.69,-116.49 -70.59,-77.65 -125.3,-164.14 -164.14,-259.45 -38.83,-95.3 -70.6,-181.78 -95.3,-259.45 -24.71,-77.65 -61.78,-116.49 -111.2,-116.49 -56.48,0 -109.43,44.12 -158.85,132.37 -49.41,88.25 -98.84,187.09 -148.25,296.52 -49.43,109.42 -104.13,208.26 -164.15,296.51 -60.01,88.25 -132.37,132.37 -217.08,132.37 -98.84,0 -174.74,-26.48 -227.68,-79.42 -52.95,-52.95 -95.31,-109.43 -127.08,-169.44 -31.77,-60.01 -60.01,-116.49 -84.72,-169.44 -24.7,-52.94 -58.24,-79.42 -100.6,-79.42 -63.53,0 -114.72,30 -153.54,90.01 -38.83,60.01 -77.67,123.55 -116.49,190.61 -38.83,67.07 -86.48,130.61 -142.96,190.61 -56.48,60.02 -130.61,90.02 -222.38,90.02 -70.6,0 -127.08,-17.66 -169.44,-52.95 -42.36,-35.29 -84.72,-81.19 -127.08,-137.66 -84.72,-105.91 -130.61,-224.16 -137.66,-354.76 -7.07,-130.61 -8.83,-262.98 -5.3,-397.11 3.54,-134.13 -3.53,-264.74 -21.17,-391.82 -17.65,-127.08 -82.96,-232.97 -195.92,-317.69zm-2128.52 1535.51l-497.71 232.97 -63.55 0c-176.49,0 -337.1,-58.24 -481.83,-174.73 -144.73,-116.49 -217.09,-284.16 -217.09,-503.01 0,-112.96 31.77,-248.86 95.31,-407.7 63.53,-158.85 142.96,-308.86 238.26,-450.06 95.31,-141.2 201.21,-261.21 317.69,-360.05 116.49,-98.84 227.68,-148.25 333.58,-148.25 63.53,0 95.31,24.71 95.31,74.13l-10.59 31.77c-77.67,77.67 -158.85,164.15 -243.57,259.45 -84.72,95.31 -148.25,199.44 -190.61,312.4 35.29,77.65 95.31,116.49 180.02,116.49 134.15,0 241.8,-56.48 322.99,-169.44 81.18,-112.96 157.07,-222.38 227.67,-328.29l0 -105.89c0,-56.48 -5.29,-109.42 -15.88,-158.85 -10.59,-49.41 -15.88,-98.84 -15.88,-148.25 0,-42.36 31.77,-90.01 95.31,-142.96 63.53,-52.95 112.95,-79.42 148.25,-79.42 42.36,0 84.72,35.29 127.08,105.89 42.35,70.6 81.18,151.78 116.49,243.57 35.29,91.77 65.3,183.55 90.01,275.33 24.7,91.77 40.6,155.31 47.65,190.61 14.12,120.01 24.71,261.21 31.77,423.59 7.07,162.37 26.48,319.46 58.24,471.24 31.77,151.79 86.48,280.63 164.15,386.53 77.65,105.89 197.67,158.85 360.04,158.85 56.48,0 82.96,-5.29 79.43,-15.88 -3.53,-10.59 22.94,-15.88 79.42,-15.88 56.48,0 100.6,21.17 132.37,63.53 31.78,42.36 47.66,91.77 47.66,148.25 0,91.79 -10.59,162.37 -31.77,211.8 -21.19,49.41 -47.66,84.72 -79.43,105.89 -31.77,21.19 -70.6,31.77 -116.49,31.77 -45.89,0 -90.01,0 -132.37,0 -56.48,-7.05 -111.2,-10.58 -164.14,-10.58 -52.95,0 -139.44,-17.66 -259.45,-52.95 -70.6,-21.17 -141.2,-63.53 -211.8,-127.08 -70.6,-63.53 -142.96,-127.08 -217.09,-190.61 -74.13,-63.53 -144.73,-121.78 -211.79,-174.73 -67.07,-52.95 -128.84,-79.42 -185.32,-79.42l-42.36 0zm-2266.19 -2213.25c240.04,0 420.06,44.12 540.07,132.37 120.03,88.25 187.09,202.97 201.21,344.17l0 84.72c0,127.08 -21.17,229.45 -63.53,307.1 -42.36,77.65 -102.37,135.9 -180.03,174.73 -77.65,38.83 -169.43,65.31 -275.33,79.43 -105.89,14.12 -222.38,24.7 -349.46,31.77l-95.3 10.58c-91.77,7.07 -185.32,30.02 -280.62,68.84 -95.31,38.83 -142.96,90.01 -142.96,153.56 0,28.24 14.12,61.77 42.36,100.6 28.24,38.82 61.77,75.89 100.6,111.18 38.82,35.31 79.42,65.31 121.78,90.02 42.36,24.7 74.13,37.06 95.3,37.06 70.6,0 130.61,-10.59 180.03,-31.77 49.41,-21.19 98.84,-42.36 148.25,-63.53 49.41,-35.31 109.43,-52.95 180.02,-52.95 35.31,0 68.84,3.53 100.6,10.59 31.78,7.05 65.31,24.7 100.6,52.94 21.19,14.12 38.83,40.6 52.95,79.43 14.12,38.82 21.17,75.89 21.17,111.18 0,35.31 -14.12,67.07 -42.36,95.31 -14.11,14.12 -68.82,49.41 -164.14,105.89 -95.3,56.48 -185.32,127.08 -270.03,211.8 -42.36,42.36 -88.25,79.42 -137.67,111.18 -49.41,31.78 -134.13,47.66 -254.15,47.66 -70.6,0 -135.91,-5.3 -195.92,-15.88 -60.01,-10.59 -104.13,-22.95 -132.37,-37.07 -261.21,-120.01 -427.11,-282.39 -497.71,-487.12 -35.31,-105.91 -52.95,-229.45 -52.95,-370.64l0 -74.13c0,-120.01 15.88,-259.45 47.65,-418.3 31.78,-158.85 90.02,-308.86 174.73,-450.06 84.72,-141.2 201.21,-264.74 349.46,-370.63 148.27,-105.91 338.88,-165.91 571.85,-180.03l105.89 0zm158.85 667.15c-7.05,-21.17 -31.77,-60.01 -74.13,-116.49 -42.36,-56.48 -112.96,-84.72 -211.8,-84.72l-21.17 0c-169.44,14.12 -296.51,61.78 -381.23,142.96 -84.72,81.19 -137.67,188.85 -158.85,322.98 105.89,0 208.26,-1.76 307.1,-5.29 98.84,-3.53 188.85,-12.36 270.03,-26.48 81.19,-14.12 146.5,-38.82 195.92,-74.13 49.41,-35.29 74.13,-84.72 74.13,-148.25l0 -10.59zm-3272.21 1238.99c0,-28.23 -1.76,-82.94 -5.29,-164.14 -3.54,-81.18 -5.3,-132.37 -5.3,-153.54 0,-183.56 24.71,-363.58 74.13,-540.08 49.43,-176.49 74.13,-356.51 74.13,-540.07 0,-49.41 -28.24,-74.13 -84.71,-74.13 -63.55,0 -123.55,22.95 -180.03,68.84 -56.48,45.89 -111.18,95.3 -164.14,148.25 -52.95,52.95 -100.6,100.6 -142.96,142.96 -42.36,42.36 -77.65,63.53 -105.89,63.53 -28.24,0 -45.89,-12.36 -52.95,-37.06 -7.05,-24.71 -10.59,-47.66 -10.59,-68.84 0,-56.48 31.78,-137.66 95.31,-243.57 63.53,-105.89 139.44,-211.79 227.68,-317.69 88.25,-105.89 180.02,-197.67 275.33,-275.33 95.3,-77.65 171.19,-116.49 227.67,-116.49 63.55,0 114.72,21.19 153.56,63.55 38.82,42.36 72.36,88.25 100.6,137.66 28.24,49.43 56.48,95.31 84.72,137.67 28.24,42.36 63.53,63.53 105.89,63.53 70.6,0 135.9,-28.24 195.9,-84.72 60.01,-56.48 121.79,-88.25 185.32,-95.3 70.6,0 144.73,19.41 222.38,58.24 77.67,38.82 116.49,86.48 116.49,142.96l0 487.12c0,42.36 14.12,77.65 42.36,105.89 28.24,28.24 60.01,54.72 95.31,79.43 35.29,24.71 67.07,49.41 95.3,74.13 28.24,24.71 42.36,54.72 42.36,90.01 0,49.43 -19.41,82.96 -58.24,100.6 -38.82,17.65 -79.42,26.48 -121.78,26.48 -77.65,0 -157.08,-19.41 -240.04,-58.24 -82.94,-38.83 -165.9,-58.24 -252.38,-58.24 -28.24,0 -72.36,5.29 -134.13,15.88 -60.01,10.59 -97.08,33.53 -112.96,68.84l-202.97 444.76 0 52.95c0,56.48 5.29,114.72 15.88,174.73 10.59,60.01 15.88,121.78 15.88,185.32 0,91.77 -12.36,165.9 -37.06,222.38 -22.95,56.48 -84.72,84.72 -181.8,84.72 -116.49,0 -202.97,-42.36 -254.15,-127.08 -51.19,-84.72 -84.72,-180.02 -98.84,-285.93zm-4394.73 -2954.52c-7.05,63.53 -22.94,172.97 -47.65,328.29 -24.71,155.31 -52.95,322.98 -84.72,503 -31.77,180.03 -61.77,347.7 -90.01,503.01 -28.24,155.32 -49.43,264.74 -63.55,328.29 -42.35,211.79 -102.37,437.71 -180.02,677.73 -77.65,240.04 -116.49,473.01 -116.49,698.92l63.53 0c21.19,-7.05 52.95,-17.65 95.31,-31.77 42.36,-14.12 86.48,-28.24 132.37,-42.36 45.89,-14.12 88.25,-28.24 127.08,-42.36 38.83,-14.12 65.3,-21.17 79.42,-21.17 28.24,-7.07 98.84,-35.31 211.8,-84.72 112.96,-49.41 232.97,-100.6 360.05,-153.56 127.07,-52.94 247.09,-104.13 360.04,-153.54 112.96,-49.43 183.56,-81.19 211.8,-95.31 120.01,-49.41 300.05,-130.61 540.07,-243.55 240.04,-112.96 481.83,-243.57 725.39,-391.82 243.57,-148.27 457.13,-307.11 640.68,-476.54 183.56,-169.44 275.33,-335.34 275.33,-497.72 0,-190.61 -79.42,-360.04 -238.26,-508.31 -158.85,-148.25 -349.46,-273.56 -571.85,-375.92 -222.38,-102.37 -450.06,-180.03 -683.03,-232.97 -232.97,-52.95 -420.05,-79.43 -561.25,-79.43 -105.91,0 -217.09,1.76 -333.58,5.29 -116.49,3.54 -227.68,17.66 -333.58,42.36 -105.89,24.71 -204.73,63.55 -296.52,116.49 -91.77,52.95 -165.9,128.84 -222.38,227.68zm-7095.09 6375c0,-14.12 5.29,-65.31 15.88,-153.56 10.59,-88.25 22.94,-150.02 37.06,-185.31 21.19,-120.03 97.08,-238.28 227.68,-354.76 130.61,-116.49 291.22,-229.45 481.83,-338.87 190.61,-109.43 400.65,-215.33 630.09,-317.69 229.43,-102.37 455.35,-195.9 677.73,-280.62 222.39,-84.72 432.42,-162.37 630.09,-232.97 197.67,-70.6 360.04,-130.61 487.12,-180.03 21.19,-7.05 75.89,-31.77 164.14,-74.13 88.25,-42.36 183.56,-84.72 285.93,-127.08 102.37,-42.36 199.44,-82.94 291.22,-121.78 91.77,-38.83 148.25,-61.77 169.44,-68.84 91.77,-35.29 217.09,-77.65 375.94,-127.07 158.85,-49.43 321.22,-102.38 487.12,-158.85 165.91,-56.48 317.69,-120.03 455.36,-190.62 137.66,-70.59 234.74,-144.71 291.22,-222.38 7.05,-56.48 21.17,-153.54 42.36,-291.22 21.17,-137.66 42.35,-282.39 63.53,-434.18 21.17,-151.78 40.6,-294.74 58.24,-428.88 17.65,-134.15 30,-229.45 37.06,-285.93l0 -624.79c0,-247.09 -12.34,-464.18 -37.06,-651.27 -24.71,-187.09 -47.65,-397.11 -68.84,-630.08 -35.29,-275.33 -81.18,-510.07 -137.66,-704.22 -56.48,-194.14 -144.73,-352.99 -264.75,-476.53 -120.01,-123.55 -277.1,-215.33 -471.24,-275.33 -194.14,-60.02 -443,-97.08 -746.57,-111.2 -21.19,0 -68.84,1.76 -142.96,5.29 -74.13,3.54 -153.56,7.07 -238.28,10.59 -84.71,3.53 -164.14,8.83 -238.26,15.88 -74.13,7.07 -121.78,10.59 -142.96,10.59l-31.77 0c-134.13,0 -201.21,-52.95 -201.21,-158.85 0,-28.24 0,-52.95 0,-74.13 0,-21.19 17.65,-38.83 52.95,-52.95 275.33,-56.48 548.9,-97.08 820.7,-121.78 271.81,-24.71 552.43,-30 841.88,-15.88 112.96,-63.55 211.8,-151.79 296.52,-264.75 84.71,-112.95 169.43,-224.14 254.15,-333.58 84.72,-109.42 178.26,-204.73 280.62,-285.91 102.38,-81.19 227.68,-121.79 375.94,-121.79 254.16,0 467.72,70.6 640.68,211.8 172.97,141.2 301.81,324.75 386.53,550.66 28.24,84.72 47.65,150.02 58.24,195.9 10.59,45.9 21.19,84.72 31.77,116.49 10.59,31.78 30,63.55 58.24,95.31 28.24,31.77 74.13,72.36 137.67,121.78 56.48,42.36 125.3,79.43 206.5,111.2 81.19,31.77 165.9,61.77 254.15,90.01 88.26,28.24 171.2,52.95 248.87,74.13 77.65,21.19 141.19,42.36 190.61,63.55 197.67,63.53 437.71,162.37 720.09,296.51 282.4,134.13 554.19,291.22 815.4,471.25 261.21,180.02 485.37,377.7 672.45,593.01 187.09,215.33 291.22,439.48 312.39,672.45 14.12,190.61 -21.17,368.87 -105.89,534.77 -84.72,165.91 -195.92,317.69 -333.58,455.36 -137.67,137.66 -285.93,259.45 -444.77,365.34 -158.85,105.89 -305.34,197.68 -439.47,275.33 -487.12,225.91 -981.3,439.47 -1482.56,640.68 -501.24,201.21 -1009.54,382.99 -1524.92,545.37 -98.84,77.65 -167.68,197.67 -206.5,360.04 -38.83,162.39 -77.67,326.52 -116.49,492.42 -38.83,165.91 -97.08,312.4 -174.73,439.48 -77.67,127.07 -204.73,190.61 -381.23,190.61 -42.36,0 -79.43,-12.36 -111.2,-37.07 -31.77,-24.71 -47.65,-61.77 -47.65,-111.2l0 -52.94c0,-7.07 8.82,-38.83 26.46,-95.31 17.66,-56.48 37.07,-116.49 58.24,-180.02 21.19,-63.55 42.36,-123.55 63.55,-180.03 21.17,-56.47 31.77,-95.3 31.77,-116.49 0,0 3.53,-3.53 10.59,-10.58l0 -21.19c0,-49.41 -12.36,-95.3 -37.07,-137.66 -24.71,-42.36 -61.77,-63.55 -111.18,-63.55 -120.03,0 -232.98,21.19 -338.88,63.55 -105.89,42.36 -215.33,81.18 -328.27,116.49 -7.07,14.12 -37.07,26.48 -90.02,37.06 -52.94,10.59 -82.94,15.88 -90.01,15.88 -35.29,14.12 -95.3,33.54 -180.02,58.24 -84.72,24.71 -171.2,52.95 -259.45,84.72 -88.25,31.77 -172.97,61.78 -254.16,90.01 -81.18,28.24 -135.9,45.9 -164.14,52.95 -155.32,56.48 -301.81,120.01 -439.47,190.61 -137.67,70.6 -277.1,134.13 -418.3,190.61 -77.65,28.24 -188.85,68.84 -333.58,121.79 -144.73,52.94 -305.34,114.72 -481.83,185.31 -176.49,70.6 -358.29,150.03 -545.37,238.28 -187.07,88.25 -356.51,181.78 -508.31,280.62 -151.78,98.84 -275.33,202.97 -370.63,312.4 -95.31,109.42 -142.96,224.14 -142.96,344.16 0,155.32 54.72,262.99 164.14,322.99 109.43,60.01 227.68,100.6 354.76,121.78 127.08,21.17 245.33,35.29 354.75,42.36 109.43,7.05 164.14,35.29 164.14,84.72 0,49.41 -21.17,90.01 -63.53,121.78 -42.36,31.77 -93.54,54.72 -153.54,68.84 -60.02,14.12 -121.79,24.71 -185.32,31.77 -63.55,7.07 -112.96,10.59 -148.25,10.59 -70.6,0 -165.91,-19.42 -285.93,-58.24 -120.01,-38.83 -236.5,-91.79 -349.46,-158.85 -112.96,-67.07 -211.8,-142.96 -296.52,-227.68 -84.71,-84.72 -127.07,-172.97 -127.07,-264.74zm35130.96 -2933.35c0,-49.41 30,-100.6 90.01,-150.02 60.01,-49.43 125.32,-98.84 195.92,-148.27 70.6,-49.41 135.9,-98.83 195.9,-148.25 60.01,-49.41 90.01,-102.37 90.01,-160.61 0,-28.24 -14.12,-54.72 -42.36,-79.42 -28.24,-24.71 -52.94,-37.07 -74.13,-37.07l-773.04 0c-162.37,0 -291.22,-58.24 -386.52,-174.73 -95.31,-116.49 -142.96,-254.15 -142.96,-409.47 0,-70.6 22.94,-148.25 68.82,-232.97 45.9,-86.48 82.96,-150.02 111.2,-192.38 14.12,-21.19 61.77,-74.13 142.96,-158.85 81.18,-84.72 171.2,-172.97 270.03,-261.21 98.84,-88.25 194.15,-169.44 285.93,-243.57 91.77,-74.13 151.79,-120.01 180.03,-134.13l561.25 -211.8 84.72 0c141.2,0 261.21,58.24 360.05,176.49 98.84,116.49 148.25,243.57 148.25,379.46 0,141.2 -22.95,254.16 -68.84,335.35 -45.89,81.18 -142.96,134.13 -291.22,155.31 -7.05,7.07 -38.82,12.36 -95.3,15.88 -56.48,3.54 -91.79,8.83 -105.91,15.88 -63.53,35.31 -120.01,82.96 -169.43,144.73 -49.43,60.02 -112.96,90.02 -190.61,90.02 -77.67,0 -150.03,-10.59 -217.09,-31.78 -67.07,-21.17 -139.44,-31.77 -217.09,-31.77 -35.31,0 -82.96,15.88 -142.96,47.66 -60.01,31.77 -90.01,68.82 -90.01,111.18l0 201.21c0,7.05 21.17,21.17 63.53,42.36 42.36,21.17 77.65,35.29 105.89,42.36 77.67,21.17 169.44,31.77 275.33,31.77 105.91,0 206.51,5.29 301.81,15.88 95.31,10.59 176.49,37.07 243.57,79.43 67.06,42.36 100.6,123.54 100.6,243.55 0,77.67 -12.36,139.44 -37.07,185.32 -24.7,45.89 -61.77,97.08 -111.18,153.56l-476.54 444.76c-14.12,14.12 -26.48,22.95 -37.07,26.48 -10.59,3.53 -26.48,5.29 -47.65,5.29 -35.31,0 -70.6,-14.11 -105.89,-42.35 -35.31,-28.24 -52.95,-60.02 -52.95,-95.31zm3049.83 -1726.12c-7.05,-21.17 -31.77,-60.01 -74.13,-116.49 -42.36,-56.48 -112.96,-84.72 -211.8,-84.72l-21.17 0c-169.44,14.12 -296.51,61.78 -381.23,142.96 -84.72,81.19 -137.67,188.85 -158.85,322.98 105.89,0 208.26,-1.76 307.1,-5.29 98.84,-3.53 188.85,-12.36 270.03,-26.48 81.19,-14.12 146.5,-38.82 195.92,-74.13 49.41,-35.29 74.13,-84.72 74.13,-148.25l0 -10.59zm-158.85 -667.15c240.04,0 420.06,44.12 540.07,132.37 120.03,88.25 187.09,202.97 201.21,344.17l0 84.72c0,127.08 -21.17,229.45 -63.53,307.1 -42.36,77.65 -102.37,135.9 -180.03,174.73 -77.65,38.83 -169.43,65.31 -275.33,79.43 -105.89,14.12 -222.38,24.7 -349.46,31.77l-95.3 10.58c-91.77,7.07 -185.32,30.02 -280.62,68.84 -95.31,38.83 -142.96,90.01 -142.96,153.56 0,28.24 14.12,61.77 42.36,100.6 28.24,38.82 61.77,75.89 100.6,111.18 38.82,35.31 79.42,65.31 121.78,90.02 42.36,24.7 74.13,37.06 95.3,37.06 70.6,0 130.61,-10.59 180.03,-31.77 49.41,-21.19 98.84,-42.36 148.25,-63.53 49.41,-35.31 109.43,-52.95 180.02,-52.95 35.31,0 68.84,3.53 100.6,10.59 31.78,7.05 65.31,24.7 100.6,52.94 21.19,14.12 38.83,40.6 52.95,79.43 14.12,38.82 21.17,75.89 21.17,111.18 0,35.31 -14.12,67.07 -42.36,95.31 -14.11,14.12 -68.82,49.41 -164.14,105.89 -95.3,56.48 -185.32,127.08 -270.03,211.8 -42.36,42.36 -88.25,79.42 -137.67,111.18 -49.41,31.78 -134.13,47.66 -254.15,47.66 -70.6,0 -135.91,-5.3 -195.92,-15.88 -60.01,-10.59 -104.13,-22.95 -132.37,-37.07 -261.21,-120.01 -427.11,-282.39 -497.71,-487.12 -35.31,-105.91 -52.95,-229.45 -52.95,-370.64l0 -74.13c0,-120.01 15.88,-259.45 47.65,-418.3 31.78,-158.85 90.02,-308.86 174.73,-450.06 84.72,-141.2 201.21,-264.74 349.46,-370.63 148.27,-105.91 338.88,-165.91 571.85,-180.03l105.89 0z"/>
 </g>
</svg>
