<svg fill="#cb9e71" id="Capa_1" enable-background="new 0 0 511.998 511.998" height="512" viewBox="0 0 511.998 511.998" width="512" xmlns="http://www.w3.org/2000/svg"><g><path d="m104.019 127.958h65.45c17.353 0 31.471-14.117 31.471-31.47v-25.89c0-17.358-14.118-31.48-31.471-31.48h-26.87c-4.143 0-7.5 3.358-7.5 7.5s3.357 7.5 7.5 7.5h26.87c9.082 0 16.471 7.393 16.471 16.48v25.89c0 9.082-7.389 16.47-16.471 16.47h-65.45c-9.087 0-16.479-7.388-16.479-16.47v-25.89c0-9.087 7.393-16.48 16.479-16.48h8.58c4.143 0 7.5-3.358 7.5-7.5s-3.357-7.5-7.5-7.5h-8.58c-17.357 0-31.479 14.122-31.479 31.48v25.89c-.001 17.353 14.121 31.47 31.479 31.47z"/><path d="m355.713 244.513c6.135 6.135 14.194 9.203 22.254 9.203s16.119-3.068 22.254-9.203h.001l18.309-18.31c5.945-5.944 9.219-13.848 9.219-22.254 0-8.407-3.273-16.31-9.218-22.254l-46.285-46.285c-12.27-12.271-32.237-12.27-44.509 0l-18.309 18.31c-5.945 5.944-9.219 13.848-9.219 22.254s3.273 16.31 9.218 22.254zm-35.678-80.186 18.309-18.31c3.212-3.212 7.43-4.817 11.648-4.817s8.437 1.606 11.647 4.817l46.285 46.285c3.111 3.111 4.824 7.248 4.824 11.648 0 4.399-1.713 8.536-4.825 11.647l-18.309 18.31c-6.423 6.422-16.873 6.422-23.296 0l-46.285-46.285c-3.111-3.111-4.824-7.248-4.824-11.647.001-4.4 1.714-8.537 4.826-11.648z"/><path d="m424.709 305.358-30.002-.001 63.317-63.318c20.998-20.999 20.998-55.174-.001-76.186l-69.939-69.93c-21.007-21.005-55.182-21.004-76.187 0l-71.837 71.837v-113.89c.001-29.704-24.16-53.87-53.859-53.87h-98.911c-29.703 0-53.869 24.166-53.869 53.87l-.002 404.259c0 29.704 24.166 53.87 53.87 53.87h277.75c4.143 0 7.5-3.358 7.5-7.5s-3.357-7.5-7.5-7.5h-277.75c-21.433 0-38.87-17.437-38.87-38.87l.002-98.987c.042-21.398 17.461-38.793 38.868-38.793l337.42.01c21.433 0 38.87 17.433 38.87 38.86v98.91c0 21.433-17.438 38.87-38.87 38.87h-29.67c-4.143 0-7.5 3.358-7.5 7.5s3.357 7.5 7.5 7.5h29.67c29.704 0 53.87-24.166 53.87-53.87v-98.91c0-29.699-24.166-53.861-53.87-53.861zm-102.205-198.827c15.158-15.156 39.817-15.156 54.974 0l69.938 69.929c15.152 15.161 15.152 39.822.001 54.974l-73.923 73.923-34.117-.001 4.812-4.809c5.943-5.943 9.217-13.847 9.217-22.253 0-8.407-3.273-16.31-9.218-22.253l-46.288-46.279c-5.943-5.95-13.848-9.227-22.256-9.227-8.407 0-16.312 3.277-22.253 9.224l-17.428 17.429c-5.944 5.943-9.218 13.846-9.218 22.253 0 8.406 3.273 16.309 9.217 22.252l33.659 33.66-23.063-.001-22.123-22.132c-5.943-5.944-13.847-9.217-22.253-9.217-8.407 0-16.31 3.273-22.252 9.216l-18.334 18.325c-1.185 1.191-2.264 2.464-3.235 3.806l-34.675-.001zm-31.668 198.823-44.267-44.267c-3.11-3.11-4.823-7.247-4.823-11.646 0-4.4 1.713-8.536 4.824-11.646l17.43-17.431c3.11-3.113 7.246-4.828 11.644-4.828s8.534 1.715 11.647 4.831l46.291 46.281c3.11 3.11 4.823 7.247 4.823 11.646s-1.713 8.536-4.822 11.645l-15.425 15.416zm-65.488-.002-46.341-.001 11.529-11.523c3.11-3.11 7.246-4.824 11.646-4.824 4.399 0 8.535 1.713 11.645 4.823zm-122.875-.003h-14.93v-25.714c0-9.083 7.389-16.472 16.472-16.472h40.645zm66.999-88.49h-65.457c-9.082 0-16.472-7.389-16.472-16.472v-24.651c0-9.083 7.39-16.472 16.472-16.472h65.457c9.082 0 16.472 7.389 16.472 16.472v24.651c-.001 9.083-7.39 16.472-16.472 16.472zm-121.051 105.118v-268.107c0-21.433 17.437-38.87 38.869-38.87h98.911c21.427 0 38.859 17.437 38.859 38.87v128.891l-24.998 24.998c.57-2.366.88-4.833.88-7.372v-24.651c0-17.354-14.118-31.472-31.472-31.472h-65.457c-17.354 0-31.472 14.118-31.472 31.472v24.651c0 17.354 14.118 31.472 31.472 31.472h65.457c2.539 0 5.005-.31 7.371-.88l-17.183 17.183h-55.645c-17.354 0-31.472 14.118-31.472 31.472v25.889c0 .628.04 1.25.076 1.872-9.34 2.649-17.653 7.756-24.196 14.582z"/><path d="m278.191 344.475c-17.354 0-31.473 14.118-31.473 31.472v65.457c0 17.354 14.118 31.472 31.473 31.472h24.651c17.354 0 31.473-14.118 31.473-31.472v-65.457c0-17.354-14.118-31.472-31.473-31.472zm41.124 31.473v65.457c0 9.083-7.39 16.472-16.473 16.472h-24.651c-9.083 0-16.473-7.389-16.473-16.472v-65.457c0-9.083 7.39-16.472 16.473-16.472h24.651c9.083-.001 16.473 7.389 16.473 16.472z"/><path d="m439.455 441.404v-65.456c0-17.354-14.118-31.473-31.472-31.473h-25.895c-17.354 0-31.473 14.119-31.473 31.473v65.456c0 17.354 14.118 31.472 31.473 31.472h25.895c17.354 0 31.472-14.118 31.472-31.472zm-73.839 0v-65.456c0-9.083 7.39-16.473 16.473-16.473h25.895c9.082 0 16.472 7.39 16.472 16.473v65.456c0 9.083-7.39 16.472-16.472 16.472h-25.895c-9.083 0-16.473-7.389-16.473-16.472z"/><path d="m173.05 344.475c-17.354 0-31.473 14.118-31.473 31.472v65.457c0 17.354 14.118 31.472 31.473 31.472h25.895c17.354 0 31.472-14.118 31.472-31.472v-65.457c0-17.354-14.118-31.472-31.472-31.472zm42.366 31.473v65.457c0 9.083-7.39 16.472-16.472 16.472h-25.894c-9.083 0-16.473-7.389-16.473-16.472v-65.457c0-9.083 7.39-16.472 16.473-16.472h25.895c9.081-.001 16.471 7.389 16.471 16.472z"/><path d="m74.786 408.676c0 13.723 11.164 24.887 24.887 24.887s24.888-11.165 24.888-24.887-11.165-24.887-24.888-24.887-24.887 11.164-24.887 24.887zm34.775 0c0 5.452-4.436 9.887-9.888 9.887-5.451 0-9.887-4.436-9.887-9.887s4.436-9.887 9.887-9.887c5.452 0 9.888 4.435 9.888 9.887z"/></g></svg>